<svg width="36" height="41" xmlns="http://www.w3.org/2000/svg" xmlns:xlink="http://www.w3.org/1999/xlink"><defs><path id="a" d="M.072.035h33.88V40H.073z"/><path d="M19.638 6.956C16.614 11.106 3.366 21.631 2.07 25.041.774 28.45-3.258 34.083 5.958 39.123c1.098.6 2.242.873 3.408.877h.05c8.615-.027 18.508-14.666 21.166-20.42 3.024-6.546 5.76-15.885 0-19.443a2.866 2.866 0 0 0-.788-.102c-2.773 0-7.413 3.155-10.156 6.921" id="c"/></defs><g fill="none" fill-rule="evenodd"><g transform="translate(0 1)"><mask id="b" fill="#fff"><use xlink:href="#a"/></mask><path d="M30.582.137c-2.591-.741-7.92 2.668-10.944 6.82C16.614 11.106 3.366 21.63 2.07 25.04.774 28.45-3.258 34.083 5.958 39.123c9.216 5.04 21.6-12.998 24.624-19.544 3.024-6.545 5.76-15.884 0-19.442" fill="#271431" mask="url(#b)"/></g><g transform="translate(0 1)"><mask id="d" fill="#fff"><use xlink:href="#c"/></mask><path d="M32.329.506c.044.2.078.404.102.613.197 1.735-.894 3.528-1.5 5.077-1.357 3.459-1.819 7.368-3.536 10.661-1.578 3.026-3.832 5.916-6.068 8.456-2.357 2.678-4.587 5.84-7.185 8.257-3.747 3.486-17.306 5.916-16.776-2.486.231-3.673 3.307-9.198 6.33-11.352 6.421-4.573 12.79-9.536 17.665-15.84 1.746-2.26 2.892-5.367 5.658-6.572 2.555-1.113 4.744.613 5.31 3.186" fill="#381949" mask="url(#d)"/></g><path d="M30.196.213A5.322 5.322 0 0 0 28.61.159c-3.098.332-5.547 1.292-7.023 4.225-.513 1.02-.329 1.805.037 2.07.368.268 4.163-.404 5.491-1.231 1.79-1.117 1.422.65 1.057 1.858-.205.677-.43 1.634-.66 2.318-.17.504-.086 1.161.14 1.266.275.128 3.35-1.794 4.278-2.302.68.08-.16 4 .685 5.125 1.027 1.364 1.688-.97 2.417-1.916 1.54-2.001.902-4.257-.099-6.434C33.852 2.786 32.535.664 30.196.213" fill="#85B540"/><path fill="#85B540" d="M29.752 1.048L33.362.7l1.656 1.197-.482 2.764z"/><path d="M21.772 11.388c-.72-.237-1.113.96-1.339 1.475-.534 1.223-1.572 2.124-2.404 3.102a23.036 23.036 0 0 1-1.867 1.968c-.47.437-2.41 1.748-2.083 2.641.395 1.076 2.217-.656 2.542-.998 1.055-1.11 2.028-2.348 3.016-3.528.295-.353 2.867-4.42 2.135-4.66" fill="#61337F"/><path d="M30.053 4.967s-4.008 4.806-7.085 5.061l1.941-6.595s5.773-.818 5.144 1.534M30.592 6.662s-1.509 6.482-.539 6.482l3.812-3.116s.605-2.796-3.273-3.366" fill="#85B540"/></g></svg>