<svg width="26" height="16" xmlns="http://www.w3.org/2000/svg" xmlns:xlink="http://www.w3.org/1999/xlink"><defs><path id="a" d="M0 .111h25.918V15.71H0z"/></defs><g fill="none" fill-rule="evenodd"><mask id="b" fill="#fff"><use xlink:href="#a"/></mask><path d="M13.14 15.709C3.25 15.709 0 8.343 0 7.629 0 4.622 4.516.32 10.996.126c8.81-.265 13.368 2.905 14.922 7.501 0 .29-2.366 8.081-12.779 8.081z" fill="#E3CE9B" mask="url(#b)"/><path d="M.075 8.052c.064.445 2.179 2.905 3.03 3.738.85.832 4.797 3.743 9.55 3.125 4.754-.618 8.68-1.277 11.014-6.388 0 0 .699-2.091.066-1.379-.633.713-5.561 4.698-7.348 5.126-1.789.427-5.389.018-7.57-.552-2.18-.571-7.87-3.17-8.393-3.908-.523-.737-.457-.523-.349.238" fill="#CCB889"/><path d="M1 7.948s3.92 4.603 12.764 4.361C20.836 12.116 25 7 25 7s-4.114 5.609-10.383 5.951C3.128 13.578 1 7.948 1 7.948" fill="#B8A171"/><path d="M3.102 3.474c-.35.698.17 3.33 2.03 3.408 1.862.078 3.948-.285 5.181.727 1.234 1.012 2.22.96 3.274 1.972 1.055 1.012 3.32 1.713 4.352 1.297 1.032-.415 2.288-.675 3.073-1.583.784-.907 2.032-3.244 1.987-3.322-.045-.077-1.795-2.44-5.27-3.71C14.251.99 11.49.93 10.57 1.034c-.92.104-4.015.44-4.867.83-.852.39-2.355 1.117-2.602 1.61" fill="#EDDBAE"/><path d="M17.563 2.016c.781.127 3.808.986 4.32 1.891.512.906-.813 1.785-1.04 2.052-.228.266 0-.825-.795-1.331-.797-.506-2.985-2.025-2.985-2.025s-.324-.72.5-.587" fill="#F3E4C0"/></g></svg>