<svg width="39" height="39" xmlns="http://www.w3.org/2000/svg" xmlns:xlink="http://www.w3.org/1999/xlink"><defs><path d="M1.72.494C.199 2.178.148 2.688.074 4.684 0 6.68 2.333 7.647 3.04 8.694c.707 1.045 1.684 1.05 1.684 1.05.668 1.69 2.71 2.379 2.71 2.379 1.093 1.622 2.77 2.43 2.77 2.43.615 2.14 3.039 3.121 3.039 3.121.66 1.647 2.648 1.87 2.842 2.445.195.574 1.188.637 1.188.637.883 1.701 3.355 2.945 3.355 2.945.888 1.403 2.177 1.91 2.177 1.91.527 1.187 2.53 2.22 3.533 2.373 1.004.152.54-.398 2.064 2.153.778 1.305 1.362 1.965 1.515 1.779 0 0-.232-.855-.38-1.063-.305-.425-1.118-2.073-1.879-3.03-.761-.955-1.574-.797-1.9-1.805-.328-1.009-1.98-2.386-1.98-2.386-1.29-2.12-2.54-3.066-2.54-3.066-.024-.669-1.13-1.363-1.13-1.363-.24-1.979-2.266-2.733-2.266-2.733-.476-2.693-3.077-3.712-3.077-3.712-.253-1.887-1.982-2.39-1.982-2.39.15-.718-.962-1.16-.962-1.16-.507-2.09-2.349-2.833-2.349-2.833-1.13-2.424-3.284-3.957-3.284-3.957C6.04 1.083 4.216.081 2.874.081c-.478 0-.896.128-1.153.413z" id="a"/></defs><g fill="none" fill-rule="evenodd"><path d="M10.597 8.236c.985-1.06 4.284.11 4.487 1.879 0 0 2.163 1.496 3.298 3.864 0 0 1.85.725 2.36 2.765 0 0 1.116.433.966 1.133 0 0 1.736.492 1.99 2.334 0 0 2.613.995 3.091 3.624 0 0 2.035.737 2.276 2.67 0 0 1.11.677 1.135 1.33 0 0 1.256.923 2.552 2.994 0 0 1.658 1.345 1.987 2.33.328.985 1.144.83 1.909 1.763.765.934 1.58 2.543 1.886 2.958.13.176.383 1.038.383 1.038-.077.208-.642-.303-1.522-1.737-1.53-2.49-1.064-1.954-2.073-2.103-1.008-.15-3.02-1.157-3.548-2.317 0 0-1.295-.495-2.187-1.865 0 0-2.483-1.214-3.37-2.875 0 0-.997-.061-1.193-.622-.195-.562-2.191-.779-2.855-2.388 0 0-2.434-.957-3.052-3.046 0 0-1.684-.79-2.782-2.374 0 0-2.05-.672-2.722-2.322 0 0-.98-.005-1.69-1.026-.711-1.022-3.055-1.967-2.98-3.916.073-1.948.124-2.446 1.654-4.091" fill="#F0AA1F"/><path d="M10.292 10.176c-.747.837-1.092 1.759-.769 2.057.323.299 1.191-.138 1.939-.976s1.092-1.76.77-2.058c-.324-.299-1.192.139-1.94.977" fill="#E49924"/><path d="M7.906 1.13c.178-.393.387-.764.619-1.112a5.225 5.225 0 0 0-2.33 2.484c-1.2 2.651-.059 5.79 2.546 7.01.244.113.493.207.745.28a7.736 7.736 0 0 1-1.58-8.662" fill="#5A7534"/><path d="M7.512 8.754c.297.17.573.363.83.574A4.173 4.173 0 0 0 6.548 7.28C4.55 6.139 2.021 6.862.9 8.896c-.106.19-.194.386-.268.585a5.916 5.916 0 0 1 6.88-.727" fill="#5A7534"/><path d="M1.05 7.025c-.368.13-.719.29-1.05.472a4.746 4.746 0 0 1 2.431-1.93c2.48-.869 5.18.472 6.034 2.996.08.237.14.475.183.714C6.89 7.03 3.871 6.037 1.05 7.025" fill="#5A7534"/><path d="M1.064 12.463a9.1 9.1 0 0 0-.98 1.137 6.268 6.268 0 0 1 1.819-3.617 6.07 6.07 0 0 1 8.687.17c.221.233.42.48.599.737a8.762 8.762 0 0 0-10.125 1.573" fill="#5A7534"/><path d="M9.604 2.232c.178-.394.386-.764.619-1.111a5.223 5.223 0 0 0-2.33 2.483c-1.2 2.652-.059 5.79 2.546 7.01.244.115.493.208.744.28a7.737 7.737 0 0 1-1.58-8.662" fill="#5A7534"/><g transform="translate(9 7)"><mask id="b" fill="#fff"><use xlink:href="#a"/></mask><path d="M29.788 32.119c-.154-.546.255.074.091-.694-.197-.922-1.695-2.843-1.827-3.056-.133-.214-.94-1.249-.94-1.249l-1.75-.53s-1.047-.065-1.526-.51c-.48-.444-.404-1.369-.404-1.369l-.338-.39s-.19.109-.779 0c-.588-.108-.778-.885-.879-.956-.102-.07-.44-.213-.474-.46-.034-.248.135-.602.135-.602s-.519.082-.913.141c-.394.059-.539-.033-.691-.141-.153-.11-1.102-1.498-1.509-1.665-.406-.168-.473-.497-.473-.78 0-.284.338-.638.338-.638s-.541.46-.71.496c-.17.036.15.142-.052.036-.203-.107-.39-.532-.39-.532v-.602s-1.418.096-1.765-.319c-.159-.188-.387-.354-.953-1.31v-.497s-.851.18-1.313 0c-.463-.178-1.435-1.098-1.707-1.842-.27-.744-.023-1.24-.023-1.24s-.193.053-1.502-.567c-1.308-.62-1.63-1.523-1.595-1.77 0 0-.14.14-1.086-.461-.948-.603-1.558-1.347-1.558-1.807 0 0-.745-.106-1.287-.567-.541-.46.173-1.57-.35-1.452-.948.212-1.48-.377-2.12-.85C.51 5.25.62 4.836.517 4.033c-.092-.718-1.69-1.287-1.69-1.287l.648 3.24 3.993 5.561 26.32 20.57z" fill="#D59529" mask="url(#b)"/></g></g></svg>