<svg width="45" height="29" xmlns="http://www.w3.org/2000/svg"><g fill="none" fill-rule="evenodd"><path d="M41 14.5C41 22.507 35.63 29 25.443 29 15.257 29 7 22.507 7 14.5 7 6.492 15.257 0 25.443 0 35.629 0 41 6.492 41 14.5" fill="#E3EDBF"/><path d="M33.122 3.143C30.94 1.555 27.12.606 23.172 1.158c-3.95.552-5.317 4.499-3.136 6.484 2.18 1.985 10.768 6.22 14.585 3.44 3.817-2.778-1.5-7.94-1.5-7.94" fill="#ECF3D5"/><path d="M34.297 23.108c-2.019 1.647-9.758 3.16-12.912 2.636-3.154-.525-10.671-5.705-12.493-8.067-1.821-2.364-.539 2.107 1.038 3.575 1.577 1.469 5.614 5.926 12.92 6.634 10.375 1.005 13.784-4.953 11.447-4.778" fill="#C7D7A6"/><path d="M40.83 15.167c-.308 1.1-.93 1.918-1.387 1.826-.46-.092-.58-1.059-.273-2.16.308-1.1.93-1.918 1.388-1.826.458.092.58 1.059.272 2.16" fill="#BFCD9B"/><path d="M39.78 13.068a.478.478 0 0 1 .102-.047c.42-.136 1.092.423 1.45.619a6.97 6.97 0 0 1 1.104.744c.39.319.788.723 1.152 1.215.364.492.69 1.076.935 1.734.491 1.314.643 2.928.267 4.556a8.298 8.298 0 0 1-.955 2.395 8.134 8.134 0 0 1-.785 1.101 7.889 7.889 0 0 1-.988.97 7.475 7.475 0 0 1-1.483.955 5.816 5.816 0 0 1-.323.15l-.082.037-.07.03-.144.06c-.02.01-.054.021-.086.034l-.097.035c-.063.023-.13.05-.19.068a5.56 5.56 0 0 1-1.507.27 6.088 6.088 0 0 1-1.518-.134c-.983-.215-1.88-.625-2.707-1.103-.829-.479-1.597-1.028-2.344-1.593-.745-.565-1.468-1.15-2.194-1.715-.724-.564-1.452-1.113-2.202-1.582a10.321 10.321 0 0 0-1.14-.625 6.213 6.213 0 0 0-.582-.238c-.097-.035-.194-.064-.292-.094l-.17-.049-.135-.035c-.776-.188-1.633-.161-2.48-.028-.847.136-1.692.375-2.519.654-.826.281-1.637.604-2.431.938-1.59.67-3.114 1.382-4.586 2.011-1.47.63-2.89 1.184-4.246 1.563-1.353.382-2.65.58-3.807.515a6.572 6.572 0 0 1-1.595-.278 5.507 5.507 0 0 1-1.258-.57 5.997 5.997 0 0 1-1.458-1.267A8.323 8.323 0 0 1 0 23.82l.153-.118.105.134c.07.088.176.216.321.375.293.316.75.766 1.443 1.15.688.389 1.624.671 2.719.676 1.095.014 2.329-.23 3.626-.659 1.299-.427 2.667-1.03 4.095-1.72 1.43-.688 2.92-1.466 4.503-2.22a38.3 38.3 0 0 1 2.459-1.075c.85-.33 1.737-.627 2.678-.821.936-.19 1.941-.283 2.97-.087l.202.043.163.04a7.626 7.626 0 0 1 1.085.355c.466.19.905.413 1.33.653.85.48 1.637 1.024 2.401 1.567.765.543 1.506 1.091 2.246 1.602.74.51 1.477.987 2.22 1.371.74.388 1.488.676 2.205.797.717.12 1.391.06 2.004-.174.04-.013.068-.028.102-.041l.05-.02a.688.688 0 0 0 .058-.026l.14-.066.072-.034.059-.03c.08-.038.158-.077.233-.12a5.484 5.484 0 0 0 1.047-.734c1.01-.891 1.609-2.104 1.824-3.261.11-.58.127-1.149.07-1.673a5.143 5.143 0 0 0-.357-1.42 4.29 4.29 0 0 0-1.374-1.79 4.643 4.643 0 0 0-1.298-.682c-.085-.032-.145-.046-.202-.064-.014-.005-.027-.01-.04-.013l-.045-.013c-.431-.114-.01-.977.08-1.315.102-.38.045-1.105.432-1.34" fill="#8AAE5B"/><path d="M29.928 22.395c-.306-.665-.407-.862-.674-.812-.268.05-.275.784.074 1.355.348.572-.044 2.001-.673 2.06-.63.057-1.285-.772-1.279-1.096.007-.323-.443-.751-.833-.68-.39.071-.497-.28-.602-.553-.104-.273-.59.227-.876-.316-.286-.544.468-1.094.457-1.533-.011-.44-.247-1.054.253-1.246.501-.191-.033-.77.422-.944.455-.174 1.033-.16.888-.47-.144-.31.117-.515-.277-.73-.395-.214-.438-.668.483-.916.922-.248.916.146 1.107-.241.192-.387.286-.344.448.011.161.356.29.62.757.415.47-.206 1.096-.133 1.143.398.046.53.047.738.69.649.644-.09 2.09.009 2.133.67.044.662-.871.856-.376 1.267.496.41.58.77.462 1.076-.117.306.432 1.061.333 1.621-.098.56.296.774-.759 1.152-1.054.378-.716.512-1.25.48-.533-.032-1.243.292-1.27-.324-.027-.616-.671-.734-.78-1.293M19.144 23.202c-.44.608-.566.798-.412 1.033.154.235.783-.103 1.125-.708.342-.604 1.724-.897 2.035-.316.312.58-.124 1.602-.402 1.748-.279.145-.457.78-.234 1.123.223.344-.032.612-.22.841-.19.23.438.465.094.995-.345.53-1.127.06-1.497.278-.37.217-.797.732-1.168.34-.371-.394-.643.393-.98.036-.338-.358-.567-.923-.771-.638-.205.285-.487.13-.505.611-.02.481-.389.735-.983-.037-.595-.774-.257-.953-.666-.956-.409-.003-.412-.114-.177-.437.237-.323.41-.57.039-.927-.37-.356-.569-.995-.135-1.289.432-.293.61-.393.266-.972-.345-.578-.86-2.02-.315-2.374.546-.352 1.093.441 1.237-.23.143-.671.414-.922.725-.952.31-.03.725-.914 1.244-1.082.518-.167.537-.648 1.298.193.76.84.734.45.929.981.194.53.765 1.063.251 1.38-.514.314-.347.992-.778 1.359" fill="#B6C06B"/><path d="M28.988 23l-.004-.17a11.092 11.092 0 0 0-.092-1.11 9.609 9.609 0 0 0-.122-.741c-.023-.126-.055-.25-.085-.373-.027-.124-.068-.241-.1-.358-.034-.116-.08-.224-.115-.33-.04-.104-.087-.198-.125-.288-.039-.09-.089-.165-.126-.236a1.2 1.2 0 0 0-.112-.176l-.107-.15.095-.068.144.137c.047.044.103.097.156.164.054.067.125.14.185.226s.13.178.194.28c.06.101.132.208.192.321.06.114.13.231.184.353.059.122.12.246.171.371.112.25.206.504.292.743A13.283 13.283 0 0 1 30 22.912L28.988 23zM23 20.47l-.037.05-.109.138a16.502 16.502 0 0 1-.969 1.114c-.106.115-.222.23-.337.347-.116.117-.24.23-.359.347-.124.112-.247.224-.37.332-.127.104-.248.211-.371.306-.125.094-.24.19-.358.27-.118.08-.226.159-.33.226l-.288.175c-.085.053-.166.088-.229.122l-.2.103-.043-.09.182-.127c.057-.042.13-.086.206-.15l.256-.208c.093-.078.188-.17.291-.262.103-.093.204-.203.312-.309.107-.107.21-.228.32-.344.105-.12.21-.246.315-.37.101-.128.205-.253.302-.381.097-.129.194-.253.282-.38a17.187 17.187 0 0 0 .79-1.19l.082-.138.029-.051.633.47z" fill="#8AAE5B"/></g></svg>