<svg width="24" height="39" xmlns="http://www.w3.org/2000/svg" xmlns:xlink="http://www.w3.org/1999/xlink"><defs><path id="a" d="M0 0h22v32H0z"/><path id="c" d="M0 .065h18.906V14.69H0z"/></defs><g fill="none" fill-rule="evenodd"><g transform="translate(2 7)"><mask id="b" fill="#fff"><use xlink:href="#a"/></mask><path d="M21.835 24.096c.888 3.133-1.895 6.503-6.208 7.556-4.313 1.052-8.435-.305-9.41-3.744L.08 6.26C-.533 4.1 2.466 1.493 6.78.44c4.311-1.052 8.305-.154 8.918 2.01l6.138 21.646" fill="#93BA42" mask="url(#b)"/></g><g transform="translate(0 4)"><mask id="d" fill="#fff"><use xlink:href="#c"/></mask><path d="M16.575 3.599c-.093.024-.175.057-.258.09C14.527.896 10.849-.573 7.269.33c-3.572.903-5.898 3.875-5.87 7.102-.017.004-.034.005-.05.009C.37 7.688-.204 8.613.067 9.506c.265.872 1.236 1.385 2.191 1.182 1.69 3.041 5.544 4.681 9.284 3.736 3.744-.945 6.128-4.162 5.858-7.566.05-.009.103-.01.156-.024.98-.247 1.554-1.172 1.282-2.067-.271-.892-1.283-1.415-2.263-1.168" fill="#F2C981" mask="url(#d)"/></g><path d="M6.005 5c.681-.196 1.377-.871.75-1.582-.28-.315-1.443-.272-1.066.288.469.703 1.316-.136 1.301-.727C6.964 1.8 5.75 1.554 5 1" stroke="#615424" stroke-width="1.655" stroke-linecap="round" stroke-linejoin="round"/><path d="M12.905 8.259c.235.816.02 1.588-.48 1.721s-1.094-.424-1.33-1.24c-.234-.818-.021-1.59.478-1.72.5-.134 1.097.423 1.332 1.239M7.905 9.261c.235.815.02 1.587-.48 1.72-.5.132-1.095-.424-1.33-1.24-.234-.817-.02-1.588.48-1.722.5-.132 1.094.424 1.33 1.242M10.12 14.827c-2.715.616-5.455-.463-6.109-2.407-.045-.13.049-.269.21-.303.158-.037.327.04.37.172.565 1.682 2.975 2.605 5.368 2.06 2.396-.545 3.884-2.354 3.32-4.036-.046-.132.05-.268.208-.304.16-.036.327.04.371.172.655 1.945-1.023 4.028-3.738 4.646" fill="#615424"/><path d="M20 20c-1.32-.095-10.479-.802-12-2.293.572-.09 2.426-.41 4.371-1.05 2.904-.955 4.779-2.214 5.456-3.657L20 20z" fill="#93BA42"/><path d="M23 31c-1.65-.185-15.397-1.855-17.791-6.108L3 17c1.378.612 9.003 3.868 15.209 3.868.675 0 1.32-.038 1.919-.114L23 31z" fill="#73962C"/></g></svg>