<svg width="34" height="42" xmlns="http://www.w3.org/2000/svg" xmlns:xlink="http://www.w3.org/1999/xlink"><defs><path id="a" d="M.065.074H33.95v41.837H.065z"/><path id="c" d="M.073.074h4.904v3.827H.073z"/><path d="M19.54 1.016c4.086 4.936 5.798 11.663 4.01 18.29-2.68 9.934-12.295 16.222-22.352 15.158-.913-.097-1.518.654-.848 1.165a20.896 20.896 0 0 0 7.38 3.588c11.13 2.917 22.554-3.613 25.514-14.585 2.79-10.344-2.94-20.943-12.931-24.568a.764.764 0 0 0-.261-.046c-.507 0-.916.512-.513.998" id="e"/></defs><g fill="none" fill-rule="evenodd"><mask id="b" fill="#fff"><use xlink:href="#a"/></mask><path d="M22.357 2.21l.011-.012-.168-.135c-.123-.1-.29-.226-.484-.36-.193-.141-.435-.279-.683-.438-.13-.071-.264-.146-.401-.22-.138-.072-.27-.155-.42-.215-.295-.122-.568-.272-.86-.359-.289-.09-.542-.193-.783-.24L17.78.074l-.317 1.454.578.244c.17.068.36.202.565.312.208.104.409.28.618.42.105.068.2.16.298.238l.283.24c.172.17.342.316.467.458.136.141.235.251.291.324l.114.137.021-.022c3.231 4.832 4.458 10.977 2.852 17.043-2.68 10.118-12.296 16.523-22.353 15.44-.914-.1-1.518.666-.847 1.186a20.74 20.74 0 0 0 7.378 3.654c11.132 2.972 22.555-3.68 25.515-14.855 2.594-9.794-2.177-19.809-10.887-24.137" fill="#F7E613" mask="url(#b)"/><path d="M19.54 2.294c4.086 5.026 5.798 11.879 4.01 18.628-2.68 10.118-12.295 16.523-22.352 15.44-.914-.1-1.518.666-.847 1.186a20.743 20.743 0 0 0 7.378 3.654c11.131 2.972 22.555-3.68 25.515-14.855 2.79-10.536-2.94-21.332-12.931-25.023-.607-.224-1.245.39-.774.97" fill="#F7E613"/><g transform="translate(17.392)"><mask id="d" fill="#fff"><use xlink:href="#c"/></mask><path d="M3.286 3.9l-.113-.136a4.327 4.327 0 0 0-.292-.324c-.125-.142-.295-.288-.467-.458a97.57 97.57 0 0 1-.282-.24c-.098-.077-.194-.17-.299-.238-.209-.14-.41-.316-.618-.42-.205-.11-.394-.244-.565-.312l-.577-.244L.389.074l.788.157c.24.047.494.15.783.24.293.087.565.237.86.359.15.06.282.143.42.215l.402.22c.248.16.49.297.682.439.194.133.362.258.484.359l.169.135-1.69 1.703z" fill="#8C745A" mask="url(#d)"/></g><g transform="translate(0 2)"><mask id="f" fill="#fff"><use xlink:href="#e"/></mask><path d="M22.368.716l-.572.774s8.366 7.88 9.021 13.634c.655 5.755-2.825 17.551-8.449 21.01-5.623 3.459-18.082.726-19.638 0-1.555-.727-3.357-.807-3.357-.807s7.289 5.891 8.107 6.053c.819.162 18.179-1.644 18.916-1.468.736.176 11.218-4.586 11.955-6.846.737-2.26-2.047-26.877-2.211-27.967C35.976 4.01 22.368.716 22.368.716" fill="#D7C427" mask="url(#f)"/></g></g></svg>