<svg width="23" height="26" xmlns="http://www.w3.org/2000/svg" xmlns:xlink="http://www.w3.org/1999/xlink"><defs><path id="a" d="M.025.096h22.912v25.85H.025z"/><path d="M11.495.096C8.465.096.025 5.86.025 13.1c0 5.233 1.736 12.846 14.337 12.846 9.447 0 9.658-11.244 7.36-18.382C20.503 3.772 14.7.096 11.496.096z" id="c"/></defs><g fill="none" fill-rule="evenodd"><mask id="b" fill="#fff"><use xlink:href="#a"/></mask><path d="M11.495.096C8.465.096.025 5.86.025 13.1c0 5.233 1.736 12.846 14.337 12.846 9.447 0 9.658-11.244 7.36-18.382C20.503 3.772 14.7.096 11.496.096" fill="#AEC071" mask="url(#b)"/><g><mask id="d" fill="#fff"><use xlink:href="#c"/></mask><path d="M21.515 8.852s-1.679 9.718-7.647 12.2C7.901 23.532 1.51 17.662.808 10.411l-3.252 3.049 11.98 22.23 13.193-13.42 1.845-10.39-2.47-5.944-.589 2.915z" fill="#99A75D" mask="url(#d)"/></g></g></svg>