<svg width="45" height="37" xmlns="http://www.w3.org/2000/svg" xmlns:xlink="http://www.w3.org/1999/xlink"><defs><path id="a" d="M0 .055h44.938v36.272H0z"/></defs><g fill="none" fill-rule="evenodd"><mask id="b" fill="#fff"><use xlink:href="#a"/></mask><path d="M.138 13.117c.395-.402 1.275-.714 1.89-1.559.616-.846 3.254-7.969 9.76-10.062 6.507-2.092 13.41-1.647 17.059-.312 3.648 1.337 10.155 5.299 11.474 7.524 1.32 2.226 3.341 6.278 4.133 6.9.792.624.395 1.871.307 2.405-.088.534.088.4.088 1.157s-.395 1.514-.527 2.226c-.133.712.22.891-.572 1.781-.792.89-4.791 6.723-7.781 9.438-2.99 2.717-15.036 4.987-20.884 2.894-5.847-2.093-11.43-6.01-13.057-12.955 0 0-.44-1.87-.22-3.518.22-1.647.397-2.447-.263-2.804-.66-.356-1.364-.98-1.451-1.736-.088-.757-.176-1.158.044-1.38" fill="#FCEB14" mask="url(#b)"/><path d="M9.73 5.942c-1.768.98-2.969 4.228-2.69 5.984.278 1.755 2.87 2.9 5.281 3.06 2.412.16 8.224-.985 9.522-4.256 1.298-3.27 1.517-1.916.59-3.99-.927-2.074-5.935-4.547-12.704-.798" fill="#F9EF73"/><path d="M31.173 27.87C42.663 23.058 41.717 15 41.717 15s.444.66.22 3.809c-.13 1.808-1.143 5.199-1.863 6.285-.72 1.089-2.972 5.438-6.845 7.34-3.582 1.76-13.507 3.987-19.18 1.36C7.987 30.985 8 30.033 8 30.033s11.633 2.669 23.173-2.164" fill="#E1D11E"/><path d="M15.986 4.676c.129.523-.658 1.09-1.755 1.27-1.097.179-2.09-.1-2.217-.622-.129-.523.658-1.092 1.754-1.27 1.099-.179 2.091.1 2.218.622" fill="#FEFEFE"/><path d="M9.993 14.383a.543.543 0 0 1-.411.603.462.462 0 0 1-.575-.37.54.54 0 0 1 .411-.602c.273-.065.53.1.575.369M6.993 13.383a.542.542 0 0 1-.41.603.461.461 0 0 1-.576-.37.54.54 0 0 1 .411-.602c.273-.064.53.1.575.37M11.993 15.383a.54.54 0 0 1-.411.603.461.461 0 0 1-.575-.37.54.54 0 0 1 .41-.602c.274-.064.532.1.576.37" fill="#FDF39E"/><path d="M11.993 14.383a.54.54 0 0 1-.411.603.462.462 0 0 1-.575-.37.541.541 0 0 1 .411-.602.462.462 0 0 1 .575.37M13.993 15.383a.54.54 0 0 1-.411.603.462.462 0 0 1-.575-.37.543.543 0 0 1 .41-.602.463.463 0 0 1 .576.37M15.993 16.383a.543.543 0 0 1-.412.603.462.462 0 0 1-.574-.369.54.54 0 0 1 .411-.603c.273-.064.53.1.575.37M15.993 14.383a.543.543 0 0 1-.412.603.461.461 0 0 1-.574-.37.54.54 0 0 1 .41-.602c.273-.064.53.1.576.369" fill="#FDF39E"/><path d="M14.993 14.383a.54.54 0 0 1-.411.603.461.461 0 0 1-.575-.369.542.542 0 0 1 .41-.603.462.462 0 0 1 .576.37M11.993 17.384a.542.542 0 0 1-.411.602.46.46 0 0 1-.575-.369.54.54 0 0 1 .41-.603c.274-.064.53.1.576.37M17.993 16.384a.541.541 0 0 1-.411.602.461.461 0 0 1-.575-.37.54.54 0 0 1 .41-.602c.273-.064.53.1.576.37M17.993 14.383a.541.541 0 0 1-.411.603.463.463 0 0 1-.575-.37.542.542 0 0 1 .41-.602.463.463 0 0 1 .576.37" fill="#FDF39E"/><path d="M18.993 14.383a.541.541 0 0 1-.411.603.46.46 0 0 1-.575-.369.54.54 0 0 1 .411-.603.463.463 0 0 1 .575.37" fill="#FDF39E"/><path d="M19.993 14.383a.543.543 0 0 1-.411.603.461.461 0 0 1-.575-.37.54.54 0 0 1 .411-.602c.273-.064.53.1.575.37M19.993 16.383a.541.541 0 0 1-.41.603.463.463 0 0 1-.576-.37.542.542 0 0 1 .411-.602.463.463 0 0 1 .575.37" fill="#FDF39E"/><path d="M29.993 28.383a.541.541 0 0 1-.412.603.46.46 0 0 1-.574-.37.54.54 0 0 1 .411-.602c.273-.064.53.1.575.37M30.993 27.383a.541.541 0 0 1-.412.603.46.46 0 0 1-.574-.369.541.541 0 0 1 .411-.603.463.463 0 0 1 .575.37M32.993 26.383a.54.54 0 0 1-.411.603.462.462 0 0 1-.575-.369.542.542 0 0 1 .411-.603.462.462 0 0 1 .575.37" fill="#E1D11E"/><path d="M33.993 26.383a.542.542 0 0 1-.411.603.462.462 0 0 1-.575-.37.541.541 0 0 1 .411-.602.462.462 0 0 1 .575.369" fill="#E1D11E"/><path d="M34.993 26.384a.54.54 0 0 1-.411.602.461.461 0 0 1-.575-.37.542.542 0 0 1 .411-.602.462.462 0 0 1 .575.37M36.993 24.383a.542.542 0 0 1-.411.603.463.463 0 0 1-.575-.37.542.542 0 0 1 .411-.602.463.463 0 0 1 .575.37M38.993 22.383a.542.542 0 0 1-.411.603.463.463 0 0 1-.575-.37.542.542 0 0 1 .412-.602.462.462 0 0 1 .574.37" fill="#E1D11E"/><path d="M38.993 22.382a.542.542 0 0 1-.412.604.462.462 0 0 1-.574-.37.541.541 0 0 1 .411-.602c.272-.065.53.1.575.368M39.993 21.383a.542.542 0 0 1-.412.603.462.462 0 0 1-.574-.37.54.54 0 0 1 .41-.602.462.462 0 0 1 .576.369M40.993 20.384a.542.542 0 0 1-.412.602.46.46 0 0 1-.574-.37.54.54 0 0 1 .411-.602c.272-.064.53.1.575.37M41.993 18.383a.542.542 0 0 1-.412.603.461.461 0 0 1-.574-.37.541.541 0 0 1 .41-.602.463.463 0 0 1 .576.37" fill="#E1D11E"/><path d="M39.993 20.383a.542.542 0 0 1-.411.603.463.463 0 0 1-.575-.37.542.542 0 0 1 .411-.602.463.463 0 0 1 .575.369M38.993 21.383a.541.541 0 0 1-.411.603.463.463 0 0 1-.575-.37.541.541 0 0 1 .411-.602.462.462 0 0 1 .575.37M36.993 22.383a.543.543 0 0 1-.412.603.462.462 0 0 1-.574-.37.54.54 0 0 1 .411-.602.462.462 0 0 1 .575.369" fill="#E1D11E"/><path d="M35.993 22.383a.542.542 0 0 1-.412.603.462.462 0 0 1-.574-.37.54.54 0 0 1 .411-.602.463.463 0 0 1 .575.37M34.993 23.383a.542.542 0 0 1-.412.603.462.462 0 0 1-.574-.37.54.54 0 0 1 .41-.602.463.463 0 0 1 .576.37M33.993 24.383a.54.54 0 0 1-.41.603.461.461 0 0 1-.576-.369.541.541 0 0 1 .411-.603.462.462 0 0 1 .575.37M32.993 26.383a.541.541 0 0 1-.412.603.462.462 0 0 1-.574-.37.54.54 0 0 1 .411-.602.463.463 0 0 1 .575.369M29.993 26.383a.541.541 0 0 1-.411.603.462.462 0 0 1-.575-.37.541.541 0 0 1 .41-.602.463.463 0 0 1 .576.37M27.993 26.383a.542.542 0 0 1-.412.603.462.462 0 0 1-.574-.37.54.54 0 0 1 .41-.602c.274-.065.53.1.576.369M27.993 28.383a.54.54 0 0 1-.412.603.46.46 0 0 1-.574-.37.54.54 0 0 1 .41-.602c.274-.064.53.1.576.37M26.993 27.383a.542.542 0 0 1-.411.603.462.462 0 0 1-.575-.37.54.54 0 0 1 .41-.602.463.463 0 0 1 .576.37M24.993 28.383a.54.54 0 0 1-.411.603.461.461 0 0 1-.575-.37.54.54 0 0 1 .411-.602c.273-.064.53.1.575.37M22.993 28.383a.54.54 0 0 1-.411.603.461.461 0 0 1-.575-.37.541.541 0 0 1 .41-.602c.274-.064.531.1.576.37" fill="#E1D11E"/><path d="M21.993 14.383a.54.54 0 0 1-.411.603.462.462 0 0 1-.575-.37.543.543 0 0 1 .411-.602.462.462 0 0 1 .575.37" fill="#FDF39E"/><path d="M20.993 14.383a.542.542 0 0 1-.412.603.462.462 0 0 1-.574-.37.54.54 0 0 1 .411-.602.463.463 0 0 1 .575.37M20.993 12.383a.543.543 0 0 1-.411.603.462.462 0 0 1-.575-.37.542.542 0 0 1 .411-.602.462.462 0 0 1 .575.37M22.993 13.384a.541.541 0 0 1-.412.602.46.46 0 0 1-.574-.37.54.54 0 0 1 .41-.602c.273-.064.53.1.576.37M22.993 10.383a.542.542 0 0 1-.412.603.462.462 0 0 1-.574-.37.542.542 0 0 1 .411-.602.463.463 0 0 1 .575.37M24.993 10.383a.541.541 0 0 1-.41.603.461.461 0 0 1-.576-.37.54.54 0 0 1 .411-.602.463.463 0 0 1 .575.37" fill="#FDF39E"/><path d="M24.993 11.384a.54.54 0 0 1-.411.602.461.461 0 0 1-.575-.369.54.54 0 0 1 .41-.603.462.462 0 0 1 .576.37M24.993 13.383a.54.54 0 0 1-.411.603.46.46 0 0 1-.575-.37.54.54 0 0 1 .411-.602.463.463 0 0 1 .575.37M25.993 10.384a.542.542 0 0 1-.411.602.463.463 0 0 1-.575-.37.542.542 0 0 1 .411-.602.463.463 0 0 1 .575.37M24.993 7.383a.542.542 0 0 1-.411.603.46.46 0 0 1-.575-.37.54.54 0 0 1 .411-.602c.273-.064.53.1.575.37" fill="#FDF39E"/><path d="M24.993 6.383a.541.541 0 0 1-.412.603.462.462 0 0 1-.574-.37.541.541 0 0 1 .411-.602.462.462 0 0 1 .575.37" fill="#FDF39E"/></g></svg>