<svg width="35" height="37" xmlns="http://www.w3.org/2000/svg" xmlns:xlink="http://www.w3.org/1999/xlink"><defs><path id="a" d="M.088.101h34.855v36.847H.088z"/><path d="M17.516.101C7.891.101.088 8.35.088 18.525c0 10.175 7.803 18.423 17.428 18.423S34.943 28.7 34.943 18.525" id="c"/></defs><g fill="none" fill-rule="evenodd"><mask id="b" fill="#fff"><use xlink:href="#a"/></mask><path d="M34.943 18.525c0 10.175-7.802 18.423-17.427 18.423S.088 28.7.088 18.525C.088 8.35 7.891.1 17.516.1S34.943 8.35 34.943 18.525" fill="#DDC889" mask="url(#b)"/><path d="M19.654 1.83c0 .365-.884.66-1.974.66-1.09 0-1.974-.295-1.974-.66 0-.363.884-.657 1.974-.657 1.09 0 1.974.294 1.974.658" fill="#707A33"/><path d="M19.442 1.83c0 .326-.789.589-1.762.589s-1.762-.263-1.762-.588c0-.325.789-.588 1.762-.588s1.762.263 1.762.588" fill="#818939"/><g><mask id="d" fill="#fff"><use xlink:href="#c"/></mask><path d="M35.138 18.896c-.003-.001-.006-.003-.01-.003-.578-.18-1.393.666-1.817.966-.706.502-1.427.929-2.211 1.279-3.002 1.34-6.027 2.178-9.308 1.687-4.955-.742-8.52-3.577-12.188-6.953-2.245-2.066-4.34-3.753-7.249-4.602-.27-.079-1.165-.456-1.433-.25-.534.415-.614 3.396-.73 4.11-.264 1.619-.59 3.223-.89 4.834-.58 3.128-1.153 6.26-1.68 9.398-.068.405-.498 1.659-.301 2.066.14.292 5.812 6.996 8.069 7.848 2.257.853 6.316 5.065 9.688 4.33 3.372-.734 4.155-.842 8.692-2.752 4.538-1.909 9.684-5.263 11.207-7.093 1.524-1.828 2.614-2.822 2.321-5.592-.18-1.699-.507-3.377-.895-5.037-.216-.924-.252-3.904-1.265-4.236" fill="#C6AF7B" mask="url(#d)"/></g><g fill="#C6AF7B"><path d="M13.32 18.68c0 .297-.15.468-.512.468-.283 0-.512-.144-.512-.54 0-.299.235-.477.512-.54.388-.09.513.313.513.611M21.719 24.103c0 .298-.149.469-.513.469-.282 0-.512-.144-.512-.54 0-.298.236-.476.512-.54.39-.09.513.313.513.611M32.993 22.827c0 .298-.149.469-.512.469-.283 0-.512-.144-.512-.54 0-.299.235-.476.512-.54.389-.09.512.312.512.611M17.113 28.76c.253.134.331.35.17.693-.127.267-.352.42-.688.243-.254-.133-.299-.435-.23-.724.097-.407.494-.344.748-.211M8.638 18.95c.253.133.332.35.17.692-.127.268-.351.42-.688.243-.253-.132-.298-.435-.23-.724.097-.406.495-.344.748-.21M3.19 11.054c.253.133.331.35.17.693-.127.267-.351.419-.687.242-.254-.133-.3-.435-.231-.724.097-.407.494-.344.748-.21M19.61 8.023c.253.133.331.35.169.693-.126.267-.35.419-.687.243-.253-.134-.3-.436-.23-.725.097-.406.494-.344.747-.21M20.518 1.164c.253.133.33.35.17.692-.127.268-.351.42-.688.243-.253-.133-.3-.435-.23-.724.096-.407.494-.344.748-.211M8.401 26.097c0 .298-.148.469-.512.469-.283 0-.512-.144-.512-.54 0-.299.236-.476.512-.54.388-.09.512.313.512.611M12.488 34.073c0 .299-.149.469-.513.469-.283 0-.512-.144-.512-.54 0-.298.236-.476.512-.54.389-.09.513.313.513.611M7.342 25.54c0 .297-.148.468-.512.468-.283 0-.513-.144-.513-.54 0-.299.237-.477.513-.541.388-.09.512.314.512.612M7.685 15.142c0 .19-.094.298-.325.298-.18 0-.326-.092-.326-.344 0-.19.15-.302.326-.343.246-.057.325.199.325.389M15.934 19.768c0 .19-.095.297-.327.297-.18 0-.325-.09-.325-.343 0-.19.15-.302.325-.343.247-.057.327.2.327.389"/><path d="M12.604 33.726c0 .19-.095.298-.326.298-.18 0-.326-.092-.326-.344 0-.19.15-.303.326-.343.247-.058.326.2.326.389M24.105 13.945c0 .19-.095.298-.326.298-.18 0-.325-.091-.325-.343 0-.19.15-.303.325-.343.247-.058.326.199.326.388M14.647 3.178c0 .19-.095.297-.326.297-.18 0-.326-.09-.326-.343 0-.19.15-.303.326-.343.246-.057.326.199.326.389M28.57 8.522c0 .189-.095.297-.326.297-.18 0-.326-.09-.326-.343 0-.19.15-.303.326-.343.246-.057.325.2.325.389M30.688 18.332c0 .19-.095.298-.326.298-.18 0-.326-.091-.326-.343 0-.19.15-.303.326-.344.247-.057.326.2.326.389M31.369 23.118c0 .189-.094.298-.326.298-.18 0-.325-.092-.325-.343 0-.19.15-.303.325-.344.247-.058.326.199.326.389M24.408 32.21c0 .19-.095.299-.326.299-.18 0-.326-.092-.326-.344 0-.19.15-.302.326-.344.246-.057.326.2.326.39M2.767 16.976c0 .19-.095.298-.325.298-.18 0-.326-.091-.326-.343 0-.19.15-.303.326-.343.246-.058.325.198.325.388M24.408 4.454c0 .19-.095.298-.326.298-.18 0-.326-.092-.326-.343 0-.19.15-.304.326-.344.246-.057.326.199.326.389M20.549 34.603c0 .19-.095.298-.326.298-.18 0-.326-.091-.326-.343 0-.19.15-.303.326-.344.247-.057.326.2.326.389M29.553 13.786c0 .19-.095.298-.326.298-.18 0-.325-.092-.325-.344 0-.19.15-.302.325-.343.247-.057.326.199.326.389M9.123 8.681c0 .19-.095.298-.326.298-.18 0-.325-.091-.325-.343 0-.19.15-.303.325-.344.247-.057.326.2.326.39M13.323 14.707c-.072-.174-.028-.313.184-.411.165-.077.333-.055.43.176.072.173-.022.34-.167.452-.204.157-.375-.044-.447-.217M22.176 18.694c-.073-.173-.027-.312.184-.41.165-.077.333-.055.43.176.072.173-.022.34-.167.452-.204.157-.375-.044-.447-.218M13.02 26.112c-.072-.173-.027-.313.185-.41.164-.077.333-.055.43.175.072.174-.023.341-.168.453-.204.157-.374-.044-.447-.218M26.943 29.622c-.073-.174-.028-.313.184-.412.165-.076.333-.054.43.176.072.174-.022.341-.168.453-.204.157-.374-.044-.446-.217"/></g></g></svg>