<svg width="37" height="33" xmlns="http://www.w3.org/2000/svg" xmlns:xlink="http://www.w3.org/1999/xlink"><defs><path d="M12.034.746c-1.996 1.618-.819 2.41-2.097 2.32-1.279-.089-1.315-.857-2.397.067-1.081.924-.876.455-2.785 2.323-1.908 1.869-1.752.375-2.996 2.933S.115 11.272.049 12.342c0 0-.059 1.666 1.548 2.506l.139.143c1.127-.779 3.595-.848 4.858-.61 1.263.24 1.128.974 1.571.071.444-.903 1.348-.111 3.833-2.21 2.486-2.097.571-2.233 3.003-2.535.728-.09 1.4-.008 1.977.076 1.352.195 2.179.39 1.957-1.648-.316-2.908.258-4.61-2.593-5.908-2.046-.932-2.347-2.121-3.091-2.121-.293 0-.654.184-1.217.64z" id="a"/><path id="c" d="M.037.082H15.94v14.08H.037z"/></defs><g fill="none" fill-rule="evenodd"><path d="M18.736 16.991c1.127-.779 3.595-.848 4.858-.61 1.263.24 1.128.975 1.571.071.444-.903 1.348-.111 3.833-2.21 2.486-2.097.571-2.233 3.003-2.535 2.432-.303 4.25 1.336 3.934-1.572-.316-2.908.258-4.61-2.593-5.908s-2.314-3.098-4.308-1.48c-1.996 1.617-.819 2.409-2.097 2.32-1.279-.09-1.315-.858-2.397.066-1.081.924-.876.455-2.785 2.323-1.908 1.869-1.752.375-2.996 2.933s-1.644 2.883-1.71 3.954c0 0-.059 1.665 1.548 2.505" fill="#43602D"/><path d="M21.513 13.614l.002.007.006.017.03.078a4.887 4.887 0 0 0 .338.682 4.718 4.718 0 0 0 .284.428c.026.034.052.069.08.102l.084.098c.057.065.116.124.175.18l.09.08.09.071.088.063.086.053c.028.016.056.03.083.044.026.015.052.024.077.035l.035.016.034.012.06.02c.038.012.068.018.088.024l.031.008-.006.104-.034.002c-.023 0-.056.003-.099.003-.021-.001-.045-.003-.07-.003l-.041-.003-.043-.005c-.03-.004-.062-.007-.095-.013l-.104-.022-.113-.03-.118-.04-.122-.05c-.04-.019-.083-.037-.125-.058a3.135 3.135 0 0 1-.375-.222 4.143 4.143 0 0 1-.354-.27 5.718 5.718 0 0 1-.57-.554 5.421 5.421 0 0 1-.301-.361l-.025-.034.834-.462zM19.196 13.877l.005-.061.017-.167a13.94 13.94 0 0 1 .358-1.98c.01-.039.02-.078.032-.117.02-.078.044-.156.067-.234.022-.078.049-.155.073-.232.025-.077.053-.154.08-.229.028-.075.055-.15.085-.223l.045-.108.046-.106c.033-.07.062-.138.097-.203a3.232 3.232 0 0 1 .152-.282c.017-.029.036-.057.054-.085l.052-.082.054-.077.053-.073c.017-.024.036-.046.054-.067l.052-.063.025-.03.026-.028.096-.1.09-.079.037-.033.036-.027.057-.041.047-.034.052.07-.04.039-.047.046c-.01.009-.02.018-.03.03-.01.01-.02.022-.03.035l-.073.084-.076.107-.02.029c-.008.01-.014.02-.02.03l-.04.066c-.013.023-.029.045-.04.07-.014.024-.026.05-.04.075-.013.025-.028.05-.04.078l-.038.083c-.013.028-.027.057-.039.086-.011.03-.023.061-.036.091-.025.061-.046.126-.069.192-.023.065-.042.134-.063.203a1.69 1.69 0 0 0-.03.105 8.565 8.565 0 0 1-.027.108c-.018.072-.034.146-.051.22l-.044.226c-.013.076-.028.152-.038.229-.012.076-.023.153-.032.23l-.015.114-.012.115a12.294 12.294 0 0 0-.069 1.242 13.01 13.01 0 0 0 .013.714l.003.053-.799-.009zM22.443 12.307l-.007-.02a3.399 3.399 0 0 0-.015-.05c-.011-.042-.028-.103-.047-.18a7.056 7.056 0 0 1-.204-1.553 5.195 5.195 0 0 1 .082-1.049 3.85 3.85 0 0 1 .133-.52 3.046 3.046 0 0 1 .453-.89 2.889 2.889 0 0 1 .551-.56l.12-.087c.04-.025.074-.05.106-.068l.087-.052.065-.036.054-.03.045.076-.049.035-.058.043-.076.06c-.028.023-.058.05-.091.08a2.841 2.841 0 0 0-.326.349 2.59 2.59 0 0 0-.396.727c-.051.143-.092.294-.121.45-.03.156-.049.317-.057.478-.01.161-.008.323.001.482a6.2 6.2 0 0 0 .227 1.279 6.437 6.437 0 0 0 .247.701l.017.036.004.01-.745.289zM24.443 11.234l-.005-.017-.007-.025a4.491 4.491 0 0 1-.132-1.269c.001-.075.008-.151.013-.23l.013-.118c.003-.04.008-.08.014-.12l.018-.121.023-.122c.014-.082.036-.164.055-.247.01-.04.023-.082.034-.122.013-.042.023-.083.037-.123l.042-.122.021-.06.024-.06.048-.119c.016-.04.035-.078.052-.117.019-.038.035-.077.055-.114l.059-.112c.079-.147.166-.285.257-.414l.033-.049.035-.046.07-.09c.045-.061.095-.116.141-.17l.07-.08.07-.073c.048-.048.091-.096.136-.137.093-.083.173-.163.252-.224.078-.063.143-.12.202-.16l.18-.132.055.069-.158.153c-.052.047-.107.11-.174.182-.068.069-.134.156-.21.247-.038.046-.073.097-.111.148l-.057.078-.055.084c-.037.057-.076.114-.11.176l-.052.093c-.01.015-.018.031-.027.047l-.024.049c-.067.13-.129.266-.181.409l-.04.107-.034.11c-.01.036-.023.072-.032.11l-.029.11-.013.057c-.005.018-.007.037-.011.055l-.022.113c-.008.037-.012.075-.017.112-.006.037-.013.074-.015.111-.007.075-.016.148-.018.221l-.006.109v.107.105l.004.103c.006.068.009.134.016.198a4.025 4.025 0 0 0 .191.876c.021.06.04.104.051.132l.008.02.005.008a.282.282 0 0 1 .005.012l-.749.282zM24.502 11.616l.003.007.006.018.03.078a5.072 5.072 0 0 0 .338.682 4.71 4.71 0 0 0 .284.427c.026.034.053.07.08.102a2.855 2.855 0 0 0 .258.279l.09.079.09.071.089.063.086.053c.028.016.056.03.083.044.026.015.052.024.077.036l.036.015c.01.005.023.008.033.012l.06.021c.037.012.067.017.088.023a.83.83 0 0 1 .03.008l-.005.104-.034.002c-.023 0-.057.003-.099.003l-.07-.003-.041-.002-.043-.006c-.03-.004-.063-.006-.095-.013a6.132 6.132 0 0 1-.105-.021l-.112-.031a133.22 133.22 0 0 0-.118-.04l-.122-.05c-.04-.018-.083-.037-.125-.058a3.143 3.143 0 0 1-.496-.308 4.8 4.8 0 0 1-.64-.561 6.086 6.086 0 0 1-.464-.538l-.024-.033.832-.463zM26.93 10.45a1.545 1.545 0 0 0 .047.105 5.478 5.478 0 0 0 .537.884 4.107 4.107 0 0 0 .348.4c.061.062.125.12.189.173l.096.075.097.067.094.058.091.05.087.039c.028.013.055.02.08.03.013.006.026.01.037.014a2.436 2.436 0 0 0 .097.027c.04.01.07.015.09.02.021.003.032.053.032.053l-.003.112h-.034c-.022 0-.055-.048-.096-.05-.021-.002-.044-.03-.069-.031-.013-.001-.026-.015-.039-.017-.014-.002-.028-.01-.042-.013a2.701 2.701 0 0 1-.192-.048l-.106-.036-.113-.044-.116-.054c-.038-.02-.078-.04-.118-.063a3.244 3.244 0 0 1-.465-.322 4.314 4.314 0 0 1-.415-.385 5.244 5.244 0 0 1-.328-.37 6.13 6.13 0 0 1-.294-.393l.507-.282z" fill="#DB4291"/><g transform="translate(17 2)"><mask id="b" fill="#fff"><use xlink:href="#a"/></mask><path d="M-.028 11.087c-1.243 2.272 2.664.008 4.168-2.237.39-.581 1.932-1.063 2.832-2.154.9-1.09 1.768-1.229 2.33-1.995.708-.967 1.05-1.064 1.432-2.214.433-1.3.26-2.199.04-2.508-.218-.31-.6-.014-.6-.014L8.665 3.358S6.938 4.936 6.844 5.25c-.095.314-1.288 1.233-1.457 1.316-.17.082-2.157 1.464-2.375 1.663-.22.2-2.497.79-2.497.79l-.543 2.068zm3.476 3.304c-2.575.02 2.998-2.782 3.42-3.34.421-.559 1.952-1.127 3.333-1.405 1.38-.279 1.928-.718 2.864-.85 1.181-.169.966-.806 2.151-.597 1.34.235 3.26.958 3.426 1.299.166.341-.274.54-.274.54l-3.812-.862s-2.377.838-2.697.772c-.319-.065-1.602.378-1.754.488-.152.11-2.079 1.917-2.357 2.017-.279.099-1.877 1.836-1.877 1.836l-2.423.102z" fill="#3B5225" mask="url(#b)"/></g><g><path d="M29.87 9.462l.008.027.03.082a3.98 3.98 0 0 0 .222.492c.035.068.076.139.12.21.02.037.044.072.067.11l.074.107c.026.035.052.072.08.107l.041.052.043.051c.028.036.06.067.089.1.03.033.062.063.093.095.033.029.063.06.097.087.033.026.065.055.099.079s.066.05.1.07c.035.021.068.044.101.061.034.019.067.037.1.05.033.015.064.032.096.043.031.01.062.024.091.032l.084.024c.027.009.052.012.076.017l.064.013.125.014.002.063-.132.008h-.07c-.025-.002-.053 0-.082-.004l-.094-.01c-.033-.004-.067-.012-.103-.018-.037-.006-.073-.017-.112-.027-.039-.009-.077-.022-.117-.037-.041-.012-.081-.03-.122-.046-.042-.017-.082-.038-.124-.058-.043-.02-.082-.045-.124-.068-.042-.024-.081-.05-.123-.077l-.12-.085c-.039-.031-.08-.06-.116-.093l-.057-.048-.055-.05c-.038-.032-.072-.067-.107-.101s-.068-.07-.101-.104c-.032-.036-.065-.07-.095-.106a4.332 4.332 0 0 1-.313-.401 4.57 4.57 0 0 1-.247-.397l-.018-.035.53-.23zM27.8 10.374l.009.027a4.065 4.065 0 0 0 .252.574c.036.068.075.139.12.21.02.037.044.072.067.11.025.035.048.072.074.107.026.036.051.072.08.107l.04.053.044.05c.028.036.059.068.089.1.03.033.061.064.092.095.033.03.064.06.097.087.034.027.065.056.1.079.033.024.066.05.1.07.034.022.067.043.101.06a.9.9 0 0 0 .1.052c.032.015.064.031.095.042.032.011.062.024.092.033l.084.024c.027.008.052.01.075.016l.065.013c.08.01.125.014.125.014v.064l-.13.008-.07-.001c-.026-.002-.053 0-.083-.004l-.093-.01c-.033-.003-.067-.011-.104-.017-.037-.006-.073-.018-.112-.027-.038-.01-.077-.023-.117-.037-.04-.013-.08-.03-.121-.047-.042-.017-.083-.038-.124-.058-.043-.02-.082-.044-.124-.068-.042-.024-.082-.05-.124-.077l-.119-.085c-.04-.03-.08-.06-.117-.093l-.057-.048-.055-.05c-.037-.032-.071-.067-.107-.101-.035-.034-.067-.07-.1-.104-.032-.035-.065-.07-.095-.105a4.678 4.678 0 0 1-.578-.834l.53-.229z" fill="#DB4291"/><path d="M.424 30.07l.305-.312a107.198 107.198 0 0 1 2.2-2.163 139.942 139.942 0 0 1 2.788-2.604 153.063 153.063 0 0 1 4.155-3.644c.216-.181.433-.365.653-.547.22-.183.441-.367.665-.55l.336-.275.34-.276c.452-.368.911-.734 1.375-1.1.233-.18.466-.363.7-.546l.705-.54a99.96 99.96 0 0 1 2.854-2.095 77.602 77.602 0 0 1 2.846-1.919l.7-.44c.234-.144.463-.288.693-.425.46-.277.912-.544 1.359-.793.891-.501 1.755-.94 2.569-1.31a25.005 25.005 0 0 1 2.264-.91c.688-.235 1.302-.4 1.81-.517.51-.112.913-.177 1.19-.21.276-.032.423-.046.423-.046l.038.191s-.138.05-.395.14c-.257.093-.63.237-1.095.435-.464.204-1.02.464-1.644.79a37.67 37.67 0 0 0-2.052 1.17c-.74.452-1.527.964-2.348 1.525-.41.28-.83.574-1.254.879-.212.152-.424.31-.64.467l-.646.485a83.852 83.852 0 0 0-2.63 2.086c-.882.728-1.766 1.484-2.64 2.253-.874.768-1.735 1.553-2.577 2.332l-.314.291-.313.292c-.207.194-.412.39-.616.582-.205.193-.407.387-.608.578l-.595.573a189.184 189.184 0 0 0-4.234 4.216c-.61.627-1.165 1.206-1.656 1.718-.49.514-.914.965-1.261 1.336-.348.37-.619.664-.802.862l-.277.302-2.37-2.28z" fill="#DB4291"/><path d="M25.552 11.23l-.011-.013a.134.134 0 0 1-.008-.01l-.008-.01-.017-.023a1.985 1.985 0 0 1-.317-1.423c.005-.034.013-.067.02-.101.006-.034.012-.068.023-.102.008-.033.017-.067.027-.1.01-.034.022-.066.034-.099.021-.066.052-.128.079-.192.013-.033.03-.062.045-.093l.048-.091.052-.087c.019-.03.035-.06.055-.086l.056-.082c.019-.027.038-.055.058-.08.04-.051.079-.103.12-.151l.124-.14c.085-.087.166-.172.25-.245l.06-.054a18.216 18.216 0 0 1 .228-.192l.053-.04c.034-.026.067-.052.098-.074.06-.048.116-.085.161-.117l.142-.098.054.07-.12.12c-.039.038-.086.084-.136.14l-.082.089c-.014.015-.03.03-.044.047l-.044.052a16.435 16.435 0 0 1-.14.169l-.046.062c-.066.082-.126.174-.19.267l-.089.146c-.03.05-.055.102-.083.153-.015.025-.025.053-.038.079L25.93 9c-.013.025-.022.053-.032.08l-.03.08c-.01.027-.018.054-.026.082-.008.027-.018.054-.024.081-.012.055-.028.108-.034.162-.004.027-.01.053-.013.08l-.007.078a.626.626 0 0 0-.003.077c0 .026-.002.05 0 .076.002.098.016.191.034.277.02.085.048.162.077.23.03.069.063.128.095.178.032.05.063.09.089.121a.836.836 0 0 0 .06.064l.008.007c.002.002.005-.054.005-.054l.003-.056v.087l-.58.58z" fill="#DB4291"/><path d="M21.579 19.993c.524-.71 1.1-.753.5-1.042-.6-.288-.827-.02-.674-1.285.154-1.266-1.207-.702.868-2.197 2.075-1.497 2.173-1.838 3.278-1.965 1.105-.126 3.434-.973 4.927-1.421 1.494-.45 3.074.266 3.928.66.855.394 1.624.753 1.68 1.5.056.749.697.49.797 1.277.1.786-.33 1.655-.792 2.108-.461.453-1.367 1.024-2 1.407-.63.383-2.263 1.724-4.068 2.988-1.803 1.264-2.82 1.467-3.438 1.472-.618.006-1.411.108-1.915-.397-.503-.504-.793-1.067-1.083-1.63-.29-.562-.675-.199-1.091-.25-.417-.052-.946-.513-.946-.513l.029-.712z" fill="#43602D"/><path d="M1.403 30.14l.332-.226a126.197 126.197 0 0 1 3.28-2.139 177.678 177.678 0 0 1 5.813-3.516c.889-.514 1.814-1.034 2.758-1.555.944-.52 1.908-1.04 2.88-1.546l.73-.377.731-.372c.489-.244.976-.486 1.462-.721a92.823 92.823 0 0 1 4.262-1.944c.228-.096.455-.189.678-.281l.665-.27a49.059 49.059 0 0 1 2.494-.925c.782-.263 1.51-.472 2.162-.633a22.475 22.475 0 0 1 1.327-.287l.192-.036.183-.03.338-.051.155-.021.144-.018c.186-.022.344-.041.473-.05l.294-.022.1-.006.044.22-.093.036-.273.102c-.12.042-.266.1-.438.165-.086.034-.179.065-.277.105-.097.04-.202.08-.311.123l-.17.066a28.26 28.26 0 0 0-.177.072c-.12.05-.246.1-.378.154a38.83 38.83 0 0 1-.41.17l-.214.091-.223.096a87.871 87.871 0 0 0-4.357 2.016c-.826.416-1.688.871-2.573 1.358a108.859 108.859 0 0 0-4.084 2.365l-.69.42-.688.425c-.916.57-1.828 1.149-2.721 1.726-.893.578-1.764 1.158-2.605 1.723-.842.563-1.652 1.115-2.415 1.643-.763.53-1.485 1.03-2.146 1.497-.332.234-.648.46-.948.674l-.853.61c-.534.383-.997.722-1.378.998-.38.278-.678.498-.88.647l-.305.226-1.89-2.702z" fill="#DB4291"/><path d="M24.976 18.758l.002.008.006.017.03.078a5.175 5.175 0 0 0 .7 1.213 2.848 2.848 0 0 0 .257.278l.09.08.089.07.088.063.086.054.082.044c.026.015.052.024.077.035a3.62 3.62 0 0 0 .068.028l.061.02c.037.012.066.018.087.024l.03.008-.005.104-.034.002c-.023 0-.056.003-.099.003l-.07-.004c-.013 0-.027 0-.04-.002l-.043-.005c-.03-.004-.062-.006-.094-.014a4.134 4.134 0 0 1-.105-.02l-.111-.031a25.457 25.457 0 0 0-.118-.04l-.122-.05c-.04-.019-.082-.037-.124-.058a3.11 3.11 0 0 1-.373-.222 4.27 4.27 0 0 1-.566-.46 6.314 6.314 0 0 1-.59-.642 2.916 2.916 0 0 1-.089-.118l.83-.463zM26.186 18.08l.02.037a6.13 6.13 0 0 0 .505.737 6.596 6.596 0 0 0 .47.533l.136.13c.048.04.094.085.143.125.048.04.097.082.147.118.026.02.05.039.076.057l.076.053c.05.037.104.067.155.1.026.017.053.03.079.045l.078.043.157.074c.053.02.104.042.155.06.051.015.101.033.15.046.05.01.098.023.144.032l.134.02c.043.004.084.005.123.008l.056.002.052-.002c.034 0 .064-.002.092-.003.056-.005.099-.012.128-.016l.046-.006.012.05-.047.011-.13.03a57.71 57.71 0 0 0-.15.02c-.018.003-.038.003-.058.004-.04.001-.084.005-.13.005l-.142-.006c-.05-.005-.102-.012-.156-.02-.053-.007-.108-.02-.164-.032-.056-.012-.113-.03-.172-.046a7.292 7.292 0 0 1-.174-.062 5.199 5.199 0 0 0-.088-.037c-.029-.013-.06-.025-.088-.04-.058-.029-.118-.056-.175-.089a3.778 3.778 0 0 1-.173-.1c-.057-.034-.113-.072-.168-.11-.057-.036-.11-.078-.164-.117a5.82 5.82 0 0 1-.708-.632 7.276 7.276 0 0 1-.612-.729l-.03-.041.395-.252zM27.95 16.77l.022.037a4.278 4.278 0 0 0 .172.277 6.561 6.561 0 0 0 .802.993l.136.13c.048.042.093.085.143.126.048.04.097.08.147.118l.075.057.077.053c.051.036.104.067.155.1a7.854 7.854 0 0 1 .157.088l.156.073c.054.021.104.043.156.06.051.016.1.034.15.047.05.01.098.023.144.032.047.006.092.013.134.02.043.004.084.004.123.007.019.001.038.003.056.002l.052-.001.092-.004c.055-.005.099-.012.128-.016l.046-.006.011.05-.046.011c-.03.007-.074.019-.13.03l-.096.013-.054.008c-.019.003-.038.002-.058.003-.04.002-.084.005-.13.005l-.143-.006c-.05-.005-.101-.012-.155-.019-.054-.008-.108-.021-.165-.032-.056-.013-.112-.031-.17-.047a7.006 7.006 0 0 1-.175-.062l-.088-.037c-.03-.013-.06-.025-.088-.04-.058-.029-.118-.055-.175-.088a9.863 9.863 0 0 0-.087-.049c-.03-.016-.057-.034-.086-.052-.058-.034-.112-.071-.169-.109-.056-.037-.108-.078-.163-.117a5.842 5.842 0 0 1-.927-.872 7.686 7.686 0 0 1-.31-.377 4.445 4.445 0 0 1-.083-.112l-.03-.042.394-.252zM28.146 16.722l-.007-.006a1.864 1.864 0 0 1-.096-.088c-.029-.03-.064-.066-.103-.109a2.834 2.834 0 0 1-.254-.338 2.236 2.236 0 0 1-.123-.225c-.02-.04-.037-.082-.055-.125l-.023-.065c-.008-.022-.016-.044-.022-.066a5.343 5.343 0 0 0-.02-.069l-.016-.069c-.012-.046-.018-.093-.026-.14l-.006-.072c-.002-.023-.006-.046-.006-.07 0-.048-.003-.095.002-.142l.004-.069.01-.067.01-.067.015-.065c.005-.02.008-.042.015-.062l.019-.06.019-.059.022-.055.022-.054c.007-.018.017-.034.024-.05.017-.033.032-.065.049-.095.035-.057.064-.111.097-.155.031-.044.057-.084.082-.113l.076-.094.041.03-.06.103c-.02.032-.039.073-.063.12-.024.045-.044.101-.069.16-.011.029-.02.061-.03.093l-.017.05-.012.051c-.004.018-.009.035-.012.053l-.01.055-.008.055c-.004.019-.004.039-.006.058a1.83 1.83 0 0 0-.004.057v.118l.006.059c.001.04.011.079.016.118.003.02.009.039.013.058.005.02.009.039.015.058.012.038.023.076.038.113.008.018.014.037.023.055.007.018.016.036.024.053.007.018.017.035.026.052l.028.05c.02.033.038.066.06.097a1.798 1.798 0 0 0 .263.31 1.871 1.871 0 0 0 .296.236l.005.004-.272.383zM27.829 10.003l-.004-.013-.011-.045a4.746 4.746 0 0 1-.11-.688 4.962 4.962 0 0 1-.012-.76 4.07 4.07 0 0 1 .05-.426c.024-.145.061-.29.104-.433l.036-.106.018-.053.021-.052.042-.103c.015-.034.032-.066.048-.1.016-.032.031-.066.05-.097l.054-.093.028-.046.03-.044.06-.086.014-.022.016-.02.033-.04.063-.077c.045-.05.09-.095.133-.14.046-.043.093-.082.137-.12.02-.021.046-.036.068-.054l.066-.048c.043-.034.087-.059.128-.084a1.366 1.366 0 0 1 .12-.07l.107-.054c.033-.017.063-.032.092-.043l.178-.072.036.08-.159.097c-.026.014-.051.034-.08.054l-.093.068a.498.498 0 0 0-.049.039l-.05.043c-.034.03-.071.06-.104.096l-.054.055c-.017.018-.037.035-.053.057-.033.04-.069.082-.103.126-.031.046-.065.093-.096.142a38.475 38.475 0 0 1-.067.115l-.011.019-.01.02a2.065 2.065 0 0 0-.137.344c-.009.03-.02.06-.027.09l-.021.093-.011.046-.008.048-.016.094a3.123 3.123 0 0 0-.012.752 4.059 4.059 0 0 0 .116.65 4.099 4.099 0 0 0 .138.442l.046.116.012.026.005.01-.751.267zM24.764 17.819l-.022-.039c-.012-.024-.03-.058-.05-.102-.02-.043-.045-.095-.07-.156a3.774 3.774 0 0 1-.158-.453 3.283 3.283 0 0 1-.108-.593 2.538 2.538 0 0 1-.004-.324c.008-.109.02-.217.044-.321.006-.026.011-.053.018-.078l.024-.076c.013-.05.035-.098.053-.145.008-.024.02-.046.031-.068.01-.023.022-.044.032-.066l.072-.121c.025-.038.053-.073.077-.108.026-.033.055-.063.08-.092.024-.03.052-.055.077-.08.027-.024.049-.048.073-.068l.068-.054c.021-.016.04-.033.059-.044l.114-.078.046.061-.094.094c-.015.015-.03.033-.046.052l-.053.062c-.019.022-.034.049-.054.075-.018.026-.038.053-.055.084-.017.03-.037.062-.053.095-.016.034-.033.068-.048.105-.013.037-.028.075-.04.114a4.7 4.7 0 0 0-.017.06c-.005.02-.011.04-.015.061-.006.042-.017.084-.02.127-.001.022-.004.043-.006.065l-.003.066a1.749 1.749 0 0 0 .072.528 2.413 2.413 0 0 0 .184.47 2.859 2.859 0 0 0 .204.35l.082.114a1.904 1.904 0 0 0 .07.09l-.564.393zM30.66 15.902l-.02-.016-.024-.02-.035-.03a1.577 1.577 0 0 1-.201-.203 1.104 1.104 0 0 1-.113-.164.85.85 0 0 1-.111-.45.973.973 0 0 1 .042-.237 1.32 1.32 0 0 1 .137-.31 2.282 2.282 0 0 1 .227-.326l.054-.066c.036-.04.068-.079.098-.111l.078-.083.07-.072.026.024-.059.08c-.02.024-.041.056-.066.091-.026.036-.052.077-.082.121l-.044.07a2.352 2.352 0 0 0-.211.43c-.022.064-.041.13-.051.195a.772.772 0 0 0-.01.19.568.568 0 0 0 .041.17.7.7 0 0 0 .18.252c.035.032.069.06.101.084l.084.06a.437.437 0 0 1 .032.02l.027.016.02.014-.19.271zM29.975 15.78l.003.008.008.019a1.79 1.79 0 0 0 .109.214 2.767 2.767 0 0 0 .597.74c.036.03.071.061.11.089l.056.042.059.04c.039.028.08.05.121.075.041.024.083.045.125.067.043.018.085.04.128.055l.065.024.031.012.033.01c.086.027.17.047.253.062l.12.017.114.009c.036.003.071.001.105.002.033 0 .065.001.095-.001a6.1 6.1 0 0 1 .084-.005.677.677 0 0 0 .071-.007l.135-.017.012.05-.135.036a.76.76 0 0 1-.072.016l-.086.016c-.03.008-.063.01-.098.015-.035.004-.071.01-.11.012l-.12.006a2.076 2.076 0 0 1-.41-.031l-.037-.007-.037-.008a5.12 5.12 0 0 1-.073-.017c-.05-.01-.098-.028-.149-.042-.049-.018-.098-.035-.147-.055-.048-.021-.098-.04-.145-.066l-.07-.035-.07-.04c-.047-.025-.09-.055-.136-.082a2.886 2.886 0 0 1-.46-.379 3.628 3.628 0 0 1-.315-.362 2.962 2.962 0 0 1-.16-.235l-.017-.029-.005-.008.418-.21zM31.867 15.57l.01.017.029.047c.014.021.03.048.053.077l.035.047.042.05c.015.018.031.035.049.053.016.018.033.038.052.056.039.036.078.076.123.113l.068.057.074.054.037.027.04.025.079.05c.054.033.11.06.165.09.057.027.113.051.167.075l.163.058c.025.01.05.017.076.023l.072.019c.048.012.09.025.129.03l.1.019.088.016-.003.036-.09-.003a27.946 27.946 0 0 1-.104-.004c-.04 0-.085-.007-.133-.013a4 4 0 0 1-.16-.02c-.056-.012-.115-.023-.177-.037l-.186-.052c-.061-.023-.126-.045-.188-.071l-.093-.041-.046-.022-.045-.023-.088-.048c-.029-.016-.056-.034-.084-.051-.055-.033-.104-.071-.153-.105-.025-.018-.047-.038-.069-.055-.021-.017-.043-.034-.062-.052l-.056-.05a3.253 3.253 0 0 0-.049-.05c-.031-.03-.056-.059-.078-.082l-.049-.06a1.458 1.458 0 0 1-.016-.022l.278-.179z" fill="#DB4291"/><g transform="translate(10.616)"><mask id="d" fill="#fff"><use xlink:href="#c"/></mask><path d="M5.664 13.163c-1.584-.291-3.762-.6-4.93-2.159-.716-.953-.92-2.21-.426-2.925.578-.837 1.923-1.148 2.806-1.69.995-.61 1.872-1.36 2.228-2.476.604-1.9 2.019-4.029 4.733-3.816C11.171.182 11.72 1.6 12.6 2.403c1.687 1.536 3.867 1.683 3.226 3.062-.705 1.518-3.085 3.669-4.55 4.494-1.468.826-2.666 1.818-3.623 3.116-.218.295-.433 1.133-.979 1.085-.573-.05-.79-.957-.986-.993l-.023-.004" fill="#43602D" mask="url(#d)"/></g><path d="M.143 30.48l.173-.335a72.923 72.923 0 0 1 1.27-2.308 105.054 105.054 0 0 1 1.659-2.794 112.149 112.149 0 0 1 2.162-3.356l.401-.592c.137-.198.273-.398.413-.597.139-.2.279-.4.422-.6l.214-.303c.072-.1.145-.2.217-.302a79.585 79.585 0 0 1 1.806-2.411 70.418 70.418 0 0 1 1.903-2.338 54.753 54.753 0 0 1 1.95-2.176c.326-.344.651-.679.975-1 .162-.161.32-.321.483-.475.16-.156.32-.307.48-.455a27.86 27.86 0 0 1 1.863-1.594c.598-.467 1.17-.867 1.692-1.197a16.4 16.4 0 0 1 1.382-.795c.099-.05.19-.098.28-.141l.25-.116.215-.099c.067-.029.128-.052.183-.075.218-.09.335-.135.335-.135l.092.171-.283.218c-.047.035-.099.074-.155.118l-.182.145-.212.168-.235.195c-.333.272-.724.618-1.164 1.023l-.165.155c-.056.052-.114.104-.17.16-.115.11-.23.224-.352.34-.237.235-.485.483-.74.748a49.251 49.251 0 0 0-1.596 1.745c-.07.08-.14.157-.208.24-.07.08-.14.161-.209.244-.141.162-.28.331-.42.5-.283.34-.565.692-.848 1.054-.142.18-.281.365-.424.55l-.424.561-.422.576c-.14.195-.281.388-.42.586-.559.788-1.11 1.6-1.646 2.424-.136.205-.268.413-.401.618l-.394.62c-.26.416-.517.83-.769 1.244l-.188.31c-.061.103-.123.207-.186.31-.123.205-.244.411-.365.615-.121.204-.24.408-.358.61l-.349.604a127.642 127.642 0 0 0-2.42 4.426c-.342.653-.648 1.257-.918 1.791a117.52 117.52 0 0 0-1.118 2.28l-.145.307L.143 30.48z" fill="#DB4291"/><path d="M18.609 7.753a.229.229 0 0 0 .005.022 1.462 1.462 0 0 0 .235.447 1.21 1.21 0 0 0 .291.272.96.96 0 0 0 .191.094c.033.014.068.022.103.033.035.009.071.014.107.021.036.003.072.008.107.01.036-.001.072.002.107 0l.104-.008.1-.015c.063-.015.125-.026.18-.044l.08-.025.07-.025.062-.024c.02-.007.037-.016.052-.022l.099-.044.018.034-.094.056-.05.03-.06.03-.07.036-.079.035c-.054.027-.117.046-.183.07l-.104.029c-.036.009-.073.015-.112.022-.037.007-.077.01-.117.015-.04.003-.08.002-.122.004-.042-.002-.083-.004-.126-.01-.041-.006-.084-.01-.125-.022a1.193 1.193 0 0 1-.457-.214 1.53 1.53 0 0 1-.313-.312 1.834 1.834 0 0 1-.21-.346c-.005-.01-.01-.02-.011-.025a.164.164 0 0 0-.004-.008l.326-.116zM16.13 10.192v.006l.005.015a1.379 1.379 0 0 0 .235.447 1.14 1.14 0 0 0 .291.272c.06.037.123.072.19.095.034.014.069.022.104.032.035.009.071.014.107.022.035.002.071.007.107.009.036 0 .071.002.106 0 .035-.003.07-.004.104-.008l.1-.015c.064-.014.125-.026.18-.044l.08-.024.07-.026.063-.023.052-.023.098-.043.019.033-.095.056c-.015.009-.031.02-.05.03l-.06.031-.07.036-.078.035c-.055.026-.118.046-.183.07l-.104.028c-.036.009-.074.015-.112.023-.038.007-.077.009-.117.014-.04.004-.081.003-.123.004-.041-.002-.083-.003-.125-.009-.042-.006-.084-.011-.125-.022a1.176 1.176 0 0 1-.457-.214 1.536 1.536 0 0 1-.314-.313 1.883 1.883 0 0 1-.221-.37l-.003-.008.325-.116zM14.24 12.307l-.006-.02-.015-.049a7.3 7.3 0 0 1-.25-1.734 5.258 5.258 0 0 1 .082-1.05c.033-.177.076-.352.132-.52.055-.169.122-.33.198-.48a2.83 2.83 0 0 1 .802-.972l.12-.086c.039-.025.073-.05.105-.07l.086-.05.065-.037.054-.03.045.076-.048.036-.058.042a5.412 5.412 0 0 0-.076.061c-.028.022-.058.05-.091.079-.033.028-.066.062-.103.096a2.591 2.591 0 0 0-.616.981c-.05.143-.09.295-.12.45-.03.156-.049.317-.057.478-.01.162-.008.324.001.483.01.16.026.316.049.466a6.32 6.32 0 0 0 .363 1.368c.025.065.046.115.06.148l.016.036.005.01-.743.288zM17.078 9.287l-.012-.042a3.733 3.733 0 0 1-.07-.29 4.908 4.908 0 0 1-.039-.227l-.017-.13c-.005-.046-.012-.092-.015-.14a4.47 4.47 0 0 1-.016-.304c-.002-.053 0-.107 0-.162.003-.054.003-.109.009-.164.004-.056.008-.111.016-.167.006-.056.016-.112.026-.168.009-.055.024-.11.035-.165.016-.055.03-.109.048-.162.019-.052.035-.106.058-.155l.031-.074c.011-.025.024-.049.036-.072.012-.024.023-.048.036-.07a6.37 6.37 0 0 1 .04-.066c.025-.044.055-.083.083-.123.027-.04.058-.075.087-.109l.044-.05.045-.045c.056-.06.118-.105.169-.149.054-.038.101-.072.142-.097l.129-.074.027.047-.114.088c-.035.03-.075.067-.122.11-.042.047-.093.097-.139.16l-.036.046c-.012.016-.022.034-.033.051-.023.035-.047.07-.067.11-.02.038-.043.077-.06.12l-.028.064-.024.066-.024.068-.02.07c-.013.047-.022.097-.032.145-.01.05-.016.1-.023.15-.004.05-.012.1-.013.151-.002.05-.004.101-.003.152-.001.051.002.101.004.152.002.05.008.1.012.148.006.05.011.097.019.145.007.047.014.094.023.139.008.045.018.09.027.132.009.043.02.085.03.124a4.64 4.64 0 0 0 .186.557l.013.03-.468.18zM19.13 7.561l-.013-.048a6.635 6.635 0 0 1-.034-.127c-.013-.055-.029-.121-.043-.197a5.518 5.518 0 0 1-.065-.402c-.005-.05-.012-.103-.016-.157a3.876 3.876 0 0 1-.018-.341c-.002-.06 0-.12 0-.18.003-.062.003-.124.01-.186l.007-.094.011-.094c.007-.063.018-.125.029-.188.005-.03.012-.062.02-.093l.02-.093.026-.09c.008-.031.016-.061.027-.09.021-.06.04-.119.065-.175l.036-.084c.012-.027.027-.054.04-.08l.04-.079.045-.074c.028-.049.061-.093.093-.137.03-.045.065-.085.098-.123.016-.019.032-.039.049-.056l.05-.05c.065-.068.133-.12.19-.167.062-.044.114-.081.16-.11l.144-.083.031.053-.128.098c-.04.033-.085.076-.137.124-.047.053-.105.108-.155.179a4.916 4.916 0 0 1-.041.052c-.014.018-.025.038-.038.058-.025.039-.052.078-.074.122-.023.044-.049.088-.068.136l-.031.071-.027.075c-.009.025-.019.05-.027.076l-.022.08c-.016.052-.025.107-.037.162-.006.027-.01.055-.014.083l-.012.084-.008.085a1.155 1.155 0 0 0-.006.085c-.002.057-.005.114-.004.171l.001.085.004.085c.002.056.01.112.014.167a3.437 3.437 0 0 0 .047.318c.008.051.02.1.03.15.01.047.023.093.033.139l.036.129a4.241 4.241 0 0 0 .188.53l-.525.201zM4.762 31.685c-1.492 1.064-2.077 1.88-3.444.819-1.366-1.062-1.876-1.526-.528-3.105 1.348-1.579 3.972 2.286 3.972 2.286" fill="#DB4291"/></g></g></svg>