<svg width="32" height="42" xmlns="http://www.w3.org/2000/svg" xmlns:xlink="http://www.w3.org/1999/xlink"><defs><path id="a" d="M0 .012h31.973v36.316H0z"/><path d="M8.094 1.944C3.52-.028 1.546 2.15.298 7.236.094 8.068.002 9.007 0 10.024v.056c.009 5.2 2.377 12.394 4.456 17.499 2.495 6.124 9.666 10.274 12.16 7.383 2.494-2.89 1.352-.432 5.405-.017 4.054.415 9.042-7.58 8.42-12.458-.433-3.381 1.532-8.71 1.532-13.069v-.004c0-1.927-.386-3.663-1.533-4.957-1.17-1.319-2.46-2-3.683-2.315-2.69-.69-5.047.398-5.047.398C19.007-.106 16.512.893 16.512.893c-.63-.63-1.545-.881-2.564-.881-2.002 0-4.408.969-5.854 1.932" id="c"/></defs><g fill="none" fill-rule="evenodd"><g transform="translate(0 5.116)"><mask id="b" fill="#fff"><use xlink:href="#a"/></mask><path d="M8.094 1.967C10.276.496 14.642-.987 16.512.903c0 0 2.495-1.01 5.198 1.668 0 0 2.357-1.102 5.047-.403 1.223.318 2.514 1.007 3.683 2.342 3.742 4.27-.623 13.309 0 18.244.623 4.936-4.365 13.026-8.419 12.606-4.053-.42-2.91-2.907-5.404.017-2.495 2.925-9.666-1.274-12.161-7.47C1.962 21.71-.95 12.468.298 7.321c1.248-5.146 3.223-7.35 7.796-5.355" fill="#2A7F3E" mask="url(#b)"/></g><path d="M26.178 7.555s-3.166-.112-5.14 2.084c0 0-2.044-1.138-5.051 1.33 0 0-1.525-1.965-5.138 0 0 0-.157-1.89-.936-2.573-.78-.683 2.547.866 2.547.866s2.91-1.39 4-1.339l1.871 1.103s6.912-3.308 7.847-1.47" fill="#327238"/><path d="M13.757 10.088c-.05-1.376-.05-4.686.937-6.418.987-1.733 2.885-3.833 6.327-3.624 3.443.21 4.534 1.786 4.379 2.416-.157.63-1.248 2.15-2.131 2.598-.884.448-1.792.133-2.248-.813-.455-.945-2.756-1.365-3.034-.104-.279 1.26.552 5.297.552 5.297s-3.676 3.339-4.982.648" fill="#58A044"/><g transform="translate(0 5)"><mask id="d" fill="#fff"><use xlink:href="#c"/></mask><path d="M21.337 30.618a4.94 4.94 0 0 1-1.305-.689c-1.872-1.363-1.33-3.97-1.956-5.911-.23-.716-.747-2.419-1.676-2.533-.908-.112-1.911 1.7-2.166 2.373-.56 1.479.258 2.983.313 4.477.06 1.633-.807 3.01-2.22 3.8-.7.39-1.466.589-2.225.825-.363.113-2.185.46-1.54 1.055.675.622 3.274 2.958 5.508 2.543 2.235-.416 2.702-1.713 3.898-2.076 1.195-.364.623 0 2.13.623 1.508.622 2.495.83 3.119.675.623-.156 2.702-.727 3.118-1.61.416-.882 3.273-5.08 3.273-5.552.002-1.114 3.742-5.461.884-5.134-.55 2.016-1.744 4.714-3.683 5.991-1.69 1.114-3.624 1.777-5.472 1.143" fill="#2D753A" mask="url(#d)"/></g><g><path d="M15.238 12.514l.593 14.875-.694 1.3v-1.196s-.51-13.835.101-14.979M7.153 11.26c-1.091 1.289-2.311 2.147-2.61 3.946-.28 1.68.047 3.454.362 5.108.18.951.409 1.892.603 2.84.489 2.378.613 5.194 1.72 7.381.811 1.6 2.039 3.032 2.982 4.564l1.06 1.715c.211.344.472.708.586 1.093-1.07.023-2.017-1.716-2.41-2.533-.693-1.443-1.888-2.766-2.524-4.24-1.55-3.599-2.814-7.49-3.033-11.459-.072-1.277-.104-2.583.117-3.848a7.65 7.65 0 0 1 .746-2.229c.272-.52.53-1.08.91-1.534.16-.192.327-.349.541-.478.198-.12.834-.189.95-.326" fill="#2D753A"/><path d="M11.39 15.223c-.274-.979-1.49.843-3.058 0-1.568-.841-2.94-1.537-3.215-.33-.274 1.21-.784 2.564.863 3.626 1.646 1.062 2.901 1.978 4.038 1.318 1.136-.659 1.294-.512 1.96-1.245.666-.733.431-1.5 0-2.124-.432-.622-.588-1.245-.588-1.245" fill="#4A9149"/><path d="M9.622 15.98c-.506-.276-1.404.16-1.965-.066-.464-.187-1.72-1.074-1.926-.167-.158.697-.334 1.318.162 1.927.382.467 1.017.882 1.607 1.081 1.836.62 3.122-.9 2.387-2.483a.612.612 0 0 0-.265-.292" fill="#FEFEFE"/><path d="M8.929 9.845c-1.644-1.388-2.76-2.26-5.582-1.336 0 0-1.088.282.622.688 1.71.405 3.472 1.757 3.005 1.965-.467.208-.495.988 1.955.728 2.449-.26 5.811-.835 5.192-1.38 0 0-1.914-.804-4.142.652L8.93 9.845z" fill="#62A062"/><path d="M21.74 10.59c-1.602-.745-4.041-1.977-6.217 0 0 0-2.021-1.405-5.544.572 0 0 .933 1.092 2.02.78 1.089-.312 1.233-.936 2.197-.208.964.728 1.171.573 2.052.209.881-.365 1.192-1.353 2.021-1.406.829-.052 3.834 1.353 3.47.053" fill="#62A062"/><path d="M17.544 14.244c1.45-.17 2.539-1.13 4.714 0 2.177 1.13 1.555 2.483 1.45 3.68-.102 1.196-.259 4.316-2.382 5.044-2.125.728-1.917 2.609-3.16.394-1.244-2.214-2.022-1.823-1.97-4.307.052-2.484 1.348-4.81 1.348-4.81" fill="#4A9149"/></g></g></svg>