<svg width="41" height="36" xmlns="http://www.w3.org/2000/svg" xmlns:xlink="http://www.w3.org/1999/xlink"><defs><path id="a" d="M.08.017h7.858v6.019H.08z"/><path id="c" d="M.023.124h1.129v1.224H.022z"/><path d="M.104 1.294c.23.138 19.231 12.116 27.545 19.402 0 0 2.89 2.952 3.24 3.925.072.245.192.468.365.643.68.689 2.402.863 3.06.21.657-.652.987-1.881.308-2.57a1.938 1.938 0 0 0-.49-.345c-.016-.013-1.591-1.314-2.412-2.45-.825-1.142-1.265-1.336-1.265-1.336l-1.094.75C20.998 12.231 1.927.652.976.076" id="e"/></defs><g fill="none" fill-rule="evenodd"><path d="M32.614 27.015l-1.707 1.17C26.806 22.241.375 5.607.104 5.443l.871-1.213c1.119.676 27.359 16.582 31.639 22.784" fill="#4DA446"/><path d="M32.934 26.535l-1.224.846C27.596 21.42 6.046 6.655 5.83 6.506l.236-.34.607-.875c.897.613 21.992 15.06 26.26 21.244" fill="#4DA446"/><path d="M33.371 26.383L31.71 27.39C27.57 21.39 5.325 1.47 5.1 1.268l.99-1.11c.922.824 23.041 20.081 27.281 26.225" fill="#4DA446"/><path d="M34.585 26.996a1.932 1.932 0 0 0-.49-.344c-.015-.012-1.589-1.31-2.408-2.444-.824-1.138-1.264-1.332-1.264-1.332l-2.803 1.918s2.887 2.944 3.237 3.915c.071.244.192.466.365.641.678.687 2.398.861 3.055.21.657-.65.987-1.877.308-2.564" fill="#F8F6E8"/><path d="M32.951 28.814l.947-.232c.878-.214.54.885.352 1.343-.007.015-.026.066-.003.079.58.344-.02 1.33.112 1.964.005.01.01.014.02.011.293-.11.686-.145.944-.325.01-.007.314.786.352.85.113.192.633.35.569.624-.072.304-.026.629-.057.938-.008.075.152-.122.159-.186.04-.394.003-.742.126-1.132.004-.012.027-.071.003-.079-.647-.21-.913-.673-.838-1.359.003-.025-.016-.037-.037-.022-.26.182-1.133.719-1.137-.032-.002-.417.224-.903.324-1.308.005-.022.01-.05-.018-.053-.494-.043-.177-.619-.117-.846.077-.286.056-.564.015-.853-.004-.01-.01-.013-.02-.012-.527.129-1.054.257-1.58.387-.075.017-.156.253-.116.243" fill="#C5B597"/><path d="M32.868 29.668c.358.334.646.484.574 1.066-.004.029.004.077.044.052.297-.174.604-.314.918-.453.461-.203.303-.124.088.24-.194.33-.379.658-.413 1.044-.019.223.313.498.24.66-.208.46-.24.92-.102 1.399.005.02.03.016.042.009a5.4 5.4 0 0 0 1.095-.7c.15-.122-.028.596-.042.733-.088.794.158 1.584.535 2.27.037.066.198-.148.16-.219-.547-.998-.686-2.06-.316-3.152.017-.048.001-.123-.058-.068a4.975 4.975 0 0 1-.502.436c-.899.725-.917-.305-.583-.902.016-.029.066-.12.025-.148-.715-.494.107-1.372.333-1.923.009-.023.046-.15-.026-.111-.156.082-1.22.649-1.24.429-.045-.44-.322-.615-.632-.903-.045-.043-.203.18-.14.241" fill="#C5B597"/><g transform="translate(32.825 29.077)"><mask id="b" fill="#fff"><use xlink:href="#a"/></mask><path d="M.11.262c1.002.404 1.18 1.152 1.463 2.1.243.814.76 1.287 1.502 1.657.833.416 1.554 1.12 2.407 1.46.759.301 1.537.091 2.287.549.088.054.23-.186.14-.241-.62-.38-1.26-.417-1.967-.489-.889-.09-1.704-.995-2.484-1.401C2.357 3.32 1.91 2.75 1.578 1.553 1.37.795.988.32.252.021c-.1-.04-.23.204-.14.24" fill="#C5B597" mask="url(#b)"/></g><path d="M33.923 29.147c.73.417 1.296-.343 1.841.615.352.619.481.933 1.185.765a10.365 10.365 0 0 0 1.563-.514c.102-.04.238-.096.316-.181-.01.01 1.017 1.28 1.186 1.509.05.065.204-.16.159-.22a16.616 16.616 0 0 0-1.249-1.53c-.027-.027-.086.05-.095.063-.21.263-.962.391-1.243.48-.323.099-.66.204-.998.235-.364.033-.827-1.157-1.145-1.39-.357-.262-.938.18-1.38-.073-.064-.038-.205.204-.14.24" fill="#C5B597"/><path d="M33.775 30.055c.263.403.55.612 1.042.576.568-.039.361.198.45.705.084.484.388.793.885.76.795-.051 2.766-1.716 3.2-.498.028.074.195-.13.165-.215-.717-2.004-4.211 2.728-4.129-1.097 0-.033-.009-.076-.053-.056-.603.276-1.038.16-1.396-.39-.051-.08-.211.143-.164.215M32.997 30.195c.398.31.56.679.546 1.183l.154-.18c-.346-.076-.704-.062-1.05-.138-.078-.016-.146.083-.154.148-.087.69.122 1.38.047 2.074-.125 1.15-.448.253-.58.651-.211.639-.408 1.27-.718 1.871-.078.152.089.253.169.1.162-.317.525-1.8.798-1.866.273-.066.414-.348.502-.583.165-.447.063-1.018.02-1.473-.004-.045-.03-.631-.044-.634.302.066.617.043.92.109.095.02.152-.107.154-.18.017-.59-.16-.962-.624-1.323-.1-.08-.245.16-.14.24" fill="#C5B597"/><path d="M32.787 29.586c.366.657-1.798 1.582-2.051 2.213-.512 1.272.32 3.024-.987 3.931-.082.057-.132.32 0 .229 1.328-.924.805-2.441 1.051-3.816.178-1 2.82-1.583 2.16-2.767-.057-.101-.225.117-.173.21" fill="#C5B597"/><path d="M21.386 17.45S6.553 6.53 5.829 6.14l.008.378 10.106 7.257 5.443 3.746" fill="#3B8C42"/><path d="M5.974 5.696c-.242.332-.303.7-.137.821.167.121.498-.05.74-.383.242-.332.302-.7.136-.821-.167-.121-.497.05-.74.383" fill="#327B3C"/><path fill="#3B8C42" d="M5.385.931l13.996 13.16-.064.32L5.127 1.297z"/><g transform="translate(5.03)"><mask id="d" fill="#fff"><use xlink:href="#c"/></mask><path d="M.307.49c-.27.31-.364.67-.21.806.155.136.5-.005.77-.315.271-.31.365-.67.21-.806S.577.18.307.49" fill="#327B3C" mask="url(#d)"/></g><g transform="translate(0 5)"><mask id="f" fill="#fff"><use xlink:href="#e"/></mask><path d="M.632 1.14s22.77 14.926 27.185 19.44c3.437 3.515 3.437 3.785 3.437 3.785s.572 1.373 1.846 1.396l-.573.766L-.378 1.653S.49.927.632 1.14" fill="#8E8E8D" mask="url(#f)"/></g><path d="M.443 4.654c-.458.517-.58 1.093-.274 1.284.308.191.93-.074 1.388-.592.459-.518.58-1.093.274-1.284-.308-.19-.929.073-1.388.592" fill="#327B3C"/></g></svg>