<svg width="22" height="18" xmlns="http://www.w3.org/2000/svg" xmlns:xlink="http://www.w3.org/1999/xlink"><defs><path id="a" d="M0 .088h21.927V17.91H0z"/></defs><g fill="none" fill-rule="evenodd"><mask id="b" fill="#fff"><use xlink:href="#a"/></mask><path d="M.06 12.27s-.72-5.802 2.842-9.205C6.465-.338 13.785-.672 17.053 1.296c3.268 1.97 5.949 7.172 4.445 10.507-1.504 3.336-4.528 2.113-7.204 4.097-1.715 1.272-6.495 2.73-9.855 1.609C.624 16.234.223 13.204.059 12.27" fill="#50555E" mask="url(#b)"/><path d="M13.306 2.567C11.7 1.137 2.433 2.077 2 9.263c-.035.594 1.983.945 2.75.602.653-.293.877-.801 1.387-1.27 2.259-2.073 3.554-2.343 5.728-2.326 1.564.013 3.05-2.244 1.441-3.702" fill="#66696D"/><path d="M6.96 4.303c.154.394-.15 1.03-.68 1.414-.53.385-1.084.376-1.24-.019-.155-.396.15-1.03.68-1.415s1.085-.376 1.24.02" fill="#CBCCCA"/><path d="M20.719 7.306a1.088 1.088 0 0 0-.06-.229l-.002.003c-.35-1.298-.954-2.562-1.502-3.33-.956-1.34-.797-.476-.797-.476 2.001 3 .248 5.97-.034 6.43-.715 1.163-2.072 1.26-3.186 1.528-.619.149-1.239.296-1.859.44-1.226.286-2.455.56-3.683.837-1.698.383-3.518.666-5.13 1.392-.526.237-2.006 1.161-1.26 1.838 1.814 1.644 5.918 1.478 8.442.65.84-.276 1.57-.73 2.335-1.182.801-.474 1.6-.72 2.504-.833 1.711-.213 3.565-.953 4.194-2.873.162-.493.27-1.324.31-1.811.04-.489-.054-1.49-.272-2.384" fill="#40454D"/></g></svg>