<svg width="27" height="29" xmlns="http://www.w3.org/2000/svg"><g fill="none" fill-rule="evenodd"><path d="M6 22.5c0 1.38-.896 2.5-2 2.5s-2-1.12-2-2.5.896-2.5 2-2.5 2 1.12 2 2.5" fill="#FFAD76"/><path d="M6 22.5a1.5 1.5 0 1 1-3 0 1.5 1.5 0 0 1 3 0" fill="#DB407F"/><path d="M9 24.5c0 1.38-.896 2.5-2 2.5s-2-1.12-2-2.5.896-2.5 2-2.5 2 1.12 2 2.5" fill="#FFAD76"/><path d="M9 24.5a1.5 1.5 0 1 1-3 0 1.5 1.5 0 0 1 3 0" fill="#DB407F"/><path d="M13 26.5c0 1.38-.896 2.5-2 2.5s-2-1.12-2-2.5.896-2.5 2-2.5 2 1.12 2 2.5" fill="#FFAD76"/><path d="M13 26.5a1.5 1.5 0 1 1-3 0 1.5 1.5 0 0 1 3 0" fill="#DB407F"/><path d="M13.982 23.836c-.15 1.368-1.157 2.327-2.25 2.141-1.096-.186-1.862-1.445-1.714-2.813.149-1.368 1.157-2.327 2.25-2.14 1.095.185 1.862 1.444 1.714 2.812" fill="#FFAD76"/><path d="M13.986 23.702a1.5 1.5 0 1 1-2.972-.403 1.5 1.5 0 0 1 2.972.403" fill="#DB407F"/><path d="M18.982 22.836c-.15 1.368-1.157 2.327-2.25 2.141-1.096-.186-1.862-1.445-1.714-2.813.149-1.368 1.157-2.327 2.25-2.14 1.095.185 1.862 1.444 1.714 2.812" fill="#FFAD76"/><path d="M18.986 22.702a1.5 1.5 0 1 1-2.972-.403 1.5 1.5 0 0 1 2.972.403" fill="#DB407F"/><path d="M21.982 19.836c-.149 1.368-1.157 2.327-2.251 2.141-1.094-.186-1.861-1.445-1.713-2.813.149-1.368 1.157-2.327 2.25-2.141 1.095.186 1.862 1.445 1.714 2.813" fill="#FFAD76"/><path d="M21.986 19.702a1.5 1.5 0 1 1-2.972-.403 1.5 1.5 0 0 1 2.972.403" fill="#DB407F"/><path d="M23.982 14.836c-.149 1.368-1.157 2.327-2.251 2.141-1.094-.186-1.861-1.445-1.713-2.813.149-1.368 1.157-2.327 2.25-2.14 1.095.185 1.862 1.444 1.714 2.812" fill="#FFAD76"/><path d="M22.986 14.702a1.5 1.5 0 1 1-2.972-.403 1.5 1.5 0 0 1 2.972.403" fill="#DB407F"/><path d="M10.982 20.836c-.15 1.368-1.157 2.327-2.251 2.141-1.095-.186-1.861-1.445-1.713-2.813.149-1.368 1.157-2.327 2.25-2.14 1.095.185 1.862 1.444 1.714 2.812" fill="#FFAD76"/><path d="M9.986 20.702a1.5 1.5 0 1 1-2.972-.403 1.5 1.5 0 0 1 2.972.403" fill="#DB407F"/><path d="M8.982 17.836c-.149 1.368-1.157 2.326-2.251 2.141-1.094-.186-1.861-1.445-1.713-2.813.149-1.368 1.157-2.327 2.251-2.14 1.094.185 1.861 1.444 1.713 2.812" fill="#FFAD76"/><path d="M7.986 16.702a1.5 1.5 0 1 1-2.972-.403 1.5 1.5 0 0 1 2.972.403" fill="#DB407F"/><path d="M15.982 19.836c-.15 1.368-1.157 2.327-2.251 2.141-1.095-.186-1.861-1.445-1.713-2.813.149-1.368 1.157-2.327 2.25-2.14 1.095.185 1.862 1.444 1.714 2.812" fill="#FFAD76"/><path d="M14.986 19.702a1.5 1.5 0 1 1-2.972-.404 1.5 1.5 0 0 1 2.972.404" fill="#DB407F"/><path d="M18.982 16.836c-.15 1.368-1.156 2.327-2.251 2.141-1.094-.186-1.861-1.445-1.713-2.813.149-1.368 1.157-2.327 2.25-2.141 1.095.186 1.862 1.445 1.714 2.813" fill="#FFAD76"/><path d="M18.986 15.702a1.5 1.5 0 1 1-2.972-.403 1.5 1.5 0 0 1 2.972.403" fill="#DB407F"/><path d="M11.982 16.836c-.149 1.368-1.157 2.327-2.251 2.141-1.094-.186-1.861-1.445-1.713-2.813.149-1.368 1.157-2.327 2.251-2.14 1.094.185 1.861 1.444 1.713 2.812" fill="#FFAD76"/><path d="M11.986 15.702a1.5 1.5 0 1 1-2.972-.404 1.5 1.5 0 0 1 2.972.404" fill="#DB407F"/><path d="M19 25.5c0 1.38-.895 2.5-2 2.5s-2-1.12-2-2.5.895-2.5 2-2.5 2 1.12 2 2.5" fill="#FFAD76"/><path d="M18 25.5a1.5 1.5 0 1 1-3 0 1.5 1.5 0 0 1 3 0" fill="#DB407F"/><path d="M21.074 22.002c1.104.051 1.966 1.211 1.925 2.59-.041 1.38-.97 2.457-2.073 2.406-1.104-.05-1.966-1.21-1.925-2.59.041-1.38.97-2.457 2.073-2.406" fill="#FFAD76"/><path d="M20.555 23.001a1.5 1.5 0 1 1-.11 2.998 1.5 1.5 0 0 1 .11-2.998" fill="#DB407F"/><path d="M24.074 18.002c1.104.051 1.965 1.211 1.925 2.59-.041 1.38-.97 2.457-2.073 2.406-1.104-.05-1.966-1.211-1.925-2.59.041-1.38.97-2.457 2.073-2.406" fill="#FFAD76"/><path d="M23.555 20.001a1.5 1.5 0 1 1-.11 2.998 1.5 1.5 0 0 1 .11-2.998" fill="#DB407F"/><path d="M25.074 15.002c1.104.051 1.966 1.211 1.925 2.59-.041 1.38-.97 2.457-2.073 2.406-1.104-.05-1.965-1.211-1.925-2.59.041-1.38.97-2.457 2.073-2.406" fill="#FFAD76"/><path d="M25.555 15.001a1.5 1.5 0 1 1-.11 2.998 1.5 1.5 0 0 1 .11-2.998" fill="#DB407F"/><path d="M25.074 10.002c1.104.051 1.966 1.211 1.925 2.59-.041 1.38-.97 2.457-2.073 2.406-1.104-.051-1.965-1.211-1.925-2.59.041-1.38.97-2.457 2.073-2.406" fill="#FFAD76"/><path d="M25.555 11.001a1.5 1.5 0 1 1-.11 2.998 1.5 1.5 0 0 1 .11-2.998" fill="#DB407F"/><path d="M22.029 8.08c.185-1.361 1.218-2.276 2.307-2.044 1.089.232 1.821 1.523 1.635 2.884-.185 1.361-1.218 2.276-2.307 2.044-1.089-.232-1.82-1.524-1.635-2.884" fill="#FFAD76"/><path d="M22.022 8.248a1.5 1.5 0 1 1 2.956.504 1.5 1.5 0 0 1-2.956-.504" fill="#DB407F"/><path d="M19.029 4.08c.185-1.361 1.219-2.276 2.307-2.044 1.089.232 1.821 1.523 1.635 2.884-.186 1.361-1.219 2.276-2.307 2.044-1.089-.232-1.82-1.524-1.635-2.884" fill="#FFAD76"/><path d="M19.022 4.248a1.5 1.5 0 1 1 2.956.504 1.5 1.5 0 0 1-2.956-.504" fill="#DB407F"/><path d="M15.029 3.08c.186-1.36 1.219-2.276 2.307-2.044 1.089.232 1.82 1.523 1.635 2.884-.186 1.361-1.219 2.276-2.307 2.044-1.089-.232-1.82-1.523-1.635-2.884" fill="#FFAD76"/><path d="M16.022 3.248a1.5 1.5 0 1 1 2.956.504 1.5 1.5 0 0 1-2.956-.504" fill="#DB407F"/><path d="M11.029 2.08C11.214.719 12.247-.196 13.336.036c1.089.232 1.82 1.523 1.635 2.884-.186 1.361-1.219 2.276-2.307 2.044-1.089-.232-1.82-1.524-1.635-2.884" fill="#FFAD76"/><path d="M12.022 2.248a1.5 1.5 0 1 1 2.956.504 1.5 1.5 0 0 1-2.956-.504" fill="#DB407F"/><path d="M7.591 5.947C6.51 5.664 5.817 4.34 6.043 2.989 6.268 1.638 7.328.77 8.409 1.053c1.081.283 1.774 1.607 1.548 2.958-.226 1.351-1.285 2.218-2.366 1.936" fill="#FFAD76"/><path d="M7.193 4.968a1.5 1.5 0 1 1 .614-2.936 1.5 1.5 0 0 1-.614 2.936" fill="#DB407F"/><path d="M4.59 7.947C3.51 7.665 2.818 6.34 3.044 4.989c.225-1.351 1.285-2.218 2.366-1.936 1.081.283 1.774 1.607 1.548 2.958-.226 1.351-1.285 2.218-2.366 1.936" fill="#FFAD76"/><path d="M5.193 6.968a1.5 1.5 0 1 1 .613-2.936 1.5 1.5 0 0 1-.613 2.936" fill="#DB407F"/><path d="M2.591 11.947C1.51 11.664.817 10.34 1.043 8.989c.225-1.351 1.285-2.218 2.366-1.936 1.081.283 1.774 1.607 1.548 2.958-.226 1.351-1.285 2.218-2.366 1.936" fill="#FFAD76"/><path d="M2.193 10.968a1.5 1.5 0 1 1 .613-2.935 1.5 1.5 0 0 1-.613 2.935" fill="#DB407F"/><path d="M1.591 16.947C.51 16.664-.183 15.34.043 13.989c.225-1.351 1.285-2.218 2.366-1.936 1.08.283 1.774 1.607 1.548 2.958-.226 1.351-1.285 2.218-2.366 1.936" fill="#FFAD76"/><path d="M1.193 15.968a1.5 1.5 0 1 1 .614-2.936 1.5 1.5 0 0 1-.614 2.936" fill="#DB407F"/><path d="M2.591 21.947c-1.08-.282-1.774-1.607-1.548-2.958.226-1.351 1.285-2.218 2.366-1.936 1.081.283 1.774 1.607 1.548 2.958-.226 1.351-1.285 2.218-2.366 1.936" fill="#FFAD76"/><path d="M2.193 20.968a1.5 1.5 0 1 1 .614-2.936 1.5 1.5 0 0 1-.614 2.936" fill="#DB407F"/></g></svg>