<svg width="29" height="30" xmlns="http://www.w3.org/2000/svg" xmlns:xlink="http://www.w3.org/1999/xlink"><defs><path id="a" d="M0 .07h28.971v25.548H0z"/><path id="c" d="M.124.122h12.798v7.707H.124z"/></defs><g fill="none" fill-rule="evenodd"><g transform="translate(0 4)"><mask id="b" fill="#fff"><use xlink:href="#a"/></mask><path d="M28.93 13.907c-.524 8.145-7.287 12.238-15.265 11.656C5.688 24.98-.561 21.102.04 11.798.644 2.428 7.327-.44 15.306.142c7.977.584 14.233 4.326 13.624 13.765" fill="#315776" mask="url(#b)"/></g><g transform="translate(9)"><mask id="d" fill="#fff"><use xlink:href="#c"/></mask><path d="M3.206 7.751C2.554 7.084.483 2.88.124 2.58l2.695.27.235-2.727s1.54 1.624 1.752 2.256c0 0 1.05-1.637 1.134-1.974.085-.336.934 2.2.934 2.2S8.467.387 8.914.282c.448-.102.353 2.43.353 2.43s1.999-.674 2.438-.64c.44.031-.313 1.965-.313 1.965s.821-.007 1.457-.097c.637-.09-3.121 3.473-3.085 3.889L3.206 7.75z" fill="#315776" mask="url(#d)"/></g><path d="M18.99 8.3c-.151 1.909-2.468 2.846-5.224 2.682-2.757-.166-4.929-1.098-4.756-3.278.173-2.195 2.47-2.845 5.226-2.68 2.754.164 4.929 1.064 4.754 3.276" fill="#6096B9"/><path d="M15.998 9.1c-.029.636-.494.948-1.045.894-.55-.055-.985-.365-.951-1.09.036-.737.493-.95 1.045-.896.551.057.986.358.951 1.093M25.707 12c.037 6.614-5.748 10.938-13.28 11.767-3.954.435-7.619.08-10.427-1.399 2.314 2.212 5.823 3.313 9.796 3.584 7.404.508 13.68-3.055 14.166-10.143.098-1.414.003-2.68-.255-3.809" fill="#315776"/><path d="M12.223 8.593c.69-.703 1.9-1.496 4.777-1.028-.598-.319-1.383-.488-2.25-.546-1.975-.13-3.62.385-3.743 2.128-.06.834.274 1.437.854 1.853-.086-.633-.173-1.862.362-2.407M10.062 11c-1.136.722-1.061 3-1.061 3L12 12.488 10.062 11z" fill="#315776"/><path d="M10.016 13c-.083 1.15.178 3 .178 3L12 13.656 10.016 13zM18.299 11c.633.96.701 3 .701 3l-2-1.47L18.299 11z" fill="#315776"/><path d="M11 14c.32 1.013.354 3 .354 3L13 14.519 11 14zM17 14.755c.802.638 1.862 2.245 1.862 2.245L19 14l-2 .755z" fill="#315776"/><path d="M8.455 14.56c-.756.69-2.021.553-2.826-.31-.805-.86-.842-2.12-.085-2.81.757-.691 2.024-.553 2.827.309.804.861.842 2.12.084 2.812" fill="#347396"/><path d="M4.68 11.737a1.002 1.002 0 0 1-1.413-.06.998.998 0 1 1 1.467-1.355c.375.407.35 1.04-.054 1.415" fill="#E0EBF2"/></g></svg>