<svg width="37" height="38" xmlns="http://www.w3.org/2000/svg" xmlns:xlink="http://www.w3.org/1999/xlink"><defs><path id="a" d="M0 .127h36.995v37.86H0z"/><path id="c" d="M.127.082h34.83V19H.126z"/></defs><g fill="none" fill-rule="evenodd"><mask id="b" fill="#fff"><use xlink:href="#a"/></mask><path d="M36.995 19.057c0 10.454-8.282 18.93-18.497 18.93C8.282 37.987 0 29.51 0 19.057 0 8.602 8.282.127 18.498.127c10.215 0 18.497 8.475 18.497 18.93" fill="#4B7938" mask="url(#b)"/><path d="M22.265 7.89c.264 4.052.663 7.735 0 13.077-.662 5.341-.819 7.551-1.798 10.296A674.168 674.168 0 0 1 18 37.993l.367.007c.134-.272.23-.549.23-.784 0-.787 4.49-3.88 6.925-11.318 2.434-7.437 1.296-6.773.56-12.299-.735-5.525-.746-3.868-1.487-7.55-.438-2.177-1.416-3.566-2.243-4.975A16.33 16.33 0 0 0 21.963 1c.099.375.2.77.302 1.18.597 2.394-.263 1.658 0 5.71M5 32c-1.068-1.256-1.645-2.794-2.409-4.28C2.067 26.7 1.224 25.622 1 25a17.7 17.7 0 0 0 4 7M6.105 33.091a1.632 1.632 0 0 0-.21-.182l.21.182M12.383 32.67c-1.919-1.99-3.646-3.201-4.414-6.17-.767-2.97-1.343-5.635-1.15-6.593.191-.96-1.152-1.325 1.534-6.091 2.687-4.766 1.728-4.95 5.181-6.6C16.988 5.568 18.464 3.905 20 .056A18.266 18.266 0 0 0 18.558 0v.61s-7.854 5.873-10.54 7.706c-2.687 1.834-3.095 1.834-4.247 5.5-1.15 3.666-2.89 1.76-.779 6.104S6.25 26.473 7.4 28.3c1.151 1.828-.292 3.723 2.826 5.709 3.12 1.985 1.75-.396 3.886 1.972.264.293.53.571.792.833.426.076.856.136 1.29.185-1.29-1.527-2.839-3.321-3.811-4.33" fill="#85B540"/><path d="M3.745 10.477c1.27-2.456 6.89-6.425 8.885-7.18C13.589 2.932 13.71 2.044 14 1 5.965 3.04 0 10.59 0 19.593 0 21.47.261 23.285.745 25c-.568-2.37 1.76-12.123 3-14.523M31.21 24.589c0-2.382 1.778-1.65 0-6.596-1.779-4.946-.178-2.565-2.49-10.442-.467-1.59-1.02-2.836-1.622-3.83A17.726 17.726 0 0 0 23.612 2c.46.54.88 1.065 1.2 1.52C26.23 5.536 26.23 6.27 27.12 9.932c.89 3.665.178.26 1.423 7 1.245 6.741.356 5.256-2.134 10.12-2.49 4.865-4.38 5.555-5.87 8.513C19.996 36.646 19.462 37.434 19 38c.332-.026.662-.062.99-.106 2.034-1.468 3.652-3.313 5.885-5.145 3.023-2.481 5.335-5.778 5.335-8.16M20.37 1.69s-.494 4.321-.777 5.789c-.282 1.467-.375 2.527-1.175 4.239-.802 1.712-.391.571-.914 3.994-.523 3.425-.316 3.392-.455 6.995s.068 3.114 0 6.62c-.068 3.505.554 4.507.455 6.207-.039.66-.116 1.574-.196 2.444.102.009.204.016.306.022.315-1.469.671-3.142.804-3.828.258-1.34 1.891-5.253 1.604-7.617-.287-2.364.217-4.728 0-7.093-.216-2.363.076-1.549 0-5.298-.075-3.75-.377-4.565.056-6.685.434-2.12 1.14-3.343.857-5.136a12.287 12.287 0 0 0-.274-1.286c-.127-.02-.255-.04-.383-.057l.093.69zM27 35a37.25 37.25 0 0 0 2-1c-.81.39-1.453.708-2 1" fill="#85B540"/><path d="M32.417 5c.178.71.254 1.284.399 1.957.366 1.708 1.39 3.823 1.39 4.88 0 1.058.073 1.79 0 4.393-.073 2.603.724 3.742.033 5.938-.691 2.196-.838 3.416-1.496 5.124-.659 1.708-.952 1.774-1.317 3.213-.21.826-.203 1.167-.426 1.495 3.667-3.4 6-8.515 6-14.237 0-4.946-1.743-9.44-4.583-12.763M16.766 7.083C14.34 8.126 8.84 15.404 10.22 22.74c1.063 5.653 4.377 12.428 5.84 15.239l.29.022c-.413-1.34-.982-3.374-.982-4.408 0-1.619-1.428-5.35-2.244-7.513-.816-2.165-.204-9.757 0-12.692.204-2.934 3.263-3.668 4.817-4.769C19.49 7.518 19.999 1.008 20 1c-.67 2.93-.806 5.04-3.234 6.083" fill="#85B540"/><g opacity=".625" transform="translate(2 19)"><mask id="d" fill="#fff"><use xlink:href="#c"/></mask><path d="M34.865.28c-1.031-.745-4.021.8-4.973 1.514-.953.714-9.747 5.194-12.452 5.43-2.706.236-4.69 1.596-8.34.837-3.65-.76-7.3-1.76-8.174-1.262C.05 7.298.129 8.061.129 8.061s2.415 6.116 8.272 8.887c5.857 2.772 13.56 3.494 20.66-2.722 7.1-6.217 5.802-13.31 5.802-13.31l.002-.636z" fill="#4B7938" mask="url(#d)"/></g></g></svg>