<svg width="47" height="42" xmlns="http://www.w3.org/2000/svg" xmlns:xlink="http://www.w3.org/1999/xlink"><defs><path id="a" d="M0 .027h18.963V10.96H0z"/><path id="c" d="M.08.056h22.892V18H.081z"/><path d="M27.691 22.492s1.205 1.171-1.372-.043c-2.09-.985-8.362-5.505-11.388-7.823a15.939 15.939 0 0 1-2.265 1.475c-2.885 1.556-6.596 1.473-9.431-.157C.64 14.452-.183 11.365.212 8.547c.136-.97.416-1.906.818-2.736.578-1.193 1.466-2.243 2.548-3.108 4.239-3.385 11.46-3.938 14.747.864 1.747 2.552 1.15 6.67-2.157 9.968 2.922 2.704 6.07 5.579 6.548 5.905a69.967 69.967 0 0 0 4.975 3.052z" id="e"/></defs><g fill="none" fill-rule="evenodd"><path d="M19.012 17.589c-2.102.115-2.806 1.16-5.141-.608-2.336-1.768-2.57-1.155-2.443-4.606.042-1.178.35-2.476.023-3.63-.367-1.297-1.386-2.413-1.448-3.79-.075-1.664 1.178-3.32 2.491-4.348 1.684-1.319 2.384-.301 3.064 1.263.94 2.16 2.062 3.715 3.942 5.25.752.613 1.464 1.19 1.612 2.16.132.871-.42 1.6-.642 2.405-.22.804-.062 1.421.238 2.191.089.229 1.81 3.705 1.135 3.706l-2.831.007" fill="#5C9641"/><path d="M21.754 18.653c1.3.918 5.094-.133 5.806-1.426.785-1.424 2.663-.556.253-4.36-2.41-3.805-4.546-4.747-4.49-6.702.057-1.955-.584-4.841-2.17-4.976-1.587-.134-5.308-.973-6.499 2.41-1.19 3.384-.673 5.918.88 8.19.935 1.368 1.77 3.011 3.064 4.06.575.466 1.256.772 1.83 1.236.544.439.74 1.08 1.246 1.506.025.021.052.042.08.062M15.419 23.986c1.038.19 3.048-1.631 3.127-2.67.086-1.144 1.46-1.161-1.037-2.85-2.499-1.689-4.05-1.64-4.548-2.9-.5-1.26-1.675-2.902-2.674-2.506-.996.396-3.478.993-3.275 3.507.203 2.514 1.207 3.969 2.769 4.942.939.586 1.892 1.378 2.962 1.651.475.122.971.11 1.446.231.45.114.742.462 1.165.58.02.006.043.011.065.015" fill="#5C9641"/><path d="M14.419 15.986c1.039.19 3.048-1.631 3.127-2.67.086-1.144 1.46-1.162-1.038-2.85-2.497-1.689-4.047-1.64-4.547-2.9S10.285 4.664 9.288 5.06c-.997.396-3.48.993-3.276 3.507.202 2.514 1.207 3.969 2.768 4.943.94.585 1.894 1.377 2.963 1.65.476.122.97.11 1.446.231.449.114.741.463 1.165.58.02.007.043.011.065.015" fill="#5C9641"/><g transform="translate(0 9)"><mask id="b" fill="#fff"><use xlink:href="#a"/></mask><path d="M18.963 10.282c-1.282.063-2.713.333-4.692.63-1.979.296-.865-.866-2.647-1.905-1.782-1.04-3.04-.772-4.503-.481-1.463.29-4.204.313-5.953-1.517C.054 5.844-.008 3.941 0 2.435.014.586.426-.112 2.38.05 4.186.2 6.304.519 7.967 1.277c2.087.95 3.816-.171 5.988.396 2.17.567 4.433 1.734 4.447 3.153.013 1.419.293 1.677.425 3.567l.135 1.889z" fill="#5C9641" mask="url(#b)"/></g><path d="M31.57 33l-.265-.163c-.079-.046-.211-.134-.357-.23-.152-.097-.302-.208-.476-.333a12.062 12.062 0 0 1-1.172-.995 13.17 13.17 0 0 1-1.293-1.459 21.067 21.067 0 0 1-1.235-1.825c-.397-.65-.784-1.328-1.187-2.008-.402-.68-.824-1.36-1.288-2.019a18.312 18.312 0 0 0-.356-.489c-.06-.081-.123-.16-.185-.24l-.093-.12-.024-.03-.011-.015c.004.004-.017-.02.007.007l-.007-.008-.05-.062-.204-.249-.102-.125-.097-.112c-.13-.15-.258-.302-.399-.451a15.519 15.519 0 0 0-.856-.866c-.3-.272-.603-.537-.92-.78a13.873 13.873 0 0 0-1.995-1.28 24.62 24.62 0 0 0-2.07-.963c-.68-.284-1.335-.544-1.942-.789a53.35 53.35 0 0 1-2.912-1.26 36.522 36.522 0 0 1-.8-.391L11 15.603l.29-.603.288.115c.186.076.462.183.814.316.705.264 1.72.612 2.962.993.621.192 1.299.394 2.019.626.72.234 1.484.494 2.263.83.78.33 1.571.74 2.33 1.228.382.243.749.511 1.111.788a17.423 17.423 0 0 1 1.541 1.36l.124.122.113.116.225.23.056.059.069.076.113.126c.074.084.15.168.222.253.147.17.29.34.43.513.558.688 1.06 1.39 1.524 2.065.464.674.892 1.319 1.305 1.9.412.583.812 1.101 1.2 1.543a9.788 9.788 0 0 0 2.076 1.81c.14.085.266.168.367.221.104.06.182.107.282.157l.276.145L31.57 33z" fill="#84BB53"/><path d="M33.2 32l-.208-.136a11.058 11.058 0 0 1-1.526-1.2 12.163 12.163 0 0 1-1.05-1.119c-.36-.43-.719-.919-1.07-1.446a33.512 33.512 0 0 1-1.035-1.678c-.683-1.168-1.366-2.405-2.148-3.552-.097-.144-.197-.285-.296-.427l-.152-.209-.146-.199-.636-.841c-.213-.264-.42-.528-.634-.783-.218-.25-.43-.505-.652-.736a15.704 15.704 0 0 0-1.336-1.281c-.45-.387-.903-.772-1.271-1.182a10.563 10.563 0 0 1-.923-1.172c-.256-.36-.449-.693-.62-.959L19 14.223l.32-.223.546.803c.184.246.395.556.664.881.26.335.578.684.943 1.034s.802.67 1.289 1.028c.486.357.996.77 1.488 1.23.252.225.49.471.736.715.243.25.48.512.724.772l.692.789.177.221.169.215c.11.144.221.288.329.435.867 1.17 1.617 2.412 2.33 3.527.357.557.704 1.086 1.05 1.561.346.477.689.904 1.023 1.274.333.37.658.681.958.939a9.364 9.364 0 0 0 1.348.973l.214.127L33.2 32zM31.159 33s-.08-.05-.233-.141l-.127-.077-.165-.107a11.813 11.813 0 0 1-2.58-2.227 15.834 15.834 0 0 1-1.164-1.53c-.378-.557-.742-1.15-1.115-1.752a44.036 44.036 0 0 0-1.172-1.815 23.243 23.243 0 0 0-.981-1.328l-.08-.1-.09-.11c-.062-.077-.117-.14-.174-.205a7.19 7.19 0 0 0-1.58-1.377 6.523 6.523 0 0 0-1.879-.789c-.656-.169-1.325-.255-1.975-.35-.648-.095-1.28-.204-1.85-.394a5.088 5.088 0 0 1-1.46-.743 5.256 5.256 0 0 1-.91-.86A7.044 7.044 0 0 1 13 18.22l.338-.22.155.215c.105.137.26.337.48.568a4.502 4.502 0 0 0 2.202 1.307c.52.14 1.112.207 1.756.26.643.056 1.345.101 2.077.242.731.137 1.49.385 2.196.771a8.261 8.261 0 0 1 1.913 1.47c.072.073.147.149.208.216l.097.105.024.026.031.035.048.055a24.424 24.424 0 0 1 1.091 1.35c.46.608.885 1.223 1.286 1.811.402.589.783 1.15 1.16 1.656.375.507.748.956 1.115 1.343a10.234 10.234 0 0 0 2.315 1.829l.139.081.13.072.239.13L31.159 33z" fill="#84BB53"/><path d="M32.862 32l-.192-.122-.105-.067c-.04-.025-.078-.047-.135-.09l-.37-.265c-.13-.099-.256-.207-.401-.327-.142-.12-.283-.257-.44-.4-.147-.147-.304-.304-.462-.473-.153-.172-.321-.348-.477-.542-.326-.38-.64-.81-.964-1.267a24.142 24.142 0 0 1-.934-1.471 31.031 31.031 0 0 1-1.674-3.325 38.586 38.586 0 0 1-1.298-3.443 40.037 40.037 0 0 1-.485-1.614 36.36 36.36 0 0 1-.635-2.705c-.07-.372-.128-.696-.169-.965-.045-.268-.07-.48-.09-.624L24 14.08l.52-.08.048.214c.032.139.074.344.14.602.063.26.146.572.245.93.102.358.222.76.362 1.195.14.435.303.904.484 1.396a38.812 38.812 0 0 0 2.145 4.767 30.004 30.004 0 0 0 1.861 3.038c.323.465.658.895.98 1.295.33.391.647.757.96 1.066.151.16.308.298.45.436.147.133.29.253.422.366.137.104.262.208.381.294.12.081.232.164.328.225.09.056.172.105.243.148.03.02.079.045.119.067l.11.058.202.106L32.862 32z" fill="#84BB53"/><path d="M22.43 20.77c4.202-3.552 11.362-4.133 14.62.905 2.226 3.442.615 9.6-5.611 13.152-2.86 1.632-6.54 1.546-9.35-.164-2.571-1.566-3.388-4.805-2.996-7.762.135-1.017.412-2 .81-2.87.574-1.252 1.454-2.354 2.527-3.261" fill="#FCFBE6"/><g transform="translate(24 24)"><mask id="d" fill="#fff"><use xlink:href="#c"/></mask><path d="M5.6.056s-.656 2.264.218 3.163c.872.9 10.954 10.483 11.845 11.105a70.449 70.449 0 0 0 5.025 3.152s1.217 1.209-1.386-.045C18.698 16.177 9.661 9.365 8.287 8.124 6.913 6.882 4.575 4.403 2.783 3.955.991 3.507.013 3.468.084 2.762.155 2.057 5.6.056 5.6.056" fill="#FCFBE6" mask="url(#d)"/></g><path d="M31.525 34.08c-.148.216-.369.315-.496.554-.083.155.025.368.17.366a.793.793 0 0 0 .368-.086c.1-.053.19-.118.294-.155.244-.086.14-.554-.105-.468-.195.068-.35.22-.557.223l.17.365c.046-.085.122-.13.19-.187a1.36 1.36 0 0 0 .245-.268c.164-.237-.114-.582-.279-.343M32.542 33.893c.061-.073.12-.146.182-.219.02-.022.05-.048.064-.073.073-.13.154.146-.21.008l-.196-.142c-.08-.132-.038-.031-.064.09-.084.387.55.554.634.163.054-.251.141-.67-.254-.717-.293-.035-.467.271-.621.453-.26.309.202.75.465.437" fill="#826B37"/><path d="M32 34.086c.116 0 .117-.172 0-.172-.116 0-.117.172 0 .172M33.312 32.919c.09-.14.28-.485.45-.456.101.018.201-.031.232-.165.025-.11-.03-.273-.132-.29-.356-.06-.61.253-.817.577-.15.235.115.571.267.334M33.31 33.956c.188-.159.404-.23.592-.395.227-.2.019-.717-.21-.515-.188.166-.404.235-.592.396-.23.194-.021.71.21.514M33.483 31.94l.366-.26c.353-.252.024-.874-.332-.62l-.366.26c-.353.252-.024.874.332.62M26.204 35.997c.242-.05.478-.096.692-.31.239-.237.023-.873-.217-.634-.145.143-.31.174-.475.208-.27.056-.274.793 0 .736M28 36.086c.116 0 .117-.172 0-.172-.116 0-.117.172 0 .172" fill="#826B37"/><path d="M27.196 36.101l.609-.03c.259-.012.262-.184 0-.172l-.61.03c-.259.011-.262.184 0 .172" fill="#826B37"/><path d="M27.291 36.102c.212.008.392-.01.568-.042.33-.06.022-.21-.309-.15a.959.959 0 0 1-.259.02c-.39-.014-.386.159 0 .172M28.08 34.437l-.02.286c.096-.27.006-.93-.092-.659-.069.194-.09.448-.044.758.062.414.218.03.156-.385M30 34.086c.116 0 .117-.172 0-.172-.116 0-.117.172 0 .172M30.448 34.12c-.14.195-.352.338-.433.565-.113.316.451.45.565.136.056-.157.272-.3.373-.441.202-.28-.304-.54-.505-.26M35.446 31.12c-.14.193-.358.336-.433.563-.105.318.462.454.567.136.051-.156.272-.301.373-.44.203-.28-.305-.538-.507-.26M30 36.086c.116 0 .117-.172 0-.172-.116 0-.117.172 0 .172" fill="#826B37"/><path d="M28 36.086c.116 0 .117-.172 0-.172-.116 0-.117.172 0 .172M36.65 28.806c.047-.148.202-.274.299-.402.224-.3-.348-.574-.57-.275-.133.176-.301.328-.367.533-.108.34.53.484.638.144M37 27.086c.116 0 .117-.172 0-.172-.116 0-.117.172 0 .172M36.701 30.063c-.179.224-.38.432-.618.592-.194.13-.012.444.182.314.266-.178.493-.4.692-.65.144-.18-.11-.44-.256-.256" fill="#826B37"/><path d="M35.907 31.422c.01.1-.001.23.01.345.044.413.219.232.175-.186-.01-.096.001-.232-.01-.345-.042-.417-.217-.236-.175.186" fill="#826B37"/><g transform="translate(19 19)"><mask id="f" fill="#fff"><use xlink:href="#e"/></mask><path d="M-1.18 9.725l1.627-2.33s1.689 5.862 2.754 6.83c1.066.97 6.75 3.228 11.517.238l.326-.334s4.153 2.408 4.24 3.09c.085.682 7.802 5.424 8.246 5.725.445.3-11.48-4.423-11.48-4.423s-9 .958-9.651.958c-.652 0-6.28-2.95-6.28-2.95l-1.3-6.804z" fill="#ECECCD" mask="url(#f)"/></g></g></svg>