<svg width="20" height="46" xmlns="http://www.w3.org/2000/svg" xmlns:xlink="http://www.w3.org/1999/xlink"><defs><path id="a" d="M.109.052h3.93V6.77H.11z"/><path d="M1.546.046S.449.562 1.25 1.181c.8.62.106 1.65 0 2.652-.107 1-1.343 1.505-1.15 1.716.626.69 2.788.445 2.848.12.068-.376-.178-.757-.13-2.448C2.857 1.78 2.582.939 2.584.88" id="c"/><path d="M9.275.117c-2.26.18-3.352 1.498-4.664 3.418-1.312 1.92-.073 14.168-.364 15.922-.292 1.754 0 4.575-3.12 9.912-3.12 5.338 1.602 10.3 3.193 11.071 1.018.495 2.193.46 4.446.426a94.945 94.945 0 0 1 4.37.016c5.392.152 8.598-7.777 5.684-11.894-2.915-4.117-2.915-15.173-2.77-20.587.14-5.209-3.3-8.298-6.41-8.298a4.58 4.58 0 0 0-.365.014" id="e"/></defs><g fill="none" fill-rule="evenodd"><path d="M9.274 5.564c3.2-.252 6.922 2.839 6.776 8.193-.145 5.355-.145 16.29 2.77 20.362 2.914 4.072-.292 11.915-5.684 11.765-5.392-.151-7.283.3-8.816-.438-1.591-.763-6.313-5.67-3.193-10.95 3.12-5.28 2.828-8.07 3.12-9.804.29-1.734-.948-13.849.364-15.748 1.312-1.899 2.405-3.203 4.663-3.38" fill="#EFCD95"/><path d="M7.52 6.055s-.488.17-.686.446c-.199.277-.01.098-.01.098s.42-.1.942-.016c0 0-.092-.26-.03.27 0 0 .492-.068.907.105 0 0 .46.203.771.463 0 0 1.117-.353 1.813-.38.038-.002-.035-.002 0 0 .697.03 1.296.38 1.296.38s-.134-.814-.47-.828c0 0 .16-.282.558-.129 0 0-1.829-.784-2.609-.764-.78.02-2.482.355-2.482.355" fill="#DCB377"/><g transform="translate(7.836)"><mask id="b" fill="#fff"><use xlink:href="#a"/></mask><path d="M4.023 6.404C3.94 6.773.99 7.048.137 6.27c-.264-.238 1.422-.809 1.568-1.94.146-1.131 1.093-2.296 0-2.996C.612.634 2.11.052 2.11.052s1.464 0 1.418.942c-.003.067.373 1.017.318 2.645-.066 1.91.27 2.341.178 2.765" fill="#687F36" mask="url(#b)"/></g><g transform="translate(8)"><mask id="d" fill="#fff"><use xlink:href="#c"/></mask><path d="M1.548.1c.276-.114.279.063.335.251.057.188.147.533 0 .643-.147.11-.403.269-.487.298-.083.029-.307-.152-.365-.274C.972.897.748.43 1.548.1" fill="#5E6C2F" mask="url(#d)"/></g><g transform="translate(0 5)"><mask id="f" fill="#fff"><use xlink:href="#e"/></mask><path d="M17.656 39.606c2.331-1.802 4.828-4.956 3.983-6.783-.942-2.038-2.703.85-3.302 2.424-.406 1.066-.587 1.924-1.737 2.258-1.284.374-2.846.19-4.172.308-.879.078-1.715.183-2.59.058-1.723-.248-3.427-.614-5.146-.88-1.314-.202-1.715-.128-2.679-1.22-.735-.837-1.471-2.849-1.929-3.838-.705 1.368-2.645 7.29-.888 8.21 1.36.711 2.04.663 4.663 1.094 2.624.43 6.122 1.537 7.481.933 1.36-.604 1.75-.653 3.498-.933 1.75-.28 2.818-1.631 2.818-1.631" fill="#D6AD72" mask="url(#f)"/></g></g></svg>