<svg width="45" height="38" xmlns="http://www.w3.org/2000/svg" xmlns:xlink="http://www.w3.org/1999/xlink"><defs><path d="M16.296 2.004C8.603 6.461-.634 16.103.034 23.354c.67 7.253 16.47 14.078 25.686 14.532 9.217.453 16.437-10.144 17.27-16.76 0 0 1.3 1.092 1.562 0 .26-1.093.755-5.149-.568-8.673-1.323-3.525-2.42-4.42-2.804-4.367-.178.025-.366-.086-.605-.196-.278-.128-.623-.257-1.096-.172l-1.415-1.572C34.797 2.797 29.408.005 23.866.005c-2.555 0-5.142.593-7.57 2" id="a"/><path d="M16.296 2.004C8.603 6.461-.634 16.103.034 23.354c.67 7.253 16.47 14.078 25.686 14.532 9.217.453 16.437-10.144 17.27-16.76 0 0 1.3 1.092 1.562 0 .26-1.093.755-5.149-.568-8.673-1.323-3.525-2.42-4.42-2.804-4.367-.178.025-.366-.086-.605-.196-.278-.128-.623-.257-1.096-.172l-1.415-1.572C34.797 2.797 29.408.005 23.866.005c-2.555 0-5.142.593-7.57 2" id="c"/><path d="M16.296 2.004C8.603 6.461-.634 16.103.034 23.354c.67 7.253 16.47 14.078 25.686 14.532 9.217.453 16.437-10.144 17.27-16.76 0 0 1.3 1.092 1.562 0 .26-1.093.755-5.149-.568-8.673-1.323-3.525-2.42-4.42-2.804-4.367-.178.025-.366-.086-.605-.196-.278-.128-.623-.257-1.096-.172l-1.415-1.572C34.797 2.797 29.408.005 23.866.005c-2.555 0-5.142.593-7.57 2" id="e"/></defs><g fill="none" fill-rule="evenodd"><path d="M38.181 6.158c-4.788-4.905-14.118-8.622-21.835-4.153C8.63 6.475-.635 16.143.034 23.414.706 30.686 16.554 37.53 25.8 37.986c9.245.454 16.488-10.172 17.324-16.807 0 0 1.304 1.096 1.566 0 .261-1.095.757-5.162-.57-8.696-1.326-3.535-2.427-4.432-2.813-4.38-.385.054-.825-.526-1.705-.368l-1.42-1.577z" fill="#CDC58D"/><mask id="b" fill="#fff"><use xlink:href="#a"/></mask><path d="M10.703 2.778c-.375.108-1.02 2.718-1.18 3.15-1.045 2.83-2.493 5.707-2.676 8.74-.153 2.544.518 5.013 1.341 7.408 1.34 3.903 2.472 9.316 5.645 12.278 2.658 2.48 7.35 3.863 10.943 4.393 3.73.55 15.69-1.659 15.69-1.659L48.2 14.356S42.882 3.072 42.113 2.778c-.768-.294-11.046-4.592-12.216-4.893-1.17-.301-19.166 4.885-19.194 4.893" fill="#6E3160" mask="url(#b)"/><g><mask id="d" fill="#fff"><use xlink:href="#c"/></mask><path d="M42.634 7.824c-1.18-.474-1.4-.25-1.126.822.275 1.07.824 5.795 1.318 7.352.493 1.557.768 4.672.878 4.85.11.18.274 1.073.603 1.179.33.105.768.736 1.152-.316.384-1.052.578-4.313.29-6.997-.29-2.682-3.115-6.89-3.115-6.89" fill="#CDC58D" mask="url(#d)"/></g><g><mask id="f" fill="#fff"><use xlink:href="#e"/></mask><path d="M42.665 26.457c-1.673.756-3.76 1.181-5.332 2.77-1.572 1.588-2.109 4.301-8.95 4.423-6.842.123-7.78.264-11.001 0-3.22-.263-3.622-.308-6.573-.35-2.951-.041-7.244 2.605-5.5 3.854 1.744 1.25 4.293 5.16 15.83 4.17 11.536-.991 13.07.861 16.194-3.409 3.123-4.27 5.655-4.342 5.73-6.235.076-1.894-.398-5.223-.398-5.223" fill="#636363" mask="url(#f)"/></g><g fill="#30122C"><path d="M35.915 6.782s-.254 5.611 0 6.327c0 0-1.115-5.447-.811-6.327.304-.88.851-1.037.81 0M36.725 8.707c0 1.706-.102 6.822.76 7.703.862.88 1.166 2.585 1.217 3.411.05.825.557 1.595.557 0 0-1.596-.809-3.742-1.088-4.401-.28-.66-.736-3.081-.585-4.017.153-.935-.857-3.961-.86-2.696M38.397 8.157c.051 1.046-.152 4.676.456 6.052.609 1.376.811 2.446 1.42 3.726.608 1.28.506 1.886.912 1.776.405-.11 1.05-.44.651-1.155-.398-.716-.6-.936-.905-1.706-.304-.77-.963-2.586-1.013-3.741-.051-1.155 0-2.09-.051-2.971-.05-.88-1.478-2.916-1.47-1.98M36.721 15.695c.17.656.919 3.466 1.45 3.796.465.288 1.22 3.686 1.165 4.866-.009.169-.033.292-.077.355-.355.5-.304.245-.507-1.553s-1.267-3.008-1.621-4.164c-.355-1.155-.569-3.915-.41-3.3"/></g></g></svg>