<svg width="44" height="31" xmlns="http://www.w3.org/2000/svg" xmlns:xlink="http://www.w3.org/1999/xlink"><defs><path id="a" d="M0 .027h43.863V30H0z"/></defs><g fill="none" fill-rule="evenodd"><g transform="translate(0 1)"><mask id="b" fill="#fff"><use xlink:href="#a"/></mask><path d="M17.193 3.27C11.931 1.03 10.19 1.12 7.186 2.821c-3.005 1.7-9.99 5.28-5.971 18.26 4.019 12.978 23.92 7.966 23.92 7.966s10.333.448 13.586-3.58c3.253-4.029 10.524-15.486-1.627-21.214 0 0-2.296-3.312-6.602-3.133 0 0-5.162-2.685-8.56.358 0 0-4.26.627-4.739 1.79" fill="#EF5122" mask="url(#b)"/></g><path d="M26 9.404s3.815-1.617 7.73 1.617c3.916 3.234 2.41 9.616-1.807 9.956-4.216.34-1.004-3.212-2.41-5.988C28.109 12.213 26 9.404 26 9.404M29 6.933S40.683 7.954 41.161 15c0 0 3.869-3.743-5.011-9.058 0 0-6.413-2.675-7.15.991M17.047 13.303c-.856-.281-1.843.106-2.724.113-1.146.01-2.298-.276-3.37-.614-.836-.264-2.163-1.041-3.091-.73-1.284.432-1.795 3.08-1.855 4.136-.124 2.15 1.52.405 2.895.367 2.22-.062 3.7 2.506 5.733.89 1.105-.878 5.196-3.248 2.412-4.162" fill="#F1612E"/><path d="M18.009 8.28c1.052 1.948 3.668-.76 4.444 0 .776.76 2.791-.264 3.707.37.916.636 1.979-.934 5.02 0 3.04.936-2.913-1.324-2.913-1.324s3.754-2.415 6.228-2.104c2.472.312-4.855-1.558-6.32-1.168-1.466.39-6.869 2.385-6.869 2.385l-3.625-1.853s-3.28-1.488-6.1.665c-2.822 2.153 5.512 1.335 6.428 3.03" fill="#DB4626"/><path d="M17.154 7.3c-.729-1.104-1.376-2.547-2.59-3.14-1.214-.595-.162-2.415.323-3.16 0 0 .57 1.77.69 2.337.12.568.93.66 1.577 1.803.648 1.141.729 1.99.81 2.16.08.17 0 .7 0 .7l-.81-.7zM23 6.914c1.44-.522 3.742-.51 4.976.36s2.366.913 4.32.37c1.955-.545 2.675-1.218 3.704-.273 0 0-1.337-1.664-2.88-1.142s-2.778.783-3.756.261c-.976-.522-4.161-2.314-5.245-1.044C23.034 6.716 23 6.914 23 6.914" fill="#6CAD43"/><path d="M19.929 6.435c-1.11-.227-1.346-.854-2.073 0-.727.854-.814 1.245-1.333 1.698-.517.452-2.368.792-2.516.792-.148 0 2.184.169 2.516 0 .334-.17.37-.566 1.222-.934.851-.368.777-.842 1.628-.775.852.068.852.216 1.37 0 .518-.215.111-.81 0-.838-.11-.028-.814.057-.814.057M24.035 5.419c.08.008.179.003.26.004.564.01 1.156-.097 1.355.507.228.693-.012.924.267 1.569.28.644-.452 1.658.317 2.064.77.406 2.657.033 2.762 0 .104-.034-1.712.777-1.712.777s-1.153.71-2.026 0c-.874-.71-1.258.034-1.189-1.387.07-1.421.16-1.649-.008-2.291-.166-.643-.305-1.243-.585-1.243h.28s-.703-.6-1.366-.364c-.66.237-1.037.477-.94.782.095.305-.385 1.617.209 1.993.594.376.42 1.934.42 1.934s-.804 1.117-1.049 1.184c-.245.068 1.072.17 1.444-.44.373-.608.548-.676.618-1.86.07-1.183 0-1.556.07-1.792" fill="#6CAD43"/><path d="M26.938 5.97c1.362-.461 1.863-.726 2.472-.34.61.385.825.57 2.115.893 1.29.323 1.254.692 1.612.323C33.495 6.477 35 5.614 35 5.614l-1.863.608c-.215.07-1.31.163-2.168-.004C30.11 6.05 28.91 5 28.335 5c-.573 0-2.197-.036-2.293.63-.095.665 0 1.37 0 1.37l.896-1.03z" fill="#6CAD43"/><path d="M16.203 5.569c.155-.55-.271-.942-.193-1.357.077-.414.425-.86.58-.828.154.032.413-.226.73-.002.315.225.818.543.818.543s-.271-.22-.348-.635c-.078-.415-.435-.67-.218-1.02.218-.35.643-.986.682-1.145.039-.16.348-.637.348-.637s.039 1.21.31 1.591c.27.382-.232.255.58.7.813.445 1.007-.509 1.084.605l.077 1.114s.576-.986.578-1.178c.002-.19-.384-.201.35-.291.736-.09.852-.059 1.2.132.349.191.503.477.58.572.078.096.775-.742.89-.704.117.037-.425-.122.117.037.542.158.27.604.813.222.541-.381 1.354-1.081 1.431-1.368.078-.286.04-.318 0-.827-.038-.509-.193-.668-.193-1.018 0-.338.581.577.581.639 0 .061-.155 1.238-.31 1.651-.155.414-.27 1.019-.503 1.273-.233.255-.774.13-.619.574.154.445.619.412.967.667.348.255.19.728.038.84-.153.112-1.859.655-1.859.655s-.462.422-.965.307c-.503-.115-1.819-.592-1.819-.592l-1.393.169s-1.316-.265-1.47-.265c-.155 0-.89.675-1.2.688-.31.012-1.006.319-1.006.319l-.349-.975-.309-.456z" fill="#6CAD43"/><path d="M15 7.883S13.682 5 10.429 5C7.176 5 .407 10.671 2.342 15.832c.394 1.053.741 2.17 1.25 3.168.948 0-.203-3.126.017-4.08.187-.812.576-1.612.913-2.364.992-2.215 2.706-3.553 4.895-4.318 1.78-.621 3.74-.574 5.583-.355" fill="#F1612E"/><path d="M40 21c-.737 1.323-.737 2.221-3.593 3.66-2.856 1.436-1.198 1.796-5.529 2.065-4.33.27-6.91-.449-10.503.72-3.593 1.167-1.063 1.616-5.138 1.796-4.075.18-7.595-.63-8-.899-.406-.269-.942 1.272 4.532 2.253 5.473.981 11.748-.07 13.31-.533C26.64 29.6 39.08 30.636 40 21" fill="#DB4626"/><path d="M8.275 12.254c.085-.756 2.712.39 3.005.683.54.54 1.275 1.766.064 2.033-.767.17-1.801-.432-2.553-.594-1.328-.286-.602-.82-.517-2.108a.1.1 0 0 1 .001-.014" fill="#FEFAF8"/></g></svg>