<svg width="44" height="36" xmlns="http://www.w3.org/2000/svg" xmlns:xlink="http://www.w3.org/1999/xlink"><defs><path d="M.168 1.672c0 .405.016.814-.01 1.218-.047.76-.366.73.35 1.165.432.26 1.684 1.183 1.882.817-.035-.397.917-1.716 1.562-2.216L.167.078c.163.11 0 1.406 0 1.594z" id="a"/><path id="c" d="M.148.118H43.87v35.844H.148z"/><path d="M28.465.118c-3.457 6.457-7.923 3.215-16.278 4.866C3.83 6.635 1.382 11.2.229 16.605-.924 22.01 10.6 28.751 12.762 29.352c2.162.6 6.627 3.424 11.094 5.826 4.466 2.402 18.584-.655 19.88-9.962 1.297-9.307-7.203-14.22-10.805-16.922-3.601-2.702-2.593-6.239-2.448-8.176" id="e"/></defs><g fill="none" fill-rule="evenodd"><path d="M20 32.642c-.661.513-1.636 1.865-1.6 2.271-.203.375-1.485-.57-1.927-.838-.734-.444-.407-.413-.359-1.193.026-.414.01-.833.01-1.248 0-.193.167-1.52-.001-1.634L20 32.642" fill="#AF8B68"/><g transform="translate(16 30)"><mask id="b" fill="#fff"><use xlink:href="#a"/></mask><path d="M3.863 4.4s-.828-1.431-1.93-1.85c-1.103-.42-3.814-.71-3.814-.71l.71-1.672 6.458 1.755L3.863 4.4z" fill="#8E6A47" mask="url(#b)"/></g><mask id="d" fill="#fff"><use xlink:href="#c"/></mask><path d="M30.483.118c-.145 1.937-1.153 5.474 2.448 8.176 3.602 2.702 12.102 7.615 10.806 16.922-1.297 9.307-15.415 12.364-19.881 9.962-4.467-2.402-8.933-5.226-11.094-5.826-2.16-.6-13.686-7.342-12.533-12.747C1.38 11.201 3.83 6.635 12.187 4.984c8.355-1.651 12.82 1.591 16.278-4.866h2.018z" fill="#D5B890" mask="url(#d)"/><g><mask id="f" fill="#fff"><use xlink:href="#e"/></mask><path d="M44.593 24.85l.013-.063c-2.652-1.128-5.728 1.595-7.8 2.985-2.282 1.529-4.523 2.746-7.23 1.68-1.956-.771-3.544-1.765-5.6-2.24-2.484-.573-5.146-1.698-6.903-3.677-3.176-3.577-12.216-7.463-16.925-8.117-2.16-.3-4.241 2.272-3.809 2.872.433.6 18.944 15.443 18.944 15.443s15.848 4.396 16.28 4.657c.764.447 7.085-3.957 7.707-4.508 1.253-1.112 2.373-1.413 3.602-2.552 1.294-1.2 1.332-4.721 1.72-6.48" fill="#C5A687" mask="url(#f)"/></g></g></svg>