<svg width="43" height="34" xmlns="http://www.w3.org/2000/svg" xmlns:xlink="http://www.w3.org/1999/xlink"><defs><path id="a" d="M0 .084h42.927v33.83H0z"/><path d="M22.45.091C12.4.368.022 6.04 0 15.44v.044c.001.57.048 1.154.143 1.752 1.67 10.468 7.158 11.708 8.59 12.203 1.43.496 8.767 4.274 13.718 4.46 4.95.186 14.136-1.176 18.67-9.415 4.532-8.24-.836-11.823-1.313-13.81C39.338 8.718 33.326.085 22.966.084c-.17 0-.342.003-.515.007" id="c"/><path d="M22.45.091C12.4.368.022 6.04 0 15.44v.044c.001.57.048 1.154.143 1.752 1.67 10.468 7.158 11.708 8.59 12.203 1.43.496 8.767 4.274 13.718 4.46 4.95.186 14.136-1.176 18.67-9.415 4.532-8.24-.836-11.823-1.313-13.81C39.338 8.718 33.326.085 22.966.084c-.17 0-.342.003-.515.007" id="e"/><path d="M22.45.091C12.4.368.022 6.04 0 15.44v.044c.001.57.048 1.154.143 1.752 1.67 10.468 7.158 11.708 8.59 12.203 1.43.496 8.767 4.274 13.718 4.46 4.95.186 14.136-1.176 18.67-9.415 4.532-8.24-.836-11.823-1.313-13.81C39.338 8.718 33.326.085 22.966.084c-.17 0-.342.003-.515.007" id="g"/><path d="M22.45.091C12.4.368.022 6.04 0 15.44v.044c.001.57.048 1.154.143 1.752 1.67 10.468 7.158 11.708 8.59 12.203 1.43.496 8.767 4.274 13.718 4.46 4.95.186 14.136-1.176 18.67-9.415 4.532-8.24-.836-11.823-1.313-13.81C39.338 8.718 33.326.085 22.966.084c-.17 0-.342.003-.515.007" id="i"/></defs><g fill="none" fill-rule="evenodd"><path d="M40.232 12.73l-.893-.927c.008.008 1.285-1.138 1.39-1.315.398-.684-.016-1.395-.179-2.071-.034-.142.82-.344.926-.33.4.057.541.378.617.755.173.867.003 1.96-.495 2.688-.07.102-1.229 1.343-1.366 1.2" fill="#543D27"/><mask id="b" fill="#fff"><use xlink:href="#a"/></mask><path d="M39.808 10.673C39.331 8.686 33.127-.202 22.451.091 11.774.385-1.527 6.766.143 17.235 1.813 27.703 7.3 28.943 8.732 29.438c1.432.496 8.768 4.274 13.719 4.46 4.95.186 14.136-1.176 18.67-9.415 4.532-8.24-.836-11.823-1.313-13.81" fill="#F9BF37" mask="url(#b)"/><g><mask id="d" fill="#fff"><use xlink:href="#c"/></mask><path d="M21.463-7.007c-1.79.871-10.106 3.15-10.584 6.451-.288 1.993.83 12.065 1.432 13.94.457 1.424 5.959 14.387 7.217 15.868 2.475 2.916 12.394 7.242 15.03 7.31 2.638.069 8.819-2.373 9.149-2.715.329-.342 5.075-16.501 4.68-18.793-.396-2.292-1.583-6.784-5.472-11.623-3.889-4.84-3.493-4.583-8.173-7.758-4.68-3.174-4.153-3.664-8.964-3.625-4.812.04-4.315.945-4.315.945" fill="#ECA021" mask="url(#d)"/><mask id="f" fill="#fff"><use xlink:href="#e"/></mask><path d="M11.083.084c1.358 2.128 3.71 7.514 4.985 10.535 1.276 3.02 7.158 12.757 9.067 15.814 1.908 3.057 11.81 4.988 13.838 4.492 2.027-.496 6.62-4.028 7.038-4.492.417-.464 2.445-6.235 1.491-9.947-.954-3.712 1.645-7.231-3.86-11.263-5.504-4.033-9.918-7.825-14.868-8.438-4.951-.612-17.691 3.3-17.691 3.3" fill="#DE4126" mask="url(#f)"/><g><mask id="h" fill="#fff"><use xlink:href="#g"/></mask><path d="M13.123-2.025c-3.079.056 4.556 8.231 7.12 9.006 2.565.776 4.951.334 12.467 4.52 7.515 4.185 6.561 11.866 9.066 12.795 2.506.93 11.094-4.6 8.709-11.871-2.387-7.27-3.162-6.96-5.965-10.182-2.804-3.22-3.34-4.447-10.617-6.126-7.277-1.679-20.78 1.858-20.78 1.858" fill="#DF3533" mask="url(#h)"/></g><g><mask id="j" fill="#fff"><use xlink:href="#i"/></mask><path d="M43.327 15.193c-.358.06-8.887 13.415-21.473 13.799-12.585.384-20.578-3.38-20.578-3.38S20.293 42.2 36.468 32.968c16.175-9.23 6.86-17.776 6.86-17.776" fill="#AF8842" opacity=".69" mask="url(#j)"/></g></g><path d="M8.802 8.175c4.06-.956 13.254 2.117 12.098 6.398-1.156 4.28-4.26 6.086-9.725 5.213-5.466-.874-9.45-9.944-2.373-11.61" fill="#FFF1D7" opacity=".369"/></g></svg>