<svg width="31" height="46" xmlns="http://www.w3.org/2000/svg" xmlns:xlink="http://www.w3.org/1999/xlink"><defs><path id="a" d="M.04.035h30.862v42.964H.039z"/><path d="M6.797 4.118C5.691 5.14 4.758 6.47 4.052 8.01c-1.349 2.937-2.86 5.337-3.458 8.599a34.081 34.081 0 0 0-.5 4.341 45.12 45.12 0 0 0 .054 5.331c.296 4.47 1.067 9.345 4.744 12.317 6.266 5.062 14.062 6.504 20.135.314 1.39-1.418 3.004-3.33 3.786-5.176 1.989-4.702 2.476-10.445 1.805-15.473a30.452 30.452 0 0 0-.98-4.688c-.382-1.279-1.305-2.582-1.576-3.846-.974-4.544-3.748-8.06-7.22-9.047-.843-.58-1.773-.31-2.717-.04-.87.25-1.753.499-2.593.082-.955-.474-1.851-.688-2.694-.688-2.383 0-4.343 1.71-6.04 4.083" id="c"/><path id="e" d="M.124.099h13.729V44.86H.124z"/></defs><g fill="none" fill-rule="evenodd"><g transform="translate(0 3)"><mask id="b" fill="#fff"><use xlink:href="#a"/></mask><path d="M.095 20.949a45.084 45.084 0 0 0 .053 5.331c.296 4.47 1.067 9.345 4.744 12.317 6.266 5.062 14.062 6.504 20.135.314 1.39-1.418 3.004-3.33 3.786-5.177 1.989-4.7 2.476-10.444 1.805-15.472a30.489 30.489 0 0 0-.98-4.689c-.382-1.278-1.305-2.581-1.576-3.845-.974-4.544-3.748-8.061-7.22-9.047-1.62-1.114-3.56.911-5.31.042-3.657-1.816-6.436.183-8.735 3.396C5.691 5.14 4.758 6.47 4.052 8.009c-1.349 2.937-2.86 5.337-3.458 8.599a34.08 34.08 0 0 0-.5 4.341" fill="#F8E66B" mask="url(#b)"/></g><path d="M17.273 4.559c1.293.271 2.277.799 2.198 1.178-.08.38-1.192.467-2.485.196-1.292-.272-2.276-.8-2.197-1.178.079-.38 1.191-.468 2.484-.196M20.1 6.794c1.244.618 2.121.86 2.646 1.618.524.758 1.104 5.291 1.104 6.545.001 1.253-.69 2.899-.69 2.899s-1.382-6.089-2.138-7.525c-.755-1.439-.596-1.78-1.686-2.478-1.092-.698-.922-1.896.763-1.06M23.146 29.195c-.132.54.12 2.844.39 3.706.268.863 1.165 3.444 1.196 3.767.032.324-1.35 4.417-1.35 4.417l-.746.536v-.27s1.535-2.587 1.096-4.69c-.44-2.102-2.566-6.052-1.294-9.487 1.272-3.436.708 2.021.708 2.021" fill="#D6C55F"/><g transform="translate(0 3)"><mask id="d" fill="#fff"><use xlink:href="#c"/></mask><path d="M29.954 30.175c-.407-.509-1.288 4.46-2.5 5.402-1.211.942-3.69 2.61-3.752 2.903-.063.293-.43 2.107-3.18 2.183-2.75.076-5.442.82-6.367.356-.924-.463-2.59-.97-4.084-2.126-1.494-1.158-1.718-.159-3.022-1.857-1.304-1.698-5.664-6.201-6.34-8.515-.677-2.314-3.483 1.005-3.388 1.893.095.888 6.278 9.87 10.013 11.604 3.735 1.734 3.43 1.26 3.43 1.26s3.212.993 3.898 1.045c.685.052 4.459.028 5.298-.342.839-.37 3.99-3.848 4.271-3.953.28-.105 7.873-7.17 5.723-9.853" fill="#D6C55F" mask="url(#d)"/></g><g><g transform="translate(16)"><mask id="f" fill="#fff"><use xlink:href="#e"/></mask><path d="M.172 4.659a.474.474 0 0 1-.037-.102c-.097-.412.466-1.02.672-1.35a6.82 6.82 0 0 1 .764-1.01A6.384 6.384 0 0 1 4.441.393C5.688.01 7.19-.027 8.669.444A7.551 7.551 0 0 1 11.78 2.35c.3.309.58.648.829 1.014a7.128 7.128 0 0 1 .78 1.488c.043.105.08.213.117.32l.027.081.023.07.046.143.025.084.027.095c.016.062.036.13.048.188.11.473.167.97.147 1.464-.015.495-.1.983-.23 1.448-.266.93-.707 1.763-1.205 2.524-.5.763-1.06 1.464-1.634 2.142-.574.678-1.164 1.332-1.737 1.99-.57.658-1.128 1.32-1.613 2.007-.242.345-.466.695-.657 1.054-.097.178-.182.36-.26.541-.038.092-.072.183-.106.274l-.058.16-.041.127c-.227.734-.262 1.557-.197 2.378.067.824.229 1.651.431 2.463.202.813.444 1.612.698 2.398.51 1.57 1.063 3.082 1.543 4.537.48 1.454.895 2.853 1.152 4.18.259 1.325.513 3.878.373 4.983a6.53 6.53 0 0 1-.367 1.512c-.17.451-.385.843-.612 1.17a5.758 5.758 0 0 1-1.273 1.313c-.169.126-.302.216-.393.274l-.139.089-.098-.155s.045-.03.13-.091c.087-.061.213-.155.371-.284.31-.259.759-.669 1.162-1.307.406-.634.732-1.513.812-2.564.088-1.05-.213-3.544-.52-4.818-.304-1.276-.768-2.63-1.306-4.047-.538-1.419-1.154-2.902-1.74-4.472a37.318 37.318 0 0 1-.825-2.433c-.247-.839-.46-1.71-.575-2.625-.11-.912-.128-1.884.125-2.858l.054-.19.048-.155c.038-.117.075-.235.12-.349.084-.23.179-.453.283-.669.207-.433.444-.84.695-1.232.503-.783 1.059-1.501 1.613-2.199.556-.697 1.113-1.372 1.636-2.048.523-.675 1.013-1.351 1.42-2.038.41-.684.727-1.383.888-2.063.162-.68.152-1.331-.022-1.935-.01-.04-.021-.067-.03-.101l-.016-.049a.515.515 0 0 0-.02-.057l-.052-.14-.026-.07-.023-.06a4.669 4.669 0 0 0-.199-.458 5.33 5.33 0 0 0-3.39-2.8 5.113 5.113 0 0 0-1.54-.178c-.49.018-.94.108-1.34.247A4.007 4.007 0 0 0 3.413 3.86a4.532 4.532 0 0 0-.72 1.2c-.035.08-.053.136-.073.19l-.015.038-.015.041c-.135.407-.903-.056-1.21-.165C1.035 5.04.36 5.046.172 4.659" fill="#A5B15D" mask="url(#f)"/></g><path d="M22.38 14.986c-.64.243-.83.325-.801.58.03.255.711.31 1.267.021.556-.288 1.861.178 1.873.774.012.595-.806 1.155-1.107 1.127-.3-.029-.73.366-.69.737.04.372-.293.45-.555.528-.262.08.17.571-.354.803-.525.232-.987-.514-1.398-.534-.41-.019-.998.16-1.143-.323-.145-.484-.72-.021-.852-.46-.131-.44-.08-.983-.378-.868-.3.115-.471-.144-.699.212-.226.356-.651.366-.82-.517-.17-.884.197-.852-.15-1.057-.348-.207-.302-.292.04-.42.342-.128.598-.23.438-.685-.16-.454-.05-1.04.447-1.046.498-.008.692.005.652-.606-.04-.611.15-1.963.769-1.96.62.004.739.879 1.155.44.416-.437.756-.493 1.034-.362.277.132 1.018-.333 1.532-.202.515.13.743-.225 1.023.792.28 1.017.429.709.363 1.208s.189 1.189-.387 1.172c-.577-.016-.73.582-1.258.646M23.691 25.25c.497.474.653.61.868.473.215-.138-.034-.78-.535-1.158-.5-.377-.656-1.763-.13-2.034.527-.272 1.384.223 1.49.509.107.284.647.5.96.302.315-.199.53.07.715.272.186.202.435-.405.872-.03.436.374-.028 1.119.135 1.499.162.38.58.835.212 1.177-.368.343.296.661-.038.973-.335.311-.843.502-.61.722.234.222.079.491.496.54.417.05.611.43-.103.97s-.846.195-.877.598c-.033.405-.13.402-.393.148-.265-.254-.466-.44-.802-.097-.336.344-.906.5-1.13.052-.225-.447-.298-.628-.826-.324-.528.303-1.817.722-2.086.16-.268-.563.461-1.053-.112-1.238-.574-.186-.771-.47-.776-.778-.004-.309-.743-.776-.851-1.3-.11-.524-.526-.574.259-1.273.785-.7.445-.698.92-.857.473-.16.978-.691 1.215-.163.238.53.838.407 1.127.857" fill="#B6C06B"/><path d="M24.603 15.161l-.162-.008a12.957 12.957 0 0 0-1.77.045c-.122.01-.241.027-.36.043-.12.014-.233.039-.346.057-.112.02-.217.048-.32.07-.1.025-.193.057-.28.082-.089.025-.163.06-.232.086-.07.024-.127.053-.174.078l-.149.077-.059-.082.139-.108a1.29 1.29 0 0 1 .165-.115c.066-.04.14-.091.225-.134.085-.042.176-.094.276-.138.1-.042.206-.093.318-.134.112-.04.227-.089.346-.125.119-.04.24-.08.362-.113a12.98 12.98 0 0 1 1.997-.409l.024.828zM21.636 21.93l.177.17a17.03 17.03 0 0 1 1.038 1.116 13.774 13.774 0 0 1 1.221 1.634c.085.14.172.27.243.402.071.131.142.253.2.37l.154.32c.047.094.075.183.104.253l.088.22-.093.04-.114-.203c-.037-.064-.075-.145-.133-.23l-.189-.29c-.071-.105-.155-.214-.24-.33-.085-.117-.187-.233-.284-.356a13.377 13.377 0 0 0-1.38-1.41 17.208 17.208 0 0 0-1.13-.931l-.18-.133.518-.642z" fill="#A5B15D"/></g></g></svg>