<svg width="41" height="38" xmlns="http://www.w3.org/2000/svg" xmlns:xlink="http://www.w3.org/1999/xlink"><defs><path id="a" d="M.018.097h10.278v4.967H.018z"/><path id="c" d="M0 .043h7.057V8.26H0z"/><path d="M.114 17.426c0 1.857 4.103 16.286 18.677 17.407 13.373 1.03 19.083-15.55 19.083-17.404 0-3.983-5.71-17.41-19.083-17.41C5.934.02.114 13.447.114 17.427" id="e"/></defs><g fill="none" fill-rule="evenodd"><path d="M20.017 36.797C5.673 35.67 1.635 21.162 1.635 19.296c0-4.002 5.729-17.502 18.382-17.502 13.162 0 18.781 13.5 18.781 17.504 0 1.864-5.62 18.534-18.78 17.5" fill="#77491D"/><path d="M35.867 18.63c-.682 0-1.235-.664-1.235-1.483 0-.82.553-1.484 1.235-1.484s1.235.665 1.235 1.484-.553 1.483-1.235 1.483M32.162 19.349c-.682 0-1.235-.664-1.235-1.483 0-.819.553-1.483 1.235-1.483s1.235.664 1.235 1.483c0 .819-.553 1.483-1.235 1.483M35.193 23.004c-.682 0-1.234-.664-1.234-1.483 0-.82.552-1.484 1.234-1.484.682 0 1.235.665 1.235 1.484 0 .82-.553 1.483-1.235 1.483" fill="#553212"/><path d="M32.857 13.521c.512-3.488-2.522-5.354-5.175-6.37-3.209-1.228-6.603-1.545-9.876-2.488-1.513-.436-2.964-.507-4.524-.346-1.834.19-3.652.52-5.483.118-.15-.033-.215.213-.064.246 2.936.643 5.869-.604 8.806-.08 1.455.258 2.899.72 4.351 1.02 3.24.669 6.89 1.267 9.665 3.305 1.444 1.061 2.35 2.612 2.07 4.527-.024.16.206.23.23.068" fill="#77491D"/><g transform="translate(18.145)"><mask id="b" fill="#fff"><use xlink:href="#a"/></mask><path d="M10.294 4.941c.092-2.06-2.267-3.008-3.762-3.514C4.462.727 2.307.437.168.099.018.075-.047.32.105.345c1.892.3 3.79.563 5.64 1.101 1.526.445 4.407 1.317 4.31 3.495-.007.164.231.164.239 0" fill="#77491D" mask="url(#b)"/></g><path d="M21.091 2.407C18.267 1.007 15.132.863 12.068.86c-.153 0-.154.255 0 .255 3.018.003 6.12.132 8.903 1.512.138.07.26-.15.12-.22M19.119 4.176c2.924-.11 5.852-.015 8.755.39 1.551.216 3.89 1.324 4.97-.454.085-.138-.122-.266-.206-.128-.674 1.108-1.897.91-2.943.675a27.35 27.35 0 0 0-2.887-.484c-2.554-.293-5.123-.35-7.69-.255-.153.006-.153.261 0 .256M28.678 8.257c1.335-.174 2.687-.072 4.022-.275 1.1-.167 2.39-.521 2.892-1.701.064-.149-.142-.278-.206-.129-.547 1.286-2.096 1.528-3.269 1.648-1.143.116-2.3.053-3.439.202-.15.02-.153.275 0 .255" fill="#77491D"/><path d="M30.794 8.295c-3.038-3.18-7.503-4.206-11.576-4.8-2.25-.327-4.425-.463-6.694-.286-2.564.2-5.216.543-7.713-.305-.147-.05-.21.197-.063.247 2.283.775 4.7.564 7.052.372 2.306-.189 4.498-.169 6.791.14 4.206.567 8.893 1.525 12.034 4.812.11.115.28-.065.17-.18M12.905 6.344c-3.81-.112-8.002.771-10.6 3.992-.1.124.069.305.17.18C5.033 7.344 9.154 6.49 12.904 6.6c.153.005.153-.25 0-.255M9.977 9.806c-1.63.854-3.362 1.432-5.049 2.142-1.592.67-3.08 1.844-4.809 2.05-.151.018-.153.273 0 .255 1.763-.21 3.254-1.377 4.873-2.06 1.705-.718 3.457-1.303 5.106-2.167.138-.072.017-.292-.12-.22M21.624 33.18c1.303 1.26 3.226 1.702 4.923 1.892 1.705.19 3.716.187 5.259-.725.134-.08.014-.3-.12-.22-1.456.86-3.348.867-4.96.709-1.68-.166-3.642-.589-4.933-1.837-.114-.11-.284.07-.17.18" fill="#77491D"/><path d="M27.842 33.854c-1.422.072-1.811 1.648-2.929 2.314-1.249.743-2.766 1.178-4.153 1.517-.15.037-.087.283.063.246 1.309-.32 2.651-.747 3.868-1.357.551-.277.968-.631 1.358-1.13.505-.645.93-1.291 1.793-1.335.153-.008.154-.263 0-.255M20.676 34.203c-.577 2.276-3.93 3.834-5.947 3.1-.146-.053-.209.193-.064.246 2.143.78 5.63-.867 6.242-3.279.04-.158-.19-.226-.23-.067M16.777 34.028c-2.936.659-6.807.667-9.349-1.262-.125-.096-.245.126-.12.22 2.595 1.97 6.54 1.96 9.532 1.288.15-.033.087-.28-.063-.246M35.311 23.547a9.322 9.322 0 0 0 3.558-2.963c.385-.536.764-1.137.998-1.767.326-.873.216-1.728 1.06-2.286.13-.086.01-.307-.12-.22-.487.321-.753.702-.895 1.29-.204.842-.415 1.544-.87 2.284-.941 1.534-2.292 2.692-3.852 3.442-.14.067-.018.287.121.22M37.964 19.19c1.083-1.146 2.138-2.184 2.186-3.916.004-.165-.235-.164-.24 0-.045 1.656-1.087 2.647-2.115 3.736-.11.116.06.296.169.18M31.53 9.172c2.065-2.973-.972-5.566-1.661-8.39-.039-.158-.27-.091-.23.068.667 2.738 3.685 5.315 1.685 8.193-.092.132.115.26.206.129M13.024 11.701c-2.088.02-4.056.587-5.965 1.466-1.972.909-3.85 2.027-5.896 2.749-.146.05-.083.297.063.246 1.872-.66 3.608-1.645 5.398-2.511 2.043-.99 4.14-1.673 6.4-1.695.154-.001.154-.256 0-.255M6.752 12.101c-.817-.633-1.534-1.388-2.246-2.148-.11-.116-.278.064-.17.18.728.777 1.461 1.542 2.295 2.189.125.096.244-.125.12-.22" fill="#77491D"/><g transform="translate(0 17.152)"><mask id="d" fill="#fff"><use xlink:href="#c"/></mask><path d="M6.846.072C5.32 1.337 4.393 3.184 3.431 4.929c-.41.742-.844 1.47-1.275 2.199-.17.288-.378.692-.693.823C.86 8.2.453 7.305.223 6.859c-.075-.144-.282-.015-.207.129.277.535.766 1.489 1.481 1.228.589-.215.9-1.042 1.202-1.555C3.988 4.473 5.064 1.87 7.015.252c.121-.1-.049-.28-.169-.18" fill="#77491D" mask="url(#d)"/></g><path d="M4.301 20.503c-1.29.005-2.651.09-3.619-.983-.107-.119-.276.062-.17.18 1.018 1.128 2.427 1.064 3.79 1.058.153 0 .153-.256 0-.255M8.368 27.23c-.732 2.036-.693 5.694 2.028 5.774.153.005.153-.25 0-.255-2.55-.076-2.465-3.594-1.797-5.451.055-.154-.176-.22-.23-.068" fill="#77491D"/><path d="M8.125 24.968c.362 2.878.625 5.844 3.047 7.635.126.094.246-.127.12-.22-2.342-1.733-2.579-4.642-2.928-7.415-.02-.16-.259-.163-.239 0M5.74 26.72c-.474 2.264 1.214 6.237 3.85 5.131.142-.06.08-.306-.063-.246-2.447 1.026-3.995-2.726-3.557-4.818.034-.16-.197-.228-.23-.068M6.392 25.112c-1.103.511-2.397.989-3.612.753-.15-.029-.215.217-.064.246 1.29.25 2.625-.236 3.797-.778.14-.065.02-.285-.12-.22M26.945 28.394c1.102.856 2.214 1.913 3.56 2.3 1.314.377 2.453-.207 3.396-1.171.111-.114-.058-.294-.169-.181-1.11 1.134-2.398 1.54-3.824.848-1.036-.504-1.928-1.306-2.843-2.016-.124-.097-.243.124-.12.22M32.179 27.481c1.223 1.303 2.957.184 4.207-.49.138-.074.017-.294-.12-.22-1.14.615-2.791 1.73-3.918.53-.11-.116-.278.064-.17.18" fill="#77491D"/><g transform="translate(2 1)"><mask id="f" fill="#fff"><use xlink:href="#e"/></mask><path d="M38.033 23.766c-2.792-1.586-4.495-.944-5.647.384-1.152 1.328-5.887 2.964-8.559 3.415-2.671.45-4.492 1.214-7.527.515-3.036-.699-5.343.19-7.286-1.27-1.942-1.459-3.642-2.592-5.706-2.66-2.064-.067-5.418 1.582-3.194 2.66 2.223 1.079 8.293 7.935 11.754 8.883 3.46.95 7.028 2.725 12.59 1.584 5.562-1.142 8.11-.376 10.054-2.852 1.942-2.477 3.52-10.659 3.52-10.659" fill="#623B15" mask="url(#f)"/></g></g></svg>