<svg width="21" height="47" xmlns="http://www.w3.org/2000/svg" xmlns:xlink="http://www.w3.org/1999/xlink"><defs><path id="a" d="M.102.117h19.824V28H.102z"/><path id="c" d="M.102.117h19.824V28H.102z"/><path id="e" d="M0 .018h11.869v8.865H0z"/><path id="g" d="M.026.034h12.926v6.882H.026z"/></defs><g fill="none" fill-rule="evenodd"><g transform="matrix(-1 0 0 1 21 19)"><mask id="b" fill="#fff"><use xlink:href="#a"/></mask><path d="M19.57 18.007c.008-.094.01-.187.01-.277.198-.305-.135-.778-.428-1.102-.14-.242-.129-.425-.047-.715.261-.482.476-1.185.476-1.185l.345-.504h-.345c.172-.725-.214-.742-.563-.924a3.637 3.637 0 0 0-.393-.847c.42-.208.609-1.71.609-1.71h-.408l.408-1.28-.346.14c0-.25.196-.54-.241-.814l.587-.803h-.635c-.37-.725-.58-1.041-.696-1.367.452-.429.598-1.569.262-1.527-.12.014-.308 0-.497-.056-.055-.169-.124-.348-.202-.551.127-.11.242-.237.292-.387.136-.412-.894-2.005-.894-2.005l-.286.566c-.418-.7-.911-1.33-1.435-1.648-1.51-.917-4.027-.877-4.195-.877-.169 0-4.7-.04-4.993.002-.294.042-1.3.71-1.846.626C3.563.68 2.976.721 2.976.721s.713 1.709 0 2.168c-.714.458-.63.917-.756.959-.125.041-.754.084-.754.084s1.07 2.459.43 2.918L.71 6.016s.126 2.877 0 3.085c-.126.21 0 .584 0 .584l-.588.084s.169.667.21 1c.042.334.504 1.626.672 1.793.167.167-.63.376-.882.626 0 0 .378.572.378.911 0 .34.202.673.412.673 0 0-.368.042-.806-.25v1.23s.145.897.396.938c0 0 .084 2.252.167 2.544l-.567-.167s.399.792.273 1.042.21 1.418.67 1.46c.462.041.043.167.043.167l.251.541-.545-.083s.546.334.546.709c0 .375.167 1.918 1.006 1.96.84.041.168.041.168.041l.21.417-.587.084s.755 1 1.342 1.126C4.066 26.656 5.343 28 6.406 28c2.735 0 6.97-.088 8.019-.171 1.05-.084 3.023-2.255 3.485-3.089.461-.834 1.008-2.17 1.05-2.795.015-.213-.035-.47-.087-.734.415-.19.088-1.276.088-1.276.035-.034.07-.053.103-.053h.001c.564 0 .861-1.907.861-1.907s-.23.039-.356.032" fill="#C5792B" mask="url(#b)"/></g><g transform="matrix(-1 0 0 1 21 19)"><mask id="d" fill="#fff"><use xlink:href="#c"/></mask><path d="M19.57 18.007c.008-.094.01-.187.01-.277.198-.305-.135-.778-.428-1.102-.14-.242-.129-.425-.047-.715.261-.482.476-1.185.476-1.185l.345-.504h-.345c.172-.725-.214-.742-.563-.924a3.637 3.637 0 0 0-.393-.847c.42-.208.609-1.71.609-1.71h-.408l.408-1.28-.346.14c0-.25.196-.54-.241-.814l.587-.803h-.635c-.37-.725-.58-1.041-.696-1.367.452-.429.598-1.569.262-1.527-.12.014-.308 0-.497-.056-.055-.169-.124-.348-.202-.551.127-.11.242-.237.292-.387.136-.412-.894-2.005-.894-2.005l-.286.566c-.418-.7-.911-1.33-1.435-1.648-1.51-.917-4.027-.877-4.195-.877-.169 0-4.7-.04-4.993.002-.294.042-1.3.71-1.846.626C3.563.68 2.976.721 2.976.721s.713 1.709 0 2.168c-.714.458-.63.917-.756.959-.125.041-.754.084-.754.084s1.07 2.459.43 2.918L.71 6.016s.126 2.877 0 3.085c-.126.21 0 .584 0 .584l-.588.084s.169.667.21 1c.042.334.504 1.626.672 1.793.167.167-.63.376-.882.626 0 0 .378.572.378.911 0 .34.202.673.412.673 0 0-.368.042-.806-.25v1.23s.145.897.396.938c0 0 .084 2.252.167 2.544l-.567-.167s.399.792.273 1.042.21 1.418.67 1.46c.462.041.043.167.043.167l.251.541-.545-.083s.546.334.546.709c0 .375.167 1.918 1.006 1.96.84.041.168.041.168.041l.21.417-.587.084s.755 1 1.342 1.126C4.066 26.656 5.343 28 6.406 28c2.735 0 6.97-.088 8.019-.171 1.05-.084 3.023-2.255 3.485-3.089.461-.834 1.008-2.17 1.05-2.795.015-.213-.035-.47-.087-.734.415-.19.088-1.276.088-1.276.035-.034.07-.053.103-.053h.001c.564 0 .861-1.907.861-1.907s-.23.039-.356.032" fill="#C5792B" mask="url(#d)"/></g><path d="M13 18.96l-.026-.215a93.873 93.873 0 0 0-.077-.637 26.057 26.057 0 0 0-.146-1.012c-.033-.192-.07-.397-.106-.612-.042-.214-.083-.44-.132-.674-.098-.468-.21-.973-.35-1.503l-.105-.402-.117-.411c-.076-.277-.169-.557-.257-.842a24.49 24.49 0 0 0-.635-1.735c-.115-.293-.252-.584-.38-.875-.068-.145-.14-.29-.21-.434l-.106-.216-.115-.214a14.558 14.558 0 0 0-1.01-1.65l-.282-.388-.302-.37c-.097-.124-.207-.239-.313-.355-.107-.113-.206-.23-.322-.336l-.334-.316c-.116-.1-.234-.195-.35-.29-.058-.046-.111-.096-.173-.139l-.181-.127-.179-.125a1.747 1.747 0 0 0-.18-.116c-.123-.072-.244-.143-.365-.212a1.642 1.642 0 0 0-.182-.095l-.184-.085c-.237-.121-.486-.2-.717-.282l-.086-.03c-.03-.01-.06-.016-.088-.024l-.173-.044a37.559 37.559 0 0 0-.333-.081c-.221-.032-.429-.066-.622-.088L3.315 4c-.168.002-.323.015-.46.02l-.195.01c-.06.007-.118.018-.17.024l-.269.04L2 4.125l.006.06.222.012.265.015c.052.003.107.005.167.01l.187.028c.132.022.278.039.434.07.153.037.32.08.497.124.172.056.352.126.54.192l.28.133.142.068c.024.011.048.022.072.035l.07.042c.185.115.382.222.562.369l.14.104c.047.034.094.069.137.111.088.079.177.16.268.24a1.3 1.3 0 0 1 .13.13l.128.135.127.136c.043.045.08.098.121.147l.24.3c.072.108.146.216.22.324.079.105.142.225.21.339.069.116.14.228.2.351l.187.365.169.379c.217.512.41 1.043.56 1.592l.059.203.051.208.1.412c.058.28.123.553.167.831.104.55.17 1.102.23 1.634.022.268.051.528.066.787l.025.382.016.374c.022.49.025.956.023 1.384-.002.214-.009.42-.012.614l-.023.552c-.02.345-.038.65-.06.883l-.054.583c-.014.14-.02.216-.02.216L13 18.96z" fill="#607F3D"/><path d="M14 19.866l-.138-.785-.073-.415-.103-.55c-.075-.39-.155-.84-.263-1.276-.103-.448-.211-.933-.346-1.432l-.2-.771-.224-.794c-.149-.539-.32-1.087-.49-1.642-.082-.279-.176-.556-.266-.835-.09-.278-.18-.557-.274-.835-.192-.554-.376-1.108-.575-1.646l-.291-.8-.295-.775c-.095-.254-.194-.502-.291-.745l-.284-.71c-.194-.458-.368-.891-.547-1.286l-.25-.566a194.22 194.22 0 0 1-.236-.506c-.145-.317-.289-.588-.4-.81-.027-.056-.055-.109-.08-.158l-.076-.137a59.618 59.618 0 0 0-.12-.214L8.079 2 8 2.04a103.367 103.367 0 0 0 .088.446l.03.153.027.176c.037.25.088.547.129.897.02.173.044.357.069.551l.063.616c.048.425.08.893.124 1.382l.052.756c.018.259.037.521.049.79l.043.816c.01.275.02.554.032.835.024.561.03 1.133.044 1.7.005.284.004.569.006.852 0 .282.005.562 0 .84-.008.557-.011 1.103-.033 1.628-.01.262-.018.52-.026.77l-.041.734c-.021.477-.062.92-.096 1.327-.028.418-.077.755-.114 1.062l-.052.425-.055.415-.107.789L14 19.866z" fill="#607F3D"/><path d="M13.098 20l-.084-.785a88.617 88.617 0 0 1-.19-2.042c-.139-1.696-.27-3.962-.245-6.23.008-.567.022-1.134.049-1.691.028-.557.062-1.106.113-1.634.049-.53.108-1.04.18-1.52.068-.484.154-.935.238-1.353.09-.415.181-.795.278-1.127.048-.166.092-.323.14-.464.048-.142.088-.275.133-.39l.116-.313c.037-.09.068-.166.095-.227l.079-.19L13.948 2l-.12.166-.143.201-.183.281c-.07.105-.14.226-.218.356-.08.13-.16.275-.245.43-.171.31-.348.67-.533 1.068-.178.4-.369.837-.546 1.31-.182.471-.357.975-.527 1.501-.171.526-.329 1.074-.484 1.634-.154.56-.296 1.134-.433 1.71-.537 2.302-.916 4.64-1.157 6.398-.121.88-.21 1.61-.27 2.133L9 19.987l4.098.013z" fill="#607F3D"/><path d="M13.902 19l-.092-.891-.023-.224-.011-.197-.03-.446c-.034-.305-.014-.73-.015-1.168.002-.11-.002-.224.006-.34l.022-.356.047-.753.089-.8.045-.416c.02-.14.044-.282.066-.424l.137-.873.178-.892c.031-.15.059-.303.092-.454.038-.151.074-.302.11-.454.076-.303.144-.611.227-.915.174-.604.337-1.22.54-1.81.05-.148.098-.297.146-.444.025-.074.05-.148.073-.221l.08-.217.32-.855.078-.21.086-.205.17-.404.167-.397c.055-.131.11-.26.171-.385l.347-.73c.057-.117.11-.236.169-.347l.175-.328.331-.618c.052-.1.107-.192.163-.282l.16-.263c.21-.34.382-.647.554-.877l.52-.75L18.935 0l-.716.604c-.237.188-.49.444-.794.73l-.234.223a4.218 4.218 0 0 0-.243.241l-.506.533-.27.287c-.093.097-.178.201-.27.305l-.56.65c-.098.11-.19.226-.283.344l-.283.359-.291.368-.147.187-.141.193-.574.79-.146.202-.139.207c-.092.14-.186.278-.28.418-.384.557-.732 1.144-1.094 1.73-.176.295-.338.596-.509.894l-.251.448c-.081.15-.156.302-.235.453l-.46.9-.416.897c-.068.148-.137.294-.201.441l-.182.441-.35.856-.297.832-.141.398c-.047.13-.081.263-.121.39l-.22.74-.05.175c-.01.03-.019.058-.026.086l-.021.093-.081.356-.143.65-.062.291-.04.221-.158.883 5.902.184z" fill="#607F3D"/><g transform="matrix(-1 0 0 1 21 11)"><mask id="f" fill="#fff"><use xlink:href="#e"/></mask><path d="M7.693 8.883l.067-.622c.01-.143.041-.303.04-.544l.005-.18c.002-.062-.003-.124-.004-.19-.005-.13-.003-.269-.02-.41-.013-.143-.022-.295-.05-.448-.01-.077-.022-.156-.034-.236-.014-.08-.032-.16-.049-.241a7.26 7.26 0 0 0-.289-1.02 7.728 7.728 0 0 0-.484-1.044 7.302 7.302 0 0 0-.685-.99 6.761 6.761 0 0 0-.867-.857 6.092 6.092 0 0 0-1.002-.65 5.44 5.44 0 0 0-1.064-.397c-.178-.037-.353-.082-.525-.099-.087-.01-.172-.027-.256-.03l-.25-.013c-.082-.006-.162-.003-.24 0l-.232.007c-.15.012-.293.033-.43.048-.134.024-.26.05-.377.075-.118.024-.22.061-.318.087-.195.051-.338.118-.44.154l-.157.061L0 1.289l.135-.103c.09-.064.215-.172.395-.278C.619.853.715.784.827.725c.113-.058.235-.124.368-.19.137-.056.282-.122.44-.181l.246-.08c.084-.028.171-.058.262-.077l.279-.065c.096-.024.194-.033.295-.05.2-.037.41-.046.63-.061a6.5 6.5 0 0 1 1.381.102 7.49 7.49 0 0 1 1.445.433c.476.203.945.457 1.39.754A9.43 9.43 0 0 1 8.81 2.325c.381.375.728.779 1.037 1.195.302.42.575.846.796 1.274.056.106.113.212.165.317l.144.315c.099.208.175.414.253.613.08.198.139.393.199.579.03.092.06.183.084.272l.07.26c.093.326.15.667.199.935.071.43.113.674.113.674l-4.176.124z" fill="#607F3D" mask="url(#f)"/></g><g transform="matrix(-1 0 0 1 13 12)"><mask id="h" fill="#fff"><use xlink:href="#g"/></mask><path d="M.026 6.75l.127-.6c.03-.135.066-.283.106-.442.012-.04.021-.08.032-.12.011-.042.023-.084.037-.12l.084-.234c.061-.16.119-.331.206-.505a59.785 59.785 0 0 0 .194-.402l.079-.135c.053-.091.108-.183.165-.277.028-.046.054-.094.086-.14l.097-.138.202-.28c.065-.095.149-.181.223-.274.08-.09.156-.184.239-.273l.262-.263.133-.132.143-.124.291-.25c.101-.078.206-.154.31-.232l.158-.116c.053-.037.11-.071.164-.107l.332-.212.348-.193c.058-.032.115-.065.174-.095L4.398 1c.121-.056.24-.116.362-.168.247-.1.492-.203.746-.283.248-.09.507-.155.758-.225.258-.057.508-.12.765-.157a9.037 9.037 0 0 1 1.5-.132 7.95 7.95 0 0 1 1.39.108l.32.061c.104.02.206.052.305.077.2.047.386.12.563.181.088.032.172.073.254.109.081.037.162.068.235.112.147.084.289.153.408.244l.175.122c.056.037.102.085.15.125.094.083.181.155.246.234.067.075.127.14.177.2l.11.16c.06.084.09.13.09.13l-.053.035-.125-.1-.149-.119c-.063-.042-.138-.086-.219-.137-.078-.055-.18-.097-.282-.147-.055-.023-.104-.054-.165-.073l-.183-.064c-.122-.05-.266-.075-.409-.112-.07-.021-.148-.027-.225-.04-.078-.011-.154-.028-.236-.035-.165-.01-.33-.03-.507-.023-.088.002-.175-.003-.265.003l-.274.02c-.368.04-.75.1-1.132.212a6.917 6.917 0 0 0-1.131.417c-.185.078-.36.182-.539.274-.171.106-.345.202-.504.32-.166.107-.316.23-.466.347-.075.06-.143.126-.213.187l-.105.093c-.034.032-.064.066-.097.098l-.189.193-.17.2c-.028.033-.057.066-.083.1l-.073.101c-.05.069-.1.133-.146.2a34.19 34.19 0 0 0-.124.203l-.06.098-.051.102-.1.196c-.03.065-.052.132-.079.195-.023.065-.056.124-.071.188l-.055.185-.026.089c-.009.029-.013.06-.018.089l-.034.171-.017.081-.008.083-.015.157c-.016.098-.008.197-.01.287v.13a.164.164 0 0 0 .004.053l.008.047c.01.06.017.114.022.163l.063.551-4.415-.165z" fill="#607F3D" mask="url(#h)"/></g><path d="M14.55 19s-.007-.036-.017-.105l-.01-.058-.005-.033c-.002-.008-.004-.034-.005-.017a.27.27 0 0 1-.051.1l-.01.013c-.003.004-.008.01-.009.007l-.008-.005-.022-.014-.014-.01-.006-.015-.017-.034c-.01-.012-.004-.03-.007-.047l-.005-.056.013-.068a.283.283 0 0 1 .02-.077l.031-.086c.013-.03.031-.061.047-.094.029-.066.083-.131.128-.205.11-.14.24-.297.412-.445.17-.15.365-.301.585-.437.108-.073.226-.132.345-.2.12-.058.243-.126.372-.177.254-.115.524-.202.798-.277l.208-.051c.07-.018.138-.026.208-.04.14-.03.277-.041.417-.06.276-.022.553-.03.813-.007l.195.016.187.029c.126.015.241.046.357.073.117.024.22.062.325.095.05.017.104.031.15.051l.137.058c.185.07.33.156.457.221.124.069.212.133.279.173l.099.064.053-.036-.062-.093c-.042-.06-.097-.153-.183-.264-.09-.108-.193-.248-.342-.388l-.113-.112c-.039-.04-.084-.074-.13-.112-.09-.075-.184-.16-.296-.232-.11-.076-.224-.159-.354-.229l-.198-.112-.213-.103a5.848 5.848 0 0 0-.974-.354c-.176-.042-.36-.092-.548-.122-.093-.015-.19-.035-.286-.047l-.291-.035a8.276 8.276 0 0 0-1.204-.034c-.206.004-.406.027-.611.045-.202.028-.407.05-.606.091a8.28 8.28 0 0 0-1.175.3 7.42 7.42 0 0 0-1.084.458c-.17.095-.338.182-.493.29-.079.053-.157.102-.231.157-.076.057-.148.114-.22.17-.071.054-.14.114-.205.176l-.192.182c-.061.064-.12.13-.175.194-.055.066-.11.124-.158.195-.05.067-.097.134-.14.199l-.065.096-.057.102-.102.194-.045.093c-.007.012-.015.035-.023.055l-.022.06a4.328 4.328 0 0 0-.126.433c-.009.04-.01.038-.014.053a.572.572 0 0 1-.011.033l-.018.055-.033.103 4.55.257z" fill="#607F3D"/><path d="M13.522 19l-.01-.104c-.004-.034-.009-.074-.013-.121l-.012-.102c0-.01-.003-.019-.003-.03l-.002-.04c0-.027 0-.055-.002-.084-.003-.06.003-.125.004-.195s.013-.145.018-.226c.012-.08.022-.166.039-.256a4.724 4.724 0 0 1 .41-1.224 5.802 5.802 0 0 1 1.644-2.021l.165-.129c.115-.079.226-.163.343-.234l.173-.11.176-.1c.115-.068.236-.123.351-.182.116-.058.233-.105.344-.156.115-.047.227-.087.334-.13.108-.038.215-.07.316-.104.1-.035.199-.057.29-.083l.134-.037.126-.028.223-.05c.136-.026.244-.043.317-.056l.113-.02-.001-.034-.115-.006c-.076-.003-.186-.071-.328-.076-.07 0-.149-.062-.234-.062h-.134c-.046 0-.094.065-.144.067-.099.006-.206.038-.316.049-.111.01-.23.035-.353.05-.12.016-.25.04-.381.063-.13.026-.269.053-.408.085-.138.035-.283.066-.427.112l-.22.066-.22.076c-.15.05-.296.114-.448.173-.074.032-.148.068-.223.101a7.545 7.545 0 0 0-1.887 1.241 7.364 7.364 0 0 0-1.24 1.435c-.159.248-.298.492-.411.727-.058.117-.106.233-.155.343-.042.113-.086.218-.12.322-.032.104-.066.2-.089.294l-.035.132-.016.063-.014.067-.043.236-.02.129-.018.104 2.522.065z" fill="#607F3D"/><path d="M12.253 20l-.073-.672c-.017-.173-.046-.378-.055-.653a6.142 6.142 0 0 1-.016-.426c-.002-.15-.008-.31-.001-.475.005-.166.005-.34.02-.518l.016-.274c.007-.092.019-.186.028-.28.034-.384.1-.78.179-1.195.09-.407.19-.833.332-1.249.141-.415.302-.837.503-1.234.2-.398.42-.79.679-1.142.257-.353.538-.682.842-.967a5.95 5.95 0 0 1 .96-.722c.083-.048.167-.09.25-.135.041-.022.083-.043.124-.066l.126-.054c.084-.035.166-.073.249-.106l.246-.083.121-.041.12-.03.236-.059c.154-.033.303-.05.444-.074.141-.016.275-.022.4-.032.124-.01.238 0 .343-.002.209-.004.371.021.484.03l.174.015.016-.064-.163-.065c-.109-.039-.265-.111-.474-.169-.105-.028-.219-.07-.348-.097-.129-.027-.268-.061-.42-.088-.152-.017-.315-.045-.49-.057l-.269-.011-.14-.005-.143.006-.298.013c-.101.01-.203.024-.309.037l-.159.02c-.053.012-.106.022-.16.033-.107.022-.218.044-.329.071-.44.116-.896.289-1.35.517a8.237 8.237 0 0 0-1.32.861 9.51 9.51 0 0 0-1.189 1.137c-.373.412-.703.86-1.01 1.318-.31.457-.57.933-.815 1.402a15.51 15.51 0 0 0-.613 1.4c-.042.114-.088.226-.127.338l-.114.333c-.076.218-.136.432-.197.638-.064.206-.111.405-.16.596-.05.19-.09.373-.125.545-.077.335-.127.666-.17.932L8 19.911l4.253.089z" fill="#607F3D"/><path d="M14 20.84l-.03-.192c-.008-.062-.02-.139-.034-.23-.015-.094-.026-.178-.056-.353l-.092-.524-.027-.143-.034-.135-.07-.281-.077-.299-.096-.308a8.462 8.462 0 0 0-.224-.653l-.13-.34c-.043-.114-.098-.227-.148-.343l-.157-.35-.177-.348a13.429 13.429 0 0 0-.831-1.395c-.32-.45-.657-.9-1.035-1.313-.182-.213-.382-.407-.575-.608-.1-.097-.202-.191-.303-.286a5.478 5.478 0 0 0-.309-.275l-.313-.267-.323-.249a5.816 5.816 0 0 0-.326-.238c-.11-.076-.217-.154-.328-.224-.443-.29-.893-.538-1.337-.75a9.128 9.128 0 0 0-1.317-.492 6.412 6.412 0 0 0-1.222-.225c-.19-.022-.374-.018-.548-.019-.085-.003-.171.01-.253.016l-.237.021c-.153.031-.295.05-.424.085-.13.04-.246.069-.35.109l-.27.115c-.078.036-.14.078-.192.106l-.155.09.025.065.167-.04c.055-.012.12-.034.2-.044l.27-.03c.103-.007.216 0 .337 0 .12.005.252.027.39.04l.212.046c.072.017.146.028.221.055.151.047.308.09.468.16.32.123.654.303.992.513.339.21.675.474 1.01.758.329.295.653.616.958.967.078.086.15.18.225.27.074.09.149.18.218.276l.212.283.2.293c.068.096.131.197.193.297.061.102.124.2.184.301.113.208.232.406.332.616.213.408.381.83.535 1.232.139.41.263.804.343 1.182l.062.277.046.27c.014.088.033.173.04.259l.029.249c.023.16.029.317.036.463l.012.212c0 .068.053.135.053.199-.002.064.052.126.052.185v.088c0 .024-.059.048-.06.07-.01.093-.043.177-.049.25-.003.057-.029.183-.036.27-.008.092-.022.17-.028.233-.01.126-.02.193-.02.193L14 20.84z" fill="#607F3D"/><path d="M14 18.93s-.008-.053-.026-.152l-.034-.204c-.016-.097-.033-.216-.057-.333a9.892 9.892 0 0 0-.549-1.813c-.146-.356-.324-.73-.532-1.104-.208-.375-.446-.75-.709-1.118a16.403 16.403 0 0 0-1.778-2.07c-.637-.637-1.291-1.22-1.883-1.762-.593-.54-1.124-1.044-1.508-1.52a3.892 3.892 0 0 1-.456-.682 2.056 2.056 0 0 1-.203-.59 1.658 1.658 0 0 1-.017-.412c.01-.097.019-.15.019-.15L6.207 7s-.025.048-.068.143c-.038.096-.09.242-.118.439a2.35 2.35 0 0 0 .015.72c.044.276.133.58.259.897.248.633.63 1.314 1.04 2.018.41.704.847 1.434 1.227 2.164.38.73.702 1.459.915 2.135.218.675.328 1.294.362 1.807a6.087 6.087 0 0 1-.035 1.204c-.01.068-.021.113-.029.16l-.006.033-.006.045-.012.082-.02.153L14 18.93z" fill="#607F3D"/><path d="M14.46 25.916c-1.187-1.076-1.818-1.36-2.83.005-1.012 1.366-.649 1.562.002 2.108.65.547.844.971.844.971l1.543-.068s.664-1.685.91-1.9c.247-.217-.212-.882-.47-1.116" fill="#EEAC3A"/><path d="M15 26.21s-1.13.072-1.838-.21c-.566.376-1.35.85-2.162.824 0 .176.923.792 1.353 1.176.3-.004.601 0 .9 0 .648 0 .82-.052 1.163-.443.351-.4.58-.867.584-1.347" fill="#CD832C"/><path d="M17.459 23.916c-1.185-1.077-1.817-1.36-2.829.005-1.012 1.366-.649 1.562.001 2.109.651.546.846.97.846.97l1.542-.069s.663-1.683.91-1.9c.247-.216-.211-.88-.47-1.115" fill="#EEAC3A"/><path d="M18 25.21s-1.13.073-1.838-.21c-.566.376-1.35.85-2.162.824 0 .176.923.792 1.354 1.176.3-.004.6 0 .899 0 .648 0 .82-.052 1.164-.443.35-.401.58-.868.583-1.346" fill="#CD832C"/><path d="M12.46 27.916c-1.186-1.076-1.817-1.36-2.83.006-1.012 1.365-.649 1.561.001 2.107.652.547.846.971.846.971l1.542-.069s.663-1.683.91-1.9c.247-.216-.211-.881-.47-1.115" fill="#EEAC3A"/><path d="M13 29.21s-1.13.073-1.838-.21c-.566.376-1.35.85-2.162.824 0 .176.923.792 1.354 1.176.3-.004.6 0 .9 0 .648 0 .819-.052 1.162-.443.352-.401.58-.868.584-1.347" fill="#CD832C"/><path d="M18.46 25.916c-1.186-1.077-1.818-1.36-2.83.005-1.012 1.366-.65 1.562.002 2.109.65.546.845.97.845.97l1.543-.068s.662-1.685.91-1.901c.246-.216-.212-.88-.47-1.115" fill="#EEAC3A"/><path d="M19 28.21s-1.13.072-1.838-.21c-.566.376-1.35.85-2.162.823 0 .177.923.792 1.354 1.177.3-.004.6 0 .9 0 .647 0 .818-.052 1.162-.444.352-.4.58-.867.584-1.346" fill="#CD832C"/><path d="M14.46 20.916c-1.186-1.076-1.817-1.36-2.83.005-1.012 1.366-.65 1.563.002 2.108.65.547.845.971.845.971l1.543-.068s.662-1.685.909-1.9c.248-.217-.212-.882-.47-1.116" fill="#EEAC3A"/><path d="M15 23.21s-1.129.072-1.837-.21c-.567.376-1.352.85-2.163.823 0 .177.923.793 1.354 1.177.3-.004.6 0 .9 0 .647 0 .82-.052 1.162-.443.352-.402.58-.868.584-1.347" fill="#CD832C"/><path d="M16.442 28.929c-.715-.627-1.235-.984-1.751-.9-.368.059-.495-.243-.928.322-1.045 1.36-.91 2.139-.238 2.683.67.543.872.966.872.966l1.591-.068s.684-1.677.94-1.892c.254-.216-.22-.877-.486-1.111" fill="#EEAC3A"/><path d="M17 30.21s-1.135.072-1.846-.21c-.57.376-1.339.742-2.154.716 0 .176.908.9 1.342 1.284.3-.004.602 0 .903 0 .652 0 .824-.051 1.168-.443.354-.401.584-.868.587-1.347" fill="#CD832C"/><path d="M11.582 24.93c-.537-.628-.926-.984-1.314-.901-.275.059-.37-.243-.696.322-.783 1.36-.682 2.139-.178 2.683.503.544.654.966.654.966l1.194-.067s.512-1.678.703-1.893c.191-.215-.163-.878-.363-1.11" fill="#EEAC3A"/><path d="M12 25.21s-.851.072-1.385-.21c-.427.376-1.004.742-1.615.716 0 .176.681.9 1.006 1.284.225-.004.452 0 .678 0 .488 0 .617-.052.876-.443.265-.401.437-.868.44-1.347" fill="#CD832C"/><path d="M8.442 21.929c-.715-.627-1.234-.984-1.751-.9-.367.059-.495-.243-.929.322-1.044 1.36-.908 2.14-.237 2.683.671.544.872.966.872.966l1.591-.068s.684-1.677.939-1.892c.255-.216-.218-.878-.485-1.111" fill="#EEAC3A"/><path d="M9 24.21s-1.135.072-1.847-.21c-.569.376-1.338.743-2.153.716 0 .177.908.9 1.341 1.284.3-.004.603 0 .904 0 .651 0 .823-.052 1.169-.444.352-.4.583-.867.586-1.346" fill="#CD832C"/><path d="M9.442 25.929c-.715-.627-1.234-.984-1.751-.9-.368.059-.494-.243-.928.322-1.045 1.36-.91 2.139-.238 2.683s.872.966.872.966l1.591-.068s.684-1.677.94-1.893c.254-.215-.22-.877-.486-1.11" fill="#EEAC3A"/><path d="M10 27.21s-1.135.073-1.846-.21c-.57.376-1.339.742-2.154.717 0 .175.909.899 1.342 1.283.3-.004.602 0 .903 0 .652 0 .823-.052 1.169-.443.353-.401.583-.868.586-1.347" fill="#CD832C"/><path d="M6.442 24.928c-.715-.626-1.235-.982-1.751-.9-.367.06-.495-.242-.928.323-1.044 1.36-.91 2.139-.238 2.683.671.544.872.966.872.966l1.592-.068s.684-1.677.938-1.893c.255-.215-.218-.877-.485-1.11" fill="#EEAC3A"/><path d="M7 26.21s-1.135.072-1.846-.21c-.57.376-1.34.742-2.154.716 0 .176.908.9 1.341 1.284.301-.004.603-.001.904-.001.65 0 .823-.05 1.168-.442.353-.402.583-.868.587-1.347" fill="#CD832C"/><path d="M6.442 28.928c-.715-.626-1.234-.982-1.75-.9-.37.06-.495-.242-.93.322-1.043 1.36-.908 2.14-.237 2.684.672.543.872.966.872.966l1.591-.068s.684-1.677.939-1.892c.255-.216-.219-.878-.485-1.112" fill="#EEAC3A"/><path d="M7 29.21s-1.135.072-1.846-.21c-.57.376-1.339.743-2.154.717 0 .175.909.899 1.342 1.283.3-.003.603 0 .904 0 .65 0 .822-.052 1.167-.443.354-.402.584-.868.587-1.347" fill="#CD832C"/><path d="M10.442 30.929c-.714-.627-1.235-.983-1.751-.9-.368.059-.494-.243-.928.322-1.044 1.36-.91 2.139-.238 2.683s.872.966.872.966l1.591-.068s.684-1.677.939-1.893c.255-.215-.219-.877-.485-1.11" fill="#EEAC3A"/><path d="M11 32.21s-1.135.073-1.846-.21c-.57.376-1.339.743-2.154.716 0 .177.908.9 1.341 1.284.302-.004.603 0 .904 0 .65 0 .823-.051 1.169-.443.353-.4.582-.868.586-1.347" fill="#CD832C"/><path d="M13.442 32.928c-.715-.626-1.235-.982-1.752-.9-.367.06-.494-.242-.928.323-1.044 1.36-.908 2.139-.237 2.683s.871.966.871.966l1.592-.068s.684-1.677.94-1.893c.254-.215-.22-.877-.486-1.11" fill="#EEAC3A"/><path d="M14 33.21s-1.135.072-1.847-.21c-.569.376-1.338.743-2.153.716 0 .177.909.9 1.341 1.284.3-.004.603 0 .904 0 .651 0 .824-.051 1.168-.443.354-.401.584-.868.587-1.347" fill="#CD832C"/><path d="M18.442 30.929c-.714-.627-1.235-.984-1.752-.9-.367.06-.494-.243-.927.322-1.044 1.36-.91 2.138-.238 2.683.671.544.871.966.871.966l1.592-.068s.684-1.678.939-1.893c.255-.215-.218-.877-.485-1.11" fill="#EEAC3A"/><path d="M19 32.21s-1.135.073-1.846-.21c-.57.376-1.339.743-2.154.716 0 .177.91.9 1.342 1.284.301-.004.603 0 .904 0 .65 0 .823-.051 1.168-.443.353-.401.583-.868.586-1.347" fill="#CD832C"/><path d="M17.442 33.928c-.715-.626-1.234-.983-1.751-.9-.367.06-.495-.242-.928.323-1.045 1.36-.91 2.139-.238 2.683.671.543.872.966.872.966l1.591-.068s.684-1.677.94-1.893c.254-.215-.22-.877-.486-1.11" fill="#EEAC3A"/><path d="M18 34.21s-1.135.073-1.846-.21c-.57.376-1.339.742-2.154.717 0 .175.909.898 1.342 1.283.3-.004.602 0 .904 0 .65 0 .822-.052 1.168-.444.353-.4.583-.867.586-1.346" fill="#CD832C"/><path d="M19.986 35.428s-.625.283-1.239 0c-.491.376-.97.596-1.672.57-.183-.404-.049-.942.598-1.711.382-.455.494-.212.817-.26.456-.067.712-.043 1.342.461.195.156.178.711.154.94-.65-.1 0 .013 0 0M19.986 39.429s-.625.282-1.24 0c-.49.376-.968.595-1.671.569-.183-.404-.05-.943.597-1.711.382-.455.495-.212.819-.26.456-.067.71-.043 1.341.462.195.155.178.71.154.94-.65-.102 0 .012 0 0M5.986 43.428s-.625.283-1.24 0c-.49.376-.968.596-1.671.57-.182-.404-.05-.942.597-1.711.383-.456.495-.212.819-.26.455-.067.71-.043 1.341.461.195.156.178.711.154.94-.65-.1 0 .013 0 0M9.985 45.429s-.624.282-1.238 0c-.491.376-.969.595-1.672.569-.183-.404-.05-.942.598-1.711.381-.455.493-.212.817-.26.456-.067.712-.043 1.342.461.195.156.178.712.153.94-.649-.1 0 .013 0 0M14.81 44.719c-.467.452-1.093.23-1.761.199-.174-.487.126-.648.74-1.573.364-.548.47-.254.777-.312.433-.081.676-.052 1.275.555.185.187.168.856.146 1.13-.49.385-.594.341-1.177 0M3.986 34.428s-.625.283-1.24 0c-.49.376-.967.596-1.671.57-.182-.405-.05-.942.597-1.711.383-.455.495-.212.818-.26.456-.067.711-.043 1.342.461.195.156.178.712.154.94-.65-.1 0 .013 0 0M10.442 33.929c-.715-.627-1.235-.983-1.752-.9-.367.059-.494-.243-.928.322-1.043 1.36-.908 2.139-.237 2.683s.872.966.872.966l1.591-.068s.684-1.677.939-1.893c.255-.215-.218-.877-.485-1.11" fill="#EEAC3A"/><path d="M12 35.21s-1.135.072-1.846-.21c-.57.375-1.34.742-2.154.716 0 .176.908.9 1.341 1.284.301-.004.603 0 .904 0 .651 0 .824-.051 1.168-.443.353-.401.584-.868.587-1.347" fill="#CD832C"/><path d="M14.442 35.929c-.715-.627-1.234-.983-1.751-.9-.368.059-.495-.243-.929.322-1.044 1.36-.908 2.14-.237 2.683.671.544.872.966.872.966l1.592-.068s.683-1.677.938-1.893c.254-.215-.218-.877-.485-1.11" fill="#EEAC3A"/><path d="M15 37.21s-1.134.072-1.847-.21c-.569.375-1.339.742-2.153.716 0 .176.908.9 1.341 1.284.301-.004.603 0 .905 0 .65 0 .822-.052 1.168-.443.353-.401.583-.868.586-1.347" fill="#CD832C"/><path d="M17.442 36.929c-.715-.627-1.235-.984-1.751-.9-.368.059-.495-.243-.928.321-1.044 1.36-.91 2.14-.238 2.684.671.544.872.966.872.966l1.59-.068s.685-1.677.94-1.892c.255-.216-.22-.878-.485-1.111" fill="#EEAC3A"/><path d="M18 38.21s-1.135.072-1.847-.21c-.569.376-1.338.743-2.153.716 0 .176.909.9 1.342 1.284.3-.004.602 0 .903 0 .651 0 .824-.052 1.169-.443.353-.401.583-.868.586-1.347" fill="#CD832C"/><path d="M6.442 32.928c-.715-.627-1.234-.983-1.752-.9-.367.06-.494-.242-.927.323-1.045 1.36-.91 2.139-.238 2.683.671.543.872.966.872.966l1.592-.069s.683-1.676.938-1.891c.255-.216-.218-.878-.485-1.112" fill="#EEAC3A"/><path d="M7 34.21s-1.135.073-1.847-.21c-.57.376-1.338.743-2.153.717 0 .176.909.899 1.341 1.283.302-.004.603 0 .904 0 .651 0 .824-.052 1.168-.443.353-.401.584-.868.587-1.347" fill="#CD832C"/><path d="M7.442 36.929c-.715-.627-1.235-.984-1.751-.9-.367.06-.494-.243-.928.322-1.044 1.36-.91 2.14-.238 2.683.672.544.872.966.872.966l1.592-.068s.683-1.677.938-1.892c.255-.216-.218-.878-.485-1.111" fill="#EEAC3A"/><path d="M8 37.21s-1.136.072-1.847-.21c-.569.376-1.339.743-2.153.716 0 .176.908.9 1.341 1.284.3-.004.603-.001.904-.001.651 0 .824-.05 1.17-.442.352-.401.582-.868.585-1.347" fill="#CD832C"/><path d="M12.442 38.929c-.716-.627-1.235-.984-1.751-.9-.367.059-.494-.243-.928.322-1.044 1.36-.91 2.139-.238 2.682.672.545.872.967.872.967l1.592-.068s.684-1.677.938-1.893c.255-.215-.219-.877-.485-1.11" fill="#EEAC3A"/><path d="M13 40.21s-1.136.073-1.847-.21c-.569.376-1.339.743-2.153.717 0 .176.909.899 1.342 1.283.3-.004.602 0 .903 0 .651 0 .823-.052 1.169-.443.352-.401.582-.868.586-1.347" fill="#CD832C"/><path d="M15.442 40.929c-.715-.627-1.235-.983-1.752-.9-.367.059-.493-.243-.927.323-1.045 1.359-.91 2.138-.238 2.682.672.543.872.966.872.966l1.592-.068s.683-1.677.938-1.893c.255-.215-.219-.877-.485-1.11" fill="#EEAC3A"/><path d="M16 42.21s-1.135.072-1.846-.21c-.57.376-1.34.743-2.154.716 0 .176.909.9 1.342 1.284.3-.004.602 0 .903 0 .652 0 .824-.051 1.169-.443.353-.402.583-.868.586-1.347" fill="#CD832C"/><path d="M18.442 41.928c-.715-.627-1.235-.983-1.751-.9-.368.06-.494-.242-.928.322-1.045 1.36-.91 2.14-.238 2.684s.872.966.872.966l1.591-.068s.684-1.677.94-1.892c.254-.216-.22-.878-.486-1.112" fill="#EEAC3A"/><path d="M19 42.21s-1.135.073-1.846-.21c-.57.376-1.339.743-2.154.717 0 .175.909.898 1.342 1.283.301-.004.603-.001.904-.001.65 0 .823-.05 1.167-.442.354-.401.584-.868.587-1.347" fill="#CD832C"/><path d="M9.442 41.93c-.715-.628-1.235-.985-1.752-.901-.367.059-.493-.243-.927.321-1.045 1.36-.91 2.14-.238 2.684s.872.966.872.966l1.59-.068s.685-1.677.94-1.893c.255-.215-.219-.877-.485-1.11" fill="#EEAC3A"/><path d="M10 42.21s-1.135.073-1.847-.21c-.568.376-1.338.743-2.153.716 0 .177.909.9 1.342 1.284.3-.004.602 0 .903 0 .652 0 .823-.051 1.169-.443.353-.401.583-.868.586-1.347" fill="#CD832C"/><path d="M12.443 41.929c-.716-.627-1.236-.984-1.752-.9-.368.059-.494-.243-.928.322-1.045 1.36-.91 2.139-.238 2.683.671.544.872.966.872.966l1.591-.068s.685-1.677.94-1.893c.254-.215-.22-.877-.485-1.11" fill="#EEAC3A"/><path d="M13 43.21s-1.135.073-1.846-.21c-.57.376-1.34.742-2.154.716 0 .177.908.9 1.342 1.284.3-.004.602 0 .903 0 .65 0 .823-.051 1.168-.443.354-.401.584-.868.587-1.347" fill="#CD832C"/><path d="M6.442 39.93c-.715-.628-1.235-.985-1.751-.901-.367.059-.495-.243-.928.322-1.044 1.36-.91 2.14-.238 2.683.671.544.872.966.872.966l1.592-.068s.684-1.677.938-1.892c.255-.216-.218-.877-.485-1.11" fill="#EEAC3A"/><path d="M7 41.21s-1.135.073-1.846-.21c-.57.376-1.34.742-2.154.717 0 .176.908.9 1.341 1.283.301-.003.603 0 .904 0 .65 0 .823-.051 1.168-.443.353-.4.583-.868.587-1.347" fill="#CD832C"/><path d="M5.443 34.928c-.716-.626-1.236-.983-1.752-.9-.368.06-.494-.242-.928.322-1.045 1.36-.91 2.14-.238 2.684s.872.966.872.966l1.591-.068s.684-1.677.939-1.892c.255-.216-.219-.878-.484-1.112" fill="#EEAC3A"/><path d="M6 36.21s-1.135.073-1.846-.21c-.57.376-1.339.742-2.154.717 0 .176.908.899 1.342 1.283.3-.004.602 0 .904 0 .65 0 .823-.052 1.167-.443.354-.401.584-.868.587-1.347" fill="#CD832C"/></g></svg>