<svg width="36" height="27" xmlns="http://www.w3.org/2000/svg" xmlns:xlink="http://www.w3.org/1999/xlink"><defs><path id="a" d="M0 .112h35.88V27H0z"/></defs><g fill="none" fill-rule="evenodd"><mask id="b" fill="#fff"><use xlink:href="#a"/></mask><path d="M.097 18.57S-1.079 9.78 4.75 4.623c5.83-5.156 17.808-5.662 23.155-2.68 5.348 2.984 9.734 10.867 7.274 15.922-2.461 5.054-8.027 5.113-13.21 3.64-3.4-.968-5.743.05-6.694 1.487-1.41 2.133-2.513 5.217-8.011 3.517-6.242-1.93-6.9-6.522-7.167-7.937" fill="#8C2035" mask="url(#b)"/><path d="M4.16 22.512s2.142 1.914 4.697 2.389c3.146.585 4.468-1.577 4.97-2.344.501-.765-.136-1.846-1.277-1.485-1.14.362-2.862 1.324-4.07 1.164-1.335-.177-5.323-1.795-4.32.276" fill="#751729"/><path d="M21.843 2.922C19.165.6 3.721 2.125 3.001 13.802c-.06.965 3.304 1.536 4.583.979 1.087-.477 1.461-1.303 2.312-2.064 3.763-3.369 5.923-3.807 9.545-3.78 2.607.02 5.084-3.647 2.402-6.015" fill="#93384E"/><path d="M10.92 7.303c.308.395-.3 1.029-1.36 1.414-1.058.385-2.169.376-2.479-.018-.31-.397.299-1.031 1.36-1.416 1.058-.386 2.169-.375 2.479.02" fill="#FEFEFE"/><path d="M33.524 11.481c-.043-.19-.08-.316-.103-.344l-.003.004c-.592-1.954-1.616-3.857-2.544-5.012-1.62-2.017-1.35-.717-1.35-.717 3.39 4.514.42 8.988-.058 9.678-.478.691-3.465 2.45-5.037 2.856-1.25.32-3.615.563-5.21.446-2.26-.163-3.763.632-3.033 1.203.612.481 2.685.329 3.96 1.066 1.154.667 4.978 1.636 7.288 1.252 1.648-.274 5.02-1.388 6.026-4.118.273-.741.458-1.992.525-2.727.067-.734-.091-2.242-.46-3.587" fill="#751729"/></g></svg>