<svg width="39" height="35" xmlns="http://www.w3.org/2000/svg" xmlns:xlink="http://www.w3.org/1999/xlink"><defs><path id="a" d="M.053.091h15.083V24.65H.053z"/><path d="M.782.398C.162.906-.383.697.736 1.21c1.12.513 6.763 2.788 10.72 6.158l.304.339 6.348 2.363-2.875-4.276S8.65 3.145 5.907 1.493C4.177.45 2.836.085 1.927.085 1.395.085 1.01.21.782.398" id="c"/><path d="M38.86 18.674c.449 1.063-3.047 2.912-4.928 1.35-1.074-.893-5.328-4.993-9.007-8.892l-.007.004s-3.561-3.604-6.97-4.36c-3.408-.756-6.86-2.367-8.108-2.803-1.248-.437-6.828-2.11-7.781-2.106C1.105 1.871-.98 1.422.535.69 2.051-.045 2.65-.278 5.075.414c2.077.591 10.617 3.273 14.567 4.524a5.43 5.43 0 0 1-.454-.8l3.126.448c.56.597 1.762 1.808 3.226 3.185.61.575 1.32 1.178 1.863 1.777 2.064 1.686 3.839 3.341 5.117 4.235" id="e"/></defs><g fill="none" fill-rule="evenodd"><path d="M22.344 18.117c.56.596 1.79 1.808 3.255 3.185 2.33 2.191 5.248 4.8 6.98 6.012 2.822 1.973 5.83 3.829 6.28 4.89.45 1.063-3.046 2.912-4.927 1.35-1.88-1.562-13.503-12.95-14.73-15.885l3.142.448z" fill="#EFF3CA"/><path d="M17.731 14.858s-6.583-2.651-9.326-4.303C5.663 8.904 3.901 8.952 3.28 9.46c-.62.509-1.164.3-.045.813 1.12.514 6.763 2.789 10.719 6.158l2.35 2.62 4.302.083-2.875-4.276z" fill="#408641"/><path d="M24.918 24.666s-3.56-3.604-6.97-4.36c-3.408-.756-6.86-2.366-8.108-2.803-1.248-.437-6.827-2.109-7.78-2.105-.954.003-3.038-.445-1.523-1.178 1.515-.735 2.117-.967 4.543-.276 2.425.692 13.687 4.237 16.123 5.019 2.436.781 6.318 4.116 6.318 4.116l-2.603 1.587z" fill="#408641"/><g transform="translate(12.384 .018)"><mask id="b" fill="#fff"><use xlink:href="#a"/></mask><path d="M.258.091c.988.272 2.308 1.576 2.734 3.036.425 1.46 3.131 8.925 4.345 10.641 1.214 1.718 5.816 7.285 7.8 9.293l-2.604 1.588S6.68 18.558 6.091 16.76C5.503 14.962.737 4.136.57 2.523.402.91-.284.52.258.091" fill="#408641" mask="url(#b)"/></g><path d="M13.234 1.628l-1.837.061s6.868 16.805 7.204 16.761c.336-.043 1.57-.032 1.57-.032l-6.937-16.79zM11.8 13.19S5.626 8.494 5.03 7.941c-.595-.553-.368-.377-.275-.87.093-.494.287-.838.794-.445.508.393 10.362 7.732 11.179 9.536L11.8 13.19z" fill="#408641"/><path d="M17.978 13.99c-1.241-2.02-6.216-9.97-6.62-10.636-.403-.666-.59-1.164-1.064-.824-.473.34.935 3.08 1.54 4.49.332.771 1.714 3.344 2.89 5.51a462.03 462.03 0 0 0 1.822 3.32l1.432-1.86zM8.187 6.584c-.507-.174-1.024.873-.734.954.29.08 6.779 6.52 6.779 6.52l1.423.19S9.829 7.15 8.187 6.584" fill="#408641"/><path d="M16.08 14.218s-4.927-7.279-5.36-7.72c-.435-.443-.568.69-.448.854.12.164-.014.338.757 1.167.77.828 4.111 5.502 4.111 5.502l.94.197z" fill="#408641"/><g transform="translate(2.499 9.063)"><mask id="d" fill="#fff"><use xlink:href="#c"/></mask><path d="M-1.402.057S2.45 1.734 2.912 1.67c.461-.063 4.478 1.828 5.54 2.407 1.06.58 4.168 2.736 5.608 3.314 1.44.577 2.644 1.994 3.217 2.331.572.338.83 2.814.83 2.814l-5.051-1.81S1.252 5.086.872 4.697C.493 4.307-1.402.057-1.402.057" fill="#DDE1B6" mask="url(#d)"/></g><g><path d="M38.656 32.328c-.275-.772-1.122-.6-1.746-.2-.623.4-2.38 1.67-1.347 1.802 1.033.132 3.27-.932 3.093-1.602" fill="#DDE1B6"/><g transform="translate(0 13.53)"><mask id="f" fill="#fff"><use xlink:href="#e"/></mask><path d="M38.86 18.674s-.116-.115-.465-.26c-.35-.146-.779-.314-1.485.184-.706.498-1.845 1.426-2.07 1.3-.224-.125-4.265-3.802-5.312-4.703-1.047-.9-3.091-3.423-4.152-4.338-1.06-.915-1.135-1.44-2.382-2.04-1.247-.601-2.694-1.952-4.29-2.202s-2.613-1.138-5.237-1.695c-2.624-.558-3.117-1.282-5.162-1.833-2.045-.55-3.94-1.1-4.913-1.25-.973-.15-1.571-.326-2.27-.376-.698-.05-.922.3-.922.3s20.699 9.382 22.32 9.957c1.621.575 4.813 5.454 6.185 5.929 1.372.476 4.525 3.578 6.54 3.603 2.014.025 4.932-.976 4.857-1.351-.074-.375-1.243-1.225-1.243-1.225" fill="#DDE1B6" mask="url(#f)"/></g></g></g></svg>