<svg width="26" height="43" xmlns="http://www.w3.org/2000/svg" xmlns:xlink="http://www.w3.org/1999/xlink"><defs><path d="M.058.05L2 9.933c-.13.236-.097.63.162.709.259.078.582-.276.906-.276.323 0 1.002.078 1.23.276.226.197.68.433.906.275.226-.157.42-.275.582-.63.161-.354.064-.63.226-.945.163-.314.066-.275.292-.551.227-.275.615-.669.615-.669V.051" id="a"/><path d="M13.467.409c-.566.254-1.535.59-1.535.59s-.484 1.69-.161 2.533c0 0 .484 3.039.08 3.883-.403.845-6.864 8.87-7.994 10.897-1.13 2.025-5.474 11.617-3.216 16.633 3.077 6.834 6.521 7.372 13.56 7.372 7.534 0 13.675-2.453 13.702-11.824v-.126c0-.16-.003-.321-.007-.485-.242-9.877-8.725-15.919-10.179-18.029-1.453-2.111-2.716-5.872-2.716-7.898 0-2.027.161-2.786 0-3.462-.07-.294-.264-.396-.508-.396-.313 0-.708.17-1.026.312" id="c"/></defs><g fill="none" fill-rule="evenodd"><path d="M10.212 3.499s-.116 5.42-.957 6.782c-.493.797-5.682 6.207-6.788 8.27C1.361 20.614-1.372 30.352.84 35.461 3.849 42.42 5.702 43 12.59 43c7.53 0 13.64-2.606 13.402-12.666-.237-10.059-8.766-16.572-10.188-18.72-1.422-2.15-2.431-5.622-2.431-7.685 0-2.064.157-2.838 0-3.525-.16-.688-.95-.344-1.502-.086-.554.258-1.502.601-1.502.601s-.474 1.72-.158 2.58" fill="#512951"/><g transform="translate(8 -1)"><mask id="b" fill="#fff"><use xlink:href="#a"/></mask><path d="M2.385 5.181s.464 3.389.077 4.33c-.387.943-6.579 9.893-7.661 12.153-1.084 2.258-3.792 9.131-.542 16.569 3.25 7.438 8.668 8.6 10.912 8.317 2.244-.282 11.994-2.856 11.762-13.871-.232-11.015-7.97-19.684-9.363-22.037-1.393-2.354-2.09-2.73-2.09-4.99 0-2.26.155-3.107 0-3.86-.155-.752-.93-.376-1.47-.094-.542.283-1.47.659-1.47.659S2.074 4.24 2.384 5.18" fill="#6F4A23" mask="url(#b)"/></g><g transform="translate(-2 1)"><mask id="d" fill="#fff"><use xlink:href="#c"/></mask><path d="M11.31 7.573c-.034.159-.084.742.304.689.388-.053.557-.213 1.182-.125.625.09.962.23 1.485.318.524.089.778.071.88-.264.1-.335.184-.97.438-1.254.254-.282.574-.476.743-.6.168-.123-.895-2.17-.845-3.106.052-.936-.607-1.06-.725-.583-.119.477-.169 1.554-.524 1.942-.354.388-1.03.759-1.182.176-.152-.582-.32-.865-.625-.423-.304.441-.219.97-.692.953-.473-.018-.439 2.277-.439 2.277" fill="#888E39" mask="url(#d)"/></g><path d="M.015 33.09c-.06-.11 1.47 7.893 9.83 7.893 8.879 0 12.263-4.124 13.085-9.74 0 0-3.323 7.552-12.593 7.552-6.428 0-9.602-4.353-10.322-5.704" fill="#512951"/><path d="M4.537 27.083c.02-.18-2.124 9.279 2.98 12.23l1.542.284s-5.687-2.062-4.522-12.514M16.29 23.973c-.062-.19 4.301 9.54-.348 13.926l-1.54.667s5.454-3.559 1.888-14.593" fill="#512951"/><path d="M18.6 16.965c-1.52-1.873-4.75-3.649-4.94-4.634-.175-.912-1.33 1.084-2.09.887-.76-.197-1.532-.55-1.817-.452-.286.099-1.805 0-1.805 0s-2.268 1.34-4.072 3.017c-1.806 1.675 1.14 1.182 2.85.393.17-.078.34-.154.513-.227l-.04.086c-.277.72-.277 2.158.694 2.23.97.072 1.593-.504 2.564-.576.97-.071 2.218.288 3.12.217.603-.05 1.612-.292 2.233-.512.748.449 1.574.943 2.125 1.642.856 1.085 2.186-.197.666-2.071" fill="#AF4C74"/></g></svg>