<svg width="39" height="39" xmlns="http://www.w3.org/2000/svg" xmlns:xlink="http://www.w3.org/1999/xlink"><defs><path d="M1.21 11.051c-4.275 9.514 6.326 20.217 9.171 22.426 1.44 1.118 2.753.668 4.037.219 1.253-.439 2.479-.877 3.772.138 2.619 2.055 7.78-.018 7.78-.018 4.245.51 9.604-10.532 10.567-13.76.96-3.228 2.457-9.005-1.479-13.591C31.123 1.878 24.633.179 19.184.179c-7.159.17-13.7 1.36-17.974 10.872" id="a"/></defs><g fill="none" fill-rule="evenodd"><path d="M20.026 3.739c5.449 0 11.939 1.698 15.874 6.285 3.936 4.587 2.44 10.364 1.478 13.592-.961 3.227-6.321 14.27-10.565 13.76 0 0-5.162 2.073-7.781.017-2.619-2.055-4.964 1.852-7.809-.357-2.845-2.208-13.446-12.91-9.171-22.425C6.326 5.098 12.867 3.91 20.026 3.74" fill="#A82424"/><g transform="translate(.842 3.56)"><mask id="b" fill="#fff"><use xlink:href="#a"/></mask><path d="M2.577 26.172c1.337.076 3.078 1.104 4.788 1.868 1.71.765 4.017 1.19 6.668 1.19 2.65 0 2.906 1.019 7.35 0 4.447-1.02.732-.318 7.524-1.954 1.974-.475 3.62-4.251 4.525-5.762 1.755-2.936.374-4.552 1.972-7.574.482-.913 3.137-6.574 3.761-7.4.482.767.325 5.728.128 6.571a97.535 97.535 0 0 1-1.528 5.704c-1.114 3.723-2.26 7.355-2.985 11.174-.686 3.609-3.75 5.14-7.037 6.263-5.67 1.938-12.245 2.323-17.868.02-4.02-1.647-7.329-4.638-7.332-9.179 0-.392.017-.785.034-1.176" fill="#891C1B" mask="url(#b)"/></g><path d="M16.657 9.198c.445.369 1.042.733 1.582.859.739.17 1.567-.23 2.312-.37 2.101-.397 3.418-.675 4.844-2.375-.114.135-2.062-.088-2.365-.077-.86.03-1.714.12-2.57.2a44.616 44.616 0 0 1-4.218.211c-.963 0 .053 1.23.246 1.406.054.048.11.097.169.146" fill="#891C1B"/><path d="M20.756 8.67s.01-3.277.426-4.084c.416-.807.82-2.038.906-2.463.086-.423-.696-.848-1.315-.763-.62.086-.743 1.275-.743 1.275v6.03l.726.005z" fill="#28100F"/><path d="M11.455 11.235c3.679-.366 9.669-.652 11.712 3.316 1.267 2.462.124 5.252-2.597 5.935-2.986.748-5.832-.385-8.773-.693-3.248-.34-6.24 3.653-7.18-.255-.941-3.907-1.368-5.775.683-6.71 2.052-.935 6.155-1.593 6.155-1.593" fill="#D78687"/><path d="M13.216 12.69c.922.14 2.715.466 2.686 1.688-.038 1.569-2.934 1.146-4.087 1.362-1.442.272-5.354 1.403-5.261-.99.103-2.689 4.922-2.328 6.662-2.06" fill="#FEFEFE"/><path d="M19.356 8.7c.772-.053-.922-3.845-5.33-6.234C10.87.756 5.933-.087 1.305.992c0 0 1.756 8.85 18.052 7.709" fill="#6A893A"/><path d="M19.356 8.7C22.275 8.326 3.519 1.86 2.219 1.25.918.642 0 1.25 0 1.25s1.683.436 1.913.902c.23.466 2.677 8.45 17.443 6.549" fill="#81A73F"/><path d="M27.28 25.932c.05.105-.01-.056.015.038.003.008.015.078.02.083l-.006-.047.003.058v.1c0 .2.178.391.385.382a.39.39 0 0 0 .385-.383c0-.225-.04-.414-.138-.617-.088-.18-.361-.243-.526-.137-.187.12-.232.33-.138.523M23.774 27.716c.015.03.016.047.005.007.005.02.009.09.011.028.002-.04-.002-.071.016-.11.007-.016.071-.095.029-.05-.138.147-.157.399 0 .541.149.137.397.156.543 0a.584.584 0 0 0 .177-.396.909.909 0 0 0-.116-.406c-.088-.18-.362-.243-.527-.137-.186.12-.231.33-.138.523M22.055 25.696a1.01 1.01 0 0 0-.614.283.384.384 0 0 0 0 .54.395.395 0 0 0 .544 0c.063-.058-.07.037.013-.011l.067-.04a.332.332 0 0 1 .002-.002c.007-.019.146-.016-.012-.005.2-.013.394-.167.385-.383-.01-.195-.17-.396-.385-.382M10.663 28.192a1.519 1.519 0 0 1 .154.092c-.033-.027-.04-.031-.018-.015.043.04.086.078.128.119.143.14.403.153.544 0a.387.387 0 0 0 0-.54 1.746 1.746 0 0 0-.42-.316c-.178-.092-.426-.051-.526.137-.094.176-.053.425.138.523M7.737 25.74c.025-.065.05-.13.077-.194l-.015.015c-.034.012-.062.071-.079.1a.605.605 0 0 0-.069.248c-.023.2.193.39.385.382.228-.01.36-.168.384-.382l-.077.192.014-.014c.035-.012.063-.071.08-.1a.607.607 0 0 0 .069-.248c.023-.2-.194-.39-.385-.382-.228.01-.36.169-.384.382M5.214 25.357c.495 0 .496-.765 0-.765-.495 0-.495.765 0 .765M6.474 27.683c.084.04.17.076.259.11.083.031-.029-.015-.003-.001.082.042-.05-.052.008.001.147.137.4.156.544 0 .137-.148.157-.394 0-.54a.783.783 0 0 0-.24-.155c-.04-.017-.078-.033-.118-.047a1.554 1.554 0 0 1-.062-.028c-.18-.087-.424-.055-.526.137-.091.17-.056.43.138.523M31.544 18.052c.009 0 .017.002.026.003l-.195-.052c-.026-.011-.105-.125-.047-.04.035.052.073.101.115.147.136.148.409.147.544 0a.389.389 0 0 0 0-.54c.043.046-.012-.02-.018-.03a.843.843 0 0 0-.09-.116c-.092-.095-.208-.122-.335-.137-.2-.024-.393.193-.384.383.01.227.17.356.384.382M31.33 20.812c.009-.126 0-.022-.01.014-.01.028-.02.055-.028.082a.956.956 0 0 0-.047.244c-.013.2.186.391.384.382.22-.01.371-.168.385-.382-.008.127 0 .022.011-.014l.027-.081a.959.959 0 0 0 .048-.245c.013-.2-.186-.39-.385-.382a.392.392 0 0 0-.384.382" fill="#B84343"/></g></svg>