<svg width="38" height="40" xmlns="http://www.w3.org/2000/svg" xmlns:xlink="http://www.w3.org/1999/xlink"><defs><path d="M19.38.139h-.857C18.153.097 17.29.63 17.29.63s-1.604-.41-3.043.205c0 0-12.162-.502-14.064 13.296-1.818 13.19 10.521 16.323 13.694 16.292 0 0 2.18.698 2.96.041 0 0 .165.492 1.975.492h.28c1.81 0 1.975-.492 1.975-.492.78.657 2.96-.04 2.96-.04 2.18.122 15.77-2.519 13.695-16.293C35.337-1.675 24.236 1.001 24.236 1.001c-1.44-.616-3.623-.37-3.623-.37s-.8-.494-1.19-.494a.39.39 0 0 0-.044.002z" id="a"/><path id="c" d="M.098.102h5.724V9.16H.098z"/></defs><g fill="none" fill-rule="evenodd"><path d="M15.385 6.932c-.235-.108-.358-.121-.292.375.066.497.623 1.05.299 1.338-.325.29-.56.18-.612.624-.052.443-.552.467-.462.763.09.296-.7-.732-.965-.6-.264.134-.946-.76-1.115-.37-.17.387-.186-.185-.75.036-.563.222 1.087-1.14.371-1.751 0 0 1.278-.304.958-.748 0 0-1.463.119-1.795.122-.331.003.118-1.006-.923-1.654 0 0 .501-1.452-.761-2.33 0 0 2.389.802 2.284-.066 0 0 1.457.288 1.89-.234 0 0 .705.693.92 1.329.216.636.185-.51.237-.952 0 0 .97.192 1.293-.79 0 0 .841 1.645 2.109 1.422 0 0-.82.64-.29 1.068 0 0-.932.559-.868 1.043.022.166-1.827.403-1.271.956.556.552.487.423 1.43 1.223.94.8 2.702 2.02 1.95 3.484l-.34-.283s.71-1.102-1.766-2.934c-2.476-1.83-1.531-1.07-1.531-1.07" fill="#687F36"/><path d="M19.091 39.958c1.81 0 1.974-.486 1.974-.486.781.649 2.96-.04 2.96-.04 2.181.12 15.746-2.483 13.696-16.081-2.34-15.516-14.065-13.125-14.065-13.125-1.44-.607-3.043-.202-3.043-.202s-.863-.528-1.234-.486h-.856c-.37-.042-1.234.486-1.234.486s-1.604-.405-3.043.202c0 0-12.123-2.173-14.064 13.125-1.73 13.641 11.514 16.202 13.694 16.08 0 0 2.18.69 2.96.041 0 0 .165.486 1.975.486h.28z" fill="#FAAA18"/><g transform="translate(0 9)"><mask id="b" fill="#fff"><use xlink:href="#a"/></mask><path d="M19.674 31.825l2.138.328 13.256-5.094-.48-3.692s-5.127 5.831-3.605 1.03c0 0-2.756 2.961-2.88 1.402 0 0-1.863 3.223-3.221.392 0 0-2.962 4.933-5.964.911h-.163c-3.002 4.022-5.234-.652-5.234-.652-1.357 2.832-3.57-1.216-3.57-1.216-.123 1.56-2.983-.837-2.983-.837 1.52 4.801-4.45-.982-4.45-.982l-.864 1.272 8.95 7.466 7.672-.328h1.398z" fill="#DB7426" mask="url(#b)"/></g><g><path d="M12.611 25.634s.078 9.805 4.407 12.187c0 0-4.563 1.654-4.407-12.187M6.213 28.095c-.025-.119 3.2 8.112 7.607 9.604 0 0-5.46.323-7.607-9.604M26.225 25.19s-.08 9.806-4.408 12.187c0 0 4.564 1.654 4.408-12.188M32.622 27.651c.025-.118-3.2 8.111-7.607 9.605 0 0 5.46.322 7.607-9.605" fill="#DB7426"/><path d="M8.788 14.253c1.677-2.664 5.071-4.318 5.071-4.318l-5.07 4.318zM18.15 9.492s-2.691 0-3.979 4.155c0 0 2.886-3.55 3.979-4.155M30.906 13.97c-1.678-2.663-5.072-4.318-5.072-4.318l5.072 4.319zM21.543 9.209s2.692 0 3.979 4.157c0 0-2.886-3.552-3.979-4.157" fill="#FEDE78"/><path d="M8.32 14.819c.126-.125-1.99 4.6-2.262 6.618 0 0 .468-4.843 2.262-6.618M11.909 22.769s.195-5.65 1.443-7.628c1.249-1.977-1.131 5.57-1.443 7.628" fill="#E47524"/><path d="M8.32 14.819c.126-.125-1.99 4.6-2.262 6.618 0 0 .468-4.843 2.262-6.618M11.909 22.769s.195-5.65 1.443-7.628c1.249-1.977-1.131 5.57-1.443 7.628M30.64 13.85c-.125-.125 1.99 4.6 2.263 6.618 0 0-.468-4.843-2.263-6.618M27.23 21.848c-.445-2.514-.006-5.265-1.426-7.514-.575-.91-.26.597-.195.909.286 1.36.664 2.705 1.022 4.047.226.846.446 1.695.6 2.558" fill="#DB7426"/><g transform="translate(18.472)"><mask id="d" fill="#fff"><use xlink:href="#c"/></mask><path d="M.185 8.886S-.592 5.17 2.487 1.703c0 0 1.092-2.18 2.184-1.453 1.092.726 1.443 2.3.897 2.866-.546.564-1.248.12-1.872 1.412-.625 1.291-1.95 3.632-1.6 4.317.352.686-1.91.04-1.91.04" fill="#687F36" mask="url(#d)"/></g><path d="M19.866 12.72c-.03-.204-.897 6.214-.428 7.829 0 0 .663-6.215.428-7.83" fill="#DB7426"/><path d="M20.31 6.041c.104 1.408 1.897 2.638 3.205 2.53 1.287-.106 1.764-1.838 1.473-2.958-.344-1.326-1.881-1.22-2.607-.3-.913 1.16.305 1.863 1.304 1.998.716.096 1.437.056 2.156.05.31-.003.609-.015.918-.046.334-.032.685-.123.93.147.411.453-.285 1.173-.821.893-.122-.064-.44.111-.277.197.784.41 2.293-.778 1.319-1.401-.477-.306-1.246-.042-1.767-.033-.674.013-1.353.042-2.026-.016-.665-.058-1.862-.234-1.672-1.221.122-.633.896-1.213 1.51-1.005.566.193.746.856.74 1.401a3.674 3.674 0 0 1-.269 1.346c-.305.707-.93.801-1.581.602-.97-.296-2.098-1.174-2.18-2.282-.01-.146-.366-.063-.354.098" fill="#687F36"/></g></g></svg>