<svg width="35" height="36" xmlns="http://www.w3.org/2000/svg" xmlns:xlink="http://www.w3.org/1999/xlink"><defs><path d="M27.065.887c-.81-.324-1.27.41-1.27.41-.891-.355-1.238.8-1.238.8-.768-.134-.864.632-.864.632-.745-.134-1.102.756-1.102.756-1.014-.053-1.02.9-1.02.9-.484-.316-1.274.54-1.274.54-.962-.065-1.29 1.338-1.29 1.338-1.063.247-1.382 1.452-1.382 1.452-.734-.219-.776.88-.776.88-1.037-.226-1.65 1.122-1.65 1.122-1.231.142-1.567 1.506-1.567 1.506-.629-.016-.722.86-.722.86-.478-.214-.592.42-.592.42-1.142.036-1.183 1.425-1.183 1.425-.956.04-.972 1.252-.972 1.252-.795-.13-.977.734-.977.734-.766-.14-.85.95-.85.95-.544-.17-1.002 1.146-1.002 1.146-.441-.13-.725.811-.725.811-.73.178-1.589 1.85-1.589 1.85-1.105.706-.884 1.924-.884 1.924-1.006.021-1.394 1.5-1.394 1.5-.94-.007-1.056 1.282-1.056 1.282-.784-.032-1.25 1.276-1.25 1.276-.566.354-.492 1.226.028 1.644-.261.558.678.686.678.686-.389.618.851.808.851.808-.174.844.891 1.058.891 1.058-.162.872.876.98.876.98.047.9.428.843.857.787.165-.022.337-.044.5-.011.588.117 2.602-1.094 2.736-1.181.135-.086 3.962-3.502 3.962-3.502.645-.141 1.512-1.248 1.512-1.248.887-.16.693-.848.693-.848.692-.028.928-.847.928-.847 1.017-.134 1.102-1.107 1.102-1.107.94-.234.798-1.11.798-1.11.503.036.64-.658.64-.658.45.11.843-.109 1.553-.646.709-.537 5.891-7.65 7.052-8.57.87-.689.91-1.713.875-2.182-.011-.157-.032-.251-.032-.251.744-.039.477-1.48.477-1.48.547-.192.637-.96.637-.96.948-.919.62-1.878.62-1.878.56-.342.346-.92.346-.92.46-.386.56-1.267.56-1.267.571-.242.153-.919.153-.919 1.007-.812.027-1.238.027-1.238.261-.064.801-.824.208-1.279-.553-.424-1.043.063-1.106.13.03-.037.112-.211-.609-.481a.84.84 0 0 0-.295-.057c-.611 0-.89.78-.89.78" id="a"/><path id="c" d="M.064.085h30.807v29.828H.064z"/><path d="M26.838 3.968c-.847 1.467-2.773 4.175-3.489 4.776-.716.6-6.423 7.484-7.54 8.158-.945.57-5.613 5.934-6.626 7.526-2.296 1.699-5.437 3.902-6.135 4.021-.42.072-.966-.08-1.474-.233-.73-.218-1.384-.437-1.49.007-.133.553.395.848 1.522 1.397 1.127.55 4.004.259 5.697-.32 1.693-.578 6.555-1.71 6.906-2.235.35-.525 10.938-11.315 11.908-13.225.97-1.91 3.448-10.796 4.693-12.864 0 0-.034-.116-.051-.229h.112c-.014 0-.02-.138-.062-.145-.376-.363-.722-.517-1.044-.517-1.352 0-2.25 2.715-2.927 3.883z" id="e"/></defs><g fill="none" fill-rule="evenodd"><path d="M26.219 18.578c1.577-2.37 5.917-9.918 6.472-11.584.407-1.224.648-2.67.864-3.984-.82.153-1.573 1.011-2.254 1.472-.388.263-1.259.626-1.518 1.028l-4.249 7.58.685 5.488zM19.646 15.779c1.806-2.196 6.883-9.258 7.602-10.859.529-1.176.914-2.59 1.26-3.874-.831.068-1.666.844-2.39 1.233-.412.221-1.315.492-1.613.865l-4.988 7.104.129 5.53z" fill="#6A893A"/><path d="M19.939 8.742s5.148-5.341 5.396-6.297c.249-.956.895-1.69.848-2.1-.092-.799-.705.086-1.771.61-1.067.524-5.866 1.832-7.365 3.675-1.499 1.843-3.639 5.597-3.639 5.597l-4.727 8.377-1.89 3.562.89.969L19.94 8.742z" fill="#6A893A"/><path d="M2.094 30.29c-.512-.418-.585-1.292-.027-1.647 0 0 .46-1.309 1.233-1.277 0 0 .114-1.29 1.042-1.285 0 0 .382-1.48 1.374-1.501 0 0-.218-1.22.873-1.928 0 0 .848-1.674 1.567-1.852 0 0 .28-.942.715-.813 0 0 .452-1.318.987-1.148 0 0 .084-1.092.84-.95 0 0 .18-.866.963-.736 0 0 .016-1.213.96-1.254 0 0 .04-1.39 1.166-1.427 0 0 .112-.635.584-.42 0 0 .092-.878.711-.862 0 0 .332-1.366 1.547-1.508 0 0 .604-1.35 1.627-1.124 0 0 .041-1.1.766-.882 0 0 .314-1.206 1.363-1.454 0 0 .323-1.404 1.272-1.34 0 0 .779-.857 1.257-.541 0 0 .005-.953 1.005-.901 0 0 .353-.89 1.088-.757 0 0 .094-.767.852-.632 0 0 .342-1.157 1.222-.803 0 0 .452-.734 1.252-.41 0 0 .361-1.031 1.168-.725.806.306.594.49.594.49s.512-.593 1.097-.138c.585.455.053 1.216-.205 1.28 0 0 .967.428-.027 1.24 0 0 .413.68-.15.92 0 0-.099.884-.553 1.27 0 0 .212.579-.341.922 0 0 .324.96-.612 1.88 0 0-.089.77-.628.963 0 0 .264 1.442-.47 1.48 0 0 .02.095.03.252.035.47-.004 1.496-.862 2.186-1.145.92-6.257 8.045-6.956 8.583-.7.538-1.087.756-1.531.647 0 0-.136.695-.632.66 0 0 .14.877-.787 1.11 0 0-.084.975-1.087 1.109 0 0-.232.82-.916.849 0 0 .192.688-.683.849 0 0-.855 1.108-1.49 1.25 0 0-3.776 3.42-3.91 3.507-.132.087-2.118 1.3-2.698 1.183-.58-.118-1.275.47-1.339-.777 0 0-1.023-.109-.863-.982 0 0-1.051-.215-.88-1.06 0 0-1.222-.19-.838-.809 0 0-.927-.128-.67-.687" fill="#F9BF37"/><path d="M1.836 30.508s.085-1.091 1.092-2.232c1.007-1.14 4.536-6.387 5.344-7.776.807-1.39 7.483-14.843 8.775-15.87 0 0-6.057 7.424-7.173 8.974-1.115 1.548-12.82 16.294-8.038 16.904" fill="#81A73F"/><path d="M26.76 11.595c-.368-.2-1.115-.589-1.335-.216-.22.374.533.884 1.005 1.202.472.317.98-.393.33-.986M21.97 11.134c-.369-.2-1.116-.59-1.335-.216-.22.374.533.884 1.005 1.202.472.317.979-.393.33-.986" fill="#FECF7D"/><path d="M19.213 13.536c-.37-.2-1.117-.59-1.336-.216-.22.374.534.884 1.006 1.201.47.318.978-.393.33-.985M21.419 13.585c-.37-.201-1.116-.59-1.336-.216-.22.373.533.883 1.005 1.2.472.319.98-.392.33-.984" fill="#E8A829"/><path d="M29.195 5.439c-.37-.2-1.116-.59-1.336-.216-.22.374.533.884 1.005 1.202.472.317.98-.393.33-.986M18.59 19.686c-.37-.2-1.117-.59-1.337-.216-.22.374.533.884 1.005 1.201.472.318.98-.392.331-.985" fill="#FECF7D"/><path d="M12.15 18.91c-.369-.2-1.116-.59-1.336-.216-.22.373.534.884 1.005 1.201.472.318.98-.393.331-.985" fill="#E8A829"/><path d="M14.416 25.666c-.37-.2-1.116-.589-1.336-.215-.22.373.534.883 1.005 1.2.472.318.98-.392.331-.985" fill="#FECF7D"/><path d="M12.372 24.24c-.37-.2-1.116-.589-1.336-.215-.22.374.533.884 1.005 1.201.472.318.979-.392.33-.985" fill="#E8A829"/><path d="M8.325 24.362c-.369-.2-1.116-.59-1.336-.216-.22.374.534.884 1.006 1.202.471.317.978-.393.33-.986M16.09 15.446c-.226-.096-.685-.275-.918.09-.234.364.207.645.483.82.276.174.783-.537.435-.91" fill="#FECF7D"/><path d="M23.422 12.292c-.225-.095-.685-.275-.918.09-.233.364.207.645.483.82.276.174.783-.537.435-.91M15.496 18.442c-.225-.095-.685-.275-.918.09-.233.364.207.645.483.82.276.174.784-.537.435-.91M27.6 8.144c-.225-.096-.684-.275-.917.089-.233.364.207.646.483.82.276.175.783-.536.435-.91M22.23 8.186c-.226-.096-.686-.275-.92.09-.232.363.208.645.484.82.276.174.783-.537.435-.91M23.428 8.671c-.225-.095-.685-.275-.918.09-.233.364.207.645.484.82.275.174.782-.536.434-.91M16.57 23.907c-.226-.095-.686-.275-.919.09-.233.364.207.645.483.82.276.174.783-.537.435-.91M10.982 23.088c-.226-.095-.686-.274-.918.09-.234.364.206.645.483.82.276.174.783-.537.435-.91" fill="#E8A829"/><path d="M17.444 16.514c-.37-.2-1.116-.59-1.336-.216-.22.374.534.884 1.005 1.201.473.318.98-.393.331-.985M16.84 21.37c-.293-.146-.89-.425-1.116-.056-.227.368.363.759.731 1.001.37.243.877-.468.386-.945M21.317 15.337c-.37-.2-1.116-.59-1.336-.215-.22.373.534.883 1.006 1.201.471.318.978-.393.33-.986M25.436 6.415c-.37-.2-1.116-.59-1.336-.216-.22.374.533.884 1.005 1.202.473.317.98-.393.33-.986" fill="#FECF7D"/><g transform="translate(2.02 2)"><mask id="b" fill="#fff"><use xlink:href="#a"/></mask><path d="M25.545 12.057s-2.34 2.44-2.683 3.014c-.344.574-5.392 5.41-6.415 6.426-1.022 1.015-4.26 4.624-4.829 5.503-.57.88-4.064 4.23-5.033 4.316-.97.088-2.121.887-2.42-.099-.3-.985-1.604-3.208-3.523-3.99 0 0-.272.488-.356.888-.084.4 2.628 3.415 2.628 3.415l1.548.357 1.773.301 5.802-2.685L25.59 13.385l2-2.072s-.36-.806-.887-.354c-.528.453-1.157 1.098-1.157 1.098" fill="#E8A829" mask="url(#b)"/></g><g transform="translate(4.038 6)"><mask id="d" fill="#fff"><use xlink:href="#c"/></mask><path d="M30.81.976s-.062-.212-.062-.343v.114h.123c-.014 0-.02-.138-.062-.145-1.956-1.893-3.134 1.92-3.97 3.367-.848 1.466-2.774 4.174-3.49 4.774-.716.6-6.423 7.485-7.54 8.159-.945.57-5.613 5.934-6.626 7.526-2.296 1.699-5.437 3.902-6.135 4.021-1.025.175-2.784-.979-2.964-.227-.133.554.395.849 1.522 1.398 1.127.55 4.004.259 5.697-.32 1.693-.578 6.555-1.71 6.906-2.235.35-.525 10.938-11.315 11.908-13.225.97-1.91 3.448-10.796 4.693-12.864" fill="#81A73F" mask="url(#d)"/></g><g transform="translate(4.038 6)"><mask id="f" fill="#fff"><use xlink:href="#e"/></mask><path d="M1.463 28.181s.683.244.857.23c.667-.06 1.336-.53 2.001-.61 1.178-.14 2.892.78 3.887.073 1.391-.992 2.665-2.192 3.992-3.273a95.59 95.59 0 0 0 6.045-5.342 79.672 79.672 0 0 0 3.261-3.342c2.553-2.77 4.344-6.117 6.218-9.371.498-.864.988-1.732 1.522-2.574.138-.215.56-1.206.933-1.013.25.13.137.91.136 1.126a43.481 43.481 0 0 1-.14 3.33c-.027.332-.025.687-.116 1.01-.13.46-10.586 17.171-11.538 18.232-.952 1.062-10.567 5.436-11.505 5.08-.937-.355-7.424-2.75-7.424-2.75l.781-1.495 1.09.69z" fill="#6A893A" mask="url(#f)"/></g><path d="M2.3 30.676c-.38-.103-.993.644-1.178.946-.185.302-.355.909-.702 1.175-.346.267-.641.76-.192 1.129.45.37 1.95 2.11 2.427 2.073.475-.035 1.33-.925 1.387-1.112 0 0 .911-.27 1.343-.897 0 0-.508-2.464-3.086-3.314" fill="#FAF5B4"/></g></svg>