<svg width="44" height="37" xmlns="http://www.w3.org/2000/svg" xmlns:xlink="http://www.w3.org/1999/xlink"><defs><path id="a" d="M0 .022h31.959V24.89H0z"/><path d="M34.11 3.161c1.064 2.507 2.247 6.554 1.597 10.429-.65 3.875-3.668 8.947-7.278 10.428-3.608 1.482-4.259 3.192-8.696 2.85-4.438-.342-3.139-.317-4.91-.763-.092-.023-.156-.108-.194-.245a27.67 27.67 0 0 1-9.906-3.69C-1.531 18.327.21 16.382.446 15.75c.237-.63.592-1.19 1.124-.678.532.513.887-.456 1.952-.342 1.066.114.533 1.595 2.012 1.482 1.479-.114 3.964-3.99 4.555-4.902.592-.911 1.952-2.849 2.662-3.419.711-.57 1.776-2.85 2.308-3.858 0 0 2.47.89 5.193 2.48.841-2.341 1.433-3.922 1.433-3.922.888-.968.947-.74 2.16-.626 1.213.113.621-.741 1.982-1.254 1.36-.513 1.183-.684 2.899-.684" id="c"/></defs><g fill="none" fill-rule="evenodd"><mask id="b" fill="#fff"><use xlink:href="#a"/></mask><path d="M9.786 20.527c-1.144 1.28-3.2 4.364-3.2 4.364s.056-1.687-.344-1.804c-.4-.116-.515.815-2.287.757-1.772-.058-1.83-1.135-1.83-1.135s-2.058.32-2.115-1.31c-.057-1.628.057-8.96 2.116-9.658 2.058-.698 4.116-2.385 5.03-3.316.915-.931 2.745-2.037 4.632-1.106 1.886.931-.172-.814-.4-1.454-.23-.64-.572-3.375 2.058-4.132C16.076.977 15.332-.07 17.39.046c2.059.116 2.573-.377 4.802.597 2.23.974 5.489 3.01 7.09 3.36 1.6.349 3.545 4.654 2.258 6.69-1.286 2.037-1.4 5.12-1.4 5.12L9.785 20.528z" fill="#59893D" mask="url(#b)"/><path d="M35.52 19.05c-.823-3.078-2.499-4.666-3.987-6.557-.689-.878-1.239-1.533-1.98-2.012-.855-.554-1.968-.873-3.851-1.027-3.511-.286-6.367-.86-8.36 0-1.994.86-6.755 2.58-7.052 5.16-.297 2.58-5.594 10.147 1.012 15.077 6.605 4.93 12.734 5.79 16.304 5.102 3.57-.688 10.235-7.064 7.914-15.743" fill="#8ABE60"/><path d="M30 10.576c.874-.974.932-.745 2.127-.63 1.196.115.613-.744 1.954-1.26C35.42 8.173 35.247 8 36.937 8c1.691 0 4.256.63 5.306 3.148 1.05 2.518 2.215 6.581 1.574 10.473-.641 3.891-3.615 8.985-7.172 10.473-3.556 1.488-4.197 3.205-8.57 2.862-4.373-.344-3.093-.318-4.839-.767C21.49 33.741 30 10.576 30 10.576" fill="#59893D"/><path d="M23.855 11c-.526 1.051-1.58 3.424-2.283 4.018-.703.593-2.049 2.61-2.634 3.56-.586.949-3.045 4.984-4.508 5.103-1.463.118-.936-1.425-1.99-1.543-1.054-.118-1.405.89-1.932.356-.527-.534-.878.05-1.113.707-.233.657-1.956 2.682 4.233 6.683 6.188 4.002 12.494 4.345 13.743 4.025 1.25-.32 5.85-1.372 8.34-9.42C38.197 16.442 23.854 11 23.854 11" fill="#98CA54"/><path d="M20 32.526l.015-.043a1.68 1.68 0 0 1 .092-.22l.038-.065c.11-.186.259-.355.43-.522.172-.17.37-.343.592-.537.22-.193.463-.405.716-.642.503-.474 1.051-1.055 1.494-1.78a5.812 5.812 0 0 0 .848-2.519 6.682 6.682 0 0 0-.018-1.4 8.67 8.67 0 0 0-.27-1.356 11.52 11.52 0 0 0-.429-1.236 15.301 15.301 0 0 0-.971-1.946l-.213-.358-.188-.3c-.112-.182-.208-.32-.27-.416l-.097-.146.048-.04.11.137c.07.09.178.217.307.388l.215.281.247.338a15.566 15.566 0 0 1 1.164 1.877c.198.382.39.796.56 1.24.17.445.317.922.42 1.423.106.5.161 1.026.16 1.557a6.804 6.804 0 0 1-.195 1.58c-.124.513-.31 1-.528 1.447-.22.447-.472.853-.731 1.217-.26.364-.525.686-.776.972-.25.285-.486.534-.689.749-.202.214-.373.396-.49.536-.119.14-.176.238-.177.253a.018.018 0 0 1-.001.005.214.214 0 0 0 .026-.064c.002-.008 0-.002 0 .002l-.003.012-.011.044L20 32.526zM10.435 14l.025.014c.03.017.007.003.03.015.043.02.135.051.263.088.257.075.655.172 1.13.297a32.718 32.718 0 0 1 5.202 1.833c.278.124.545.248.796.368.25.122.488.236.703.348.217.11.413.213.586.308.173.093.324.175.445.246l.385.22-.173.263-.391-.2a14.802 14.802 0 0 0-.452-.221 17.577 17.577 0 0 0-.593-.277c-.217-.1-.458-.202-.71-.31a33.077 33.077 0 0 0-1.67-.651 32.184 32.184 0 0 0-4.323-1.23c-.476-.102-.873-.179-1.167-.249a3.36 3.36 0 0 1-.367-.105A1.325 1.325 0 0 1 10 14.69l.435-.689z" fill="#C0DD9A"/><path d="M15 16.07l.042-.063a.847.847 0 0 0 .012-.017l.023-.031.055-.069c.045-.056.073-.077.112-.115.153-.138.352-.26.587-.366a5.078 5.078 0 0 1 1.713-.4c.623-.037 1.251.042 1.717.271a1.796 1.796 0 0 1 .549.396l.083.095.059.082.048.07-.172.369-.04-.046-.047-.055-.07-.063a1.357 1.357 0 0 0-.484-.257 2.365 2.365 0 0 0-.742-.095c-.275.004-.57.042-.863.108a5.218 5.218 0 0 0-1.567.628 2.008 2.008 0 0 0-.435.349c-.018.021-.043.048-.039.048a.01.01 0 0 1-.004.005h-.002l-.01.017-.037.069-.488-.93zM13 14.312l.06-.058a1.97 1.97 0 0 1 .136-.109c.048-.033.088-.054.141-.086.1-.054.217-.11.348-.166.132-.054.28-.11.44-.165a14.848 14.848 0 0 1 3.64-.714c.207-.01.406-.017.596-.012.19.001.37.015.537.034.167.019.32.05.457.085.068.019.132.042.19.06.06.024.113.05.162.071.096.055.171.099.219.145l.074.065-.192.27-.053-.037c-.03-.029-.091-.056-.166-.092l-.134-.046c-.052-.012-.106-.027-.167-.038a3.048 3.048 0 0 0-.416-.041 4.693 4.693 0 0 0-.503.01c-.18.01-.37.033-.566.06a14.587 14.587 0 0 0-3.454.98 6.8 6.8 0 0 0-.389.183 3.22 3.22 0 0 0-.272.157c-.03.021-.065.045-.079.057-.006.007-.01.008-.018.012l-.055.063-.536-.688z" fill="#C0DD9A"/><path d="M15.065 16.124l-.018.05c-.006.01-.004.011-.003.012v.005c-.004-.003-.003.027-.004.046-.002.09.029.25.1.443.138.388.423.913.791 1.414.183.251.39.495.603.715a4.472 4.472 0 0 0 .653.565 2.966 2.966 0 0 0 .57.316l.101.038.078.022.064.018-.124.232-.09-.02c-.029-.006-.066-.013-.107-.023l-.136-.04a3.804 3.804 0 0 1-.72-.33 5.543 5.543 0 0 1-.798-.574 8.222 8.222 0 0 1-.746-.719c-.464-.505-.844-1.036-1.064-1.463a1.886 1.886 0 0 1-.206-.559c-.004-.042-.012-.068-.008-.119l.005-.06a.344.344 0 0 1 .007-.043l.011-.05 1.041.124zM12.926 15.129c0-.003-.01.034-.017.078.003.008.004.012.001.027l.006.112c.01.091.026.205.052.34.027.135.06.289.105.457.172.675.474 1.577.842 2.458.367.88.804 1.746 1.23 2.336.052.075.105.145.158.208.05.066.102.124.152.179.1.109.194.195.277.256.04.035.08.054.112.075l.046.029.039.015.071.03-.108.271-.118-.04-.063-.023-.066-.034c-.047-.026-.105-.053-.155-.091a2.422 2.422 0 0 1-.347-.283 2.91 2.91 0 0 1-.183-.187 3.583 3.583 0 0 1-.186-.214c-.5-.604-1.01-1.464-1.454-2.345a19.858 19.858 0 0 1-1.057-2.479 8.536 8.536 0 0 1-.15-.484c-.04-.146-.07-.28-.09-.394l-.021-.16a1.553 1.553 0 0 1 .002-.177l.012-.089.91.129z" fill="#C0DD9A"/><path d="M12.4 15.167l-.029.055c-.015.033-.03.063-.057.13-.049.124-.11.312-.167.541a7.564 7.564 0 0 0-.226 1.696c-.003.31.02.617.076.902.03.142.067.278.115.404s.103.244.172.346c.065.104.145.19.221.263.043.034.082.065.12.093l.117.068c.078.033.14.06.188.07l.07.02-.145.245-.118-.025a1.859 1.859 0 0 1-.309-.095c-.057-.026-.117-.057-.184-.09a3.671 3.671 0 0 1-.182-.117 1.97 1.97 0 0 1-.32-.309 2.248 2.248 0 0 1-.256-.38 3.181 3.181 0 0 1-.191-.432 4.975 4.975 0 0 1-.226-.945 7.73 7.73 0 0 1-.034-1.773c.024-.242.058-.446.092-.594a1.716 1.716 0 0 1 .074-.24l1.2.167zM23.884 31l.037.048c.01.018.055.065.106.123.058.053.124.125.214.195.085.077.195.147.311.23l.194.11c.066.042.14.074.215.106.077.031.152.074.236.1l.256.081c.086.034.18.042.272.064.094.015.187.045.285.05l.296.026c.05.003.1.01.15.01l.151-.004.305-.008.076-.002.075-.011.151-.021c.201-.029.402-.048.59-.105.096-.023.19-.046.282-.07.092-.023.184-.04.268-.074.173-.06.336-.118.486-.172.075-.028.15-.048.216-.08l.19-.087c.12-.054.223-.102.31-.14.171-.08.27-.124.27-.124l.174.331-.263.162-.303.185-.187.115c-.065.041-.14.072-.215.112l-.491.244c-.086.047-.182.077-.277.115l-.294.113c-.197.085-.414.135-.633.194l-.165.044-.083.022-.085.014-.345.053-.173.026c-.058.007-.116.007-.175.01l-.35.014c-.116.006-.233-.012-.347-.018-.115-.012-.23-.01-.34-.036-.112-.02-.222-.041-.33-.062-.107-.02-.21-.058-.31-.086-.102-.03-.2-.06-.292-.101-.093-.039-.184-.075-.27-.113-.166-.088-.322-.165-.451-.255-.133-.08-.242-.17-.334-.239-.09-.078-.159-.134-.217-.196l-.07-.072.884-.821zM25.418 26.779a2.077 2.077 0 0 0 .063.035c.045.025.115.061.209.103a4.322 4.322 0 0 0 1.384.354c.204.013.42.02.643-.002a3.895 3.895 0 0 0 1.351-.376c.216-.11.43-.23.625-.375l.147-.106c.048-.037.093-.077.14-.115l.136-.114c.045-.04.086-.082.129-.122.173-.158.323-.33.467-.492.137-.168.269-.326.376-.484.055-.078.11-.151.158-.224l.133-.209.118-.184.091-.161.174-.307.238.116-.155.327-.082.173-.107.198-.122.226c-.044.079-.096.159-.147.244-.1.172-.226.349-.357.536-.14.183-.286.377-.46.56-.043.047-.085.096-.13.142l-.14.135c-.047.045-.093.092-.142.137l-.154.128a4.916 4.916 0 0 1-.669.471 4.483 4.483 0 0 1-2.29.607 5.112 5.112 0 0 1-1.941-.41 2.039 2.039 0 0 1-.08-.038L25 27.54l.418-.761zM24 24.456l.078-.015.116-.016.137-.013.794-.051a8.225 8.225 0 0 0 1.082-.151c.194-.04.39-.097.586-.162.195-.066.385-.152.57-.248.18-.101.352-.215.506-.347.15-.134.29-.277.4-.436.116-.154.202-.321.275-.483.07-.164.124-.325.16-.478.022-.076.034-.15.046-.221.01-.071.028-.138.032-.202.01-.129.027-.24.027-.333l.006-.293.173-.007.01.303c.005.096-.005.214-.008.349 0 .068-.014.139-.021.215-.01.075-.017.155-.036.237-.03.165-.077.342-.143.525-.07.182-.155.372-.275.551-.112.184-.26.354-.42.514-.164.158-.35.296-.545.42a4.47 4.47 0 0 1-.612.308c-.209.083-.418.156-.624.21-.411.114-.802.177-1.134.223l-.791.096a33.89 33.89 0 0 1-.117.017l-.07.013-.077.019-.125-.544zM25 29.998l-.113.002c-.072 0-.176 0-.307-.003a11.465 11.465 0 0 1-1.783-.184 8.746 8.746 0 0 1-.783-.182 6.988 6.988 0 0 1-.813-.282 5.106 5.106 0 0 1-.785-.416 3.445 3.445 0 0 1-.672-.568c-.201-.21-.348-.45-.47-.687-.048-.124-.108-.241-.14-.362l-.049-.18-.023-.088a7.993 7.993 0 0 1-.014-.088c-.013-.117-.04-.23-.04-.34L19 26.306l.024-.288c.004-.045.006-.09.012-.133l.023-.123c.031-.16.05-.3.086-.41l.098-.351.28.064-.067.34c-.026.108-.033.241-.05.392l-.013.117c-.002.04 0 .081-.001.124l-.001.265.03.284c.008.099.04.196.06.298l.017.077.027.074.054.152c.036.103.097.198.143.3.12.191.256.383.438.546.172.17.382.312.603.44.22.126.463.225.705.313.247.082.494.154.742.203.246.054.489.089.72.118a10.525 10.525 0 0 0 2.007.039l.063.852z" fill="#C0DD9A"/><g transform="translate(8 9)"><mask id="d" fill="#fff"><use xlink:href="#c"/></mask><path d="M.564 16.159c.828-.233 1.302.266 3.077 1.3 1.775 1.032 3.255 1.43 4.379 2.685 1.123 1.253.31 1.424 1.87 2.563 1.56 1.141 2.625 1.596 4.045 1.653 1.42.057 3.964.171 6.27 0 .772-.057 1.466.025 2.06-.105 1.077-.237 3.057-3.158 3.438-3.911.709-1.408 2.963-4.251 4.028-4.764 1.065-.513-.355 4.677-.355 4.677l3.432 3.819s-2.13 3.19-3.254 3.248c-1.125.057-7.396 1.88-9.348 1.482-1.952-.4-10.288-.684-10.75-.627-.461.056-4.078 1.88-5.065 1.994-.987.114-10.335-2.906-10.335-2.906l2.13-8.377 4.035-2.765" fill="#8ABE60" mask="url(#d)"/></g><path d="M24 22.664s-.012.01-.047.034c-.034.025-.08.051-.139.086-.06.03-.133.068-.22.098-.086.036-.187.058-.295.084l-.172.025c-.059.009-.12.004-.184.007a.966.966 0 0 1-.193-.007l-.201-.023-.203-.05c-.034-.01-.07-.017-.103-.027l-.1-.04c-.068-.025-.135-.052-.203-.078-.067-.03-.13-.069-.195-.103-.065-.036-.13-.068-.193-.107l-.18-.126c-.06-.042-.12-.082-.177-.125l-.161-.139c-.105-.093-.212-.174-.298-.271l-.252-.262c-.08-.077-.142-.163-.201-.233l-.152-.184-.131-.16.061-.063.136.152.156.175c.061.066.125.148.207.22l.256.245c.088.092.196.165.3.25l.162.128c.057.04.116.075.174.112l.178.113c.06.035.125.062.187.093.063.03.124.063.188.089l.193.065.095.032c.032.008.064.013.096.02l.189.037.183.012a.84.84 0 0 0 .176 0c.056-.006.112-.004.165-.016l.151-.029c.096-.028.184-.05.257-.086.075-.03.136-.066.187-.093.048-.031.087-.056.107-.073a.473.473 0 0 0 .037-.03l.159.248z" fill="#C0DD9A"/><path d="M36 22.435s-2.097-11.94-8.833-13.227c-6.735-1.287-.634 3.827-.634 3.827s8.495 9.3 8.678 9.4c.181.1.059 1.22.789 0" fill="#8ABE60"/><path d="M35.085 28c-.403-2.121-1.824-6.362-3.783-8.24-1.96-1.878-5.96-5.513-8.772-5.755-2.812-.243-7.557-1.03-10.083-.606-2.526.424-1.086-.485-.566-1.515.519-1.03 1.06-1.061 1.844-1.15.784-.09 2.19-2.788 5.417-1.273 3.228 1.514 4.034.872 5.647 2.708 1.614 1.836 3.458.927 5.36 1.896 1.901.97.959 2.06 2.756 2.909 1.796.847 3.181 4.252 3.09 6.3-.09 2.048-.391 3.454-.91 4.726" fill="#78B24D"/><path d="M29 10.321l-.028.05a.81.81 0 0 1-.06.092c-.014.019-.033.045-.048.06a1.091 1.091 0 0 1-.3.223 2.25 2.25 0 0 1-.307.13c-.435.149-.984.263-1.496.507a3.79 3.79 0 0 0-.373.2 3.345 3.345 0 0 0-.873.773c-.072.087-.13.175-.184.25-.05.08-.095.148-.129.207l-.104.187-.098-.06.09-.204c.03-.064.07-.14.115-.228.05-.085.1-.185.17-.284a3.723 3.723 0 0 1 .859-.931c.122-.093.25-.182.38-.26.525-.324 1.1-.514 1.475-.693a1.83 1.83 0 0 0 .234-.13.56.56 0 0 0 .126-.108l.017-.02c.005-.006 0-.005.002-.007 0-.002.002.003.013-.022l.023-.053.496.321z" fill="#C0DD9A"/><path d="M11.194 12.703c.65-.776-2.58-1.086-3.133 0-.552 1.085-1.106 1.485-1.904 1.37-.8-.113-1.66 1.086-.8 2.344.86 1.256.308 4.1.43 5.306.124 1.207-.368 6.748.37 7.891.737 1.143 1.843 5.37 3.624 5.828 1.782.457 1.106 1.714 2.58 1.542 1.476-.171.615-1.485 1.844-1.314 1.229.172 3.502-.571 2.58-3.885-.921-3.314-3.205-1.952-4.853-2.456-1.648-.506-3.195-3.248-3.44-4.795-.247-1.547.122-8.746 2.702-11.831" fill="#6FA344"/><path d="M29.949 10l.008.037a2.213 2.213 0 0 1 .043.483 2.509 2.509 0 0 1-.282 1.099c-.054.097-.101.193-.173.286-.064.093-.13.184-.211.269-.074.086-.151.167-.24.24-.083.075-.156.146-.246.205l-.23.164-.201.117-.176.1-.241-.104.127-.108.143-.123.152-.168c.061-.06.104-.131.153-.204.054-.072.096-.15.132-.233.045-.08.073-.166.098-.253.034-.086.042-.176.06-.264a1.899 1.899 0 0 0 0-.523 2.317 2.317 0 0 0-.303-.865L29.949 10zM27.408 11.882l-.05-.257c-.003-.019-.008-.046-.012-.06a.24.24 0 0 1-.021-.07c0-.021-.015-.05-.03-.08-.014-.028-.027-.064-.044-.098-.041-.051-.08-.132-.14-.177-.054-.065-.125-.095-.196-.142-.076-.021-.155-.061-.24-.06-.084-.017-.172-.004-.26.004-.089.02-.179.038-.266.077a1.45 1.45 0 0 0-.256.13c-.084.044-.162.107-.236.165-.076.053-.142.13-.207.187-.065.057-.118.131-.169.186a1.5 1.5 0 0 0-.126.162l-.109.151-.046-.109.095-.197c.03-.064.067-.142.114-.22.046-.077.095-.178.156-.265.06-.087.123-.197.197-.284.073-.094.15-.195.234-.28a2.54 2.54 0 0 1 .264-.255c.091-.082.19-.144.288-.208.1-.052.2-.11.304-.134.102-.041.209-.04.312-.048.104.017.207.023.307.082.1.035.195.132.282.21.042.049.082.107.12.16.037.053.073.101.106.182.034.071.065.143.092.21l.038.098.02.06.071.233-.592.647z" fill="#C0DD9A"/></g></svg>