<svg width="39" height="33" xmlns="http://www.w3.org/2000/svg" xmlns:xlink="http://www.w3.org/1999/xlink"><defs><path id="a" d="M.045.048h38.92v32.86H.045z"/><path d="M2.391 7.984c.83 1.379 3.922 4.382 7.304 7.46 3.382 3.075 10.594 7.689 14.861 9.196 4.266 1.508 7.51 1.325 9.422 1.168-1.57-.307-3.82-1.702-5.118-2.56-1.3-.86-4.86-4.015-6.384-4.974-1.524-.96-6.976-5.35-8.764-6.707C11.923 10.21 9.297 8.031 7.73 6.38 6.555 5.14 4.74 3.492 3.542 2.535c-.399-.318-.73-.56-.945-.684C1.737 1.355.037.038.037.038c-.159 1.019 1.525 6.568 2.354 7.946" id="c"/><path d="M2.391 7.984c.83 1.379 3.922 4.382 7.304 7.46 3.382 3.075 10.594 7.689 14.861 9.196 4.266 1.508 7.51 1.325 9.422 1.168-1.57-.307-3.82-1.702-5.118-2.56-1.3-.86-4.86-4.015-6.384-4.974-1.524-.96-6.976-5.35-8.764-6.707C11.923 10.21 9.297 8.031 7.73 6.38 6.555 5.14 4.74 3.492 3.542 2.535c-.399-.318-.73-.56-.945-.684C1.737 1.355.037.038.037.038c-.159 1.019 1.525 6.568 2.354 7.946" id="e"/><path d="M2.391 7.984c.83 1.379 3.922 4.382 7.304 7.46 3.382 3.075 10.594 7.689 14.861 9.196 4.266 1.508 7.51 1.325 9.422 1.168-1.57-.307-3.82-1.702-5.118-2.56-1.3-.86-4.86-4.015-6.384-4.974-1.524-.96-6.976-5.35-8.764-6.707C11.923 10.21 9.297 8.031 7.73 6.38 6.555 5.14 4.74 3.492 3.542 2.535c-.399-.318-.73-.56-.945-.684C1.737 1.355.037.038.037.038c-.159 1.019 1.525 6.568 2.354 7.946" id="g"/><path d="M2.391 7.984c.83 1.379 3.922 4.382 7.304 7.46 3.382 3.075 10.594 7.689 14.861 9.196 4.266 1.508 7.51 1.325 9.422 1.168-1.57-.307-3.82-1.702-5.118-2.56-1.3-.86-4.86-4.015-6.384-4.974-1.524-.96-6.976-5.35-8.764-6.707C11.923 10.21 9.297 8.031 7.73 6.38 6.555 5.14 4.74 3.492 3.542 2.535c-.399-.318-.73-.56-.945-.684C1.737 1.355.037.038.037.038c-.159 1.019 1.525 6.568 2.354 7.946" id="i"/><path d="M2.391 7.984c.83 1.379 3.922 4.382 7.304 7.46 3.382 3.075 10.594 7.689 14.861 9.196 4.266 1.508 7.51 1.325 9.422 1.168-1.57-.307-3.82-1.702-5.118-2.56-1.3-.86-4.86-4.015-6.384-4.974-1.524-.96-6.976-5.35-8.764-6.707C11.923 10.21 9.297 8.031 7.73 6.38 6.555 5.14 4.74 3.492 3.542 2.535c-.399-.318-.73-.56-.945-.684C1.737 1.355.037.038.037.038c-.159 1.019 1.525 6.568 2.354 7.946" id="k"/><path d="M2.391 7.984c.83 1.379 3.922 4.382 7.304 7.46 3.382 3.075 10.594 7.689 14.861 9.196 4.266 1.508 7.51 1.325 9.422 1.168-1.57-.307-3.82-1.702-5.118-2.56-1.3-.86-4.86-4.015-6.384-4.974-1.524-.96-6.976-5.35-8.764-6.707C11.923 10.21 9.297 8.031 7.73 6.38 6.555 5.14 4.74 3.492 3.542 2.535c-.399-.318-.73-.56-.945-.684C1.737 1.355.037.038.037.038c-.159 1.019 1.525 6.568 2.354 7.946" id="m"/><path d="M2.391 7.984c.83 1.379 3.922 4.382 7.304 7.46 3.382 3.075 10.594 7.689 14.861 9.196 4.266 1.508 7.51 1.325 9.422 1.168-1.57-.307-3.82-1.702-5.118-2.56-1.3-.86-4.86-4.015-6.384-4.974-1.524-.96-6.976-5.35-8.764-6.707C11.923 10.21 9.297 8.031 7.73 6.38 6.555 5.14 4.74 3.492 3.542 2.535c-.399-.318-.73-.56-.945-.684C1.737 1.355.037.038.037.038c-.159 1.019 1.525 6.568 2.354 7.946" id="o"/><path d="M2.391 7.984c.83 1.379 3.922 4.382 7.304 7.46 3.382 3.075 10.594 7.689 14.861 9.196 4.266 1.508 7.51 1.325 9.422 1.168-1.57-.307-3.82-1.702-5.118-2.56-1.3-.86-4.86-4.015-6.384-4.974-1.524-.96-6.976-5.35-8.764-6.707C11.923 10.21 9.297 8.031 7.73 6.38 6.555 5.14 4.74 3.492 3.542 2.535c-.399-.318-.73-.56-.945-.684C1.737 1.355.037.038.037.038c-.159 1.019 1.525 6.568 2.354 7.946" id="q"/><path d="M.165 1.54a2.378 2.378 0 0 0-.049.125c.38 1.14.817 2.271 1.174 2.988.071.038.145.072.22.103 1.28.525 2.753-.063 3.29-1.314a2.392 2.392 0 0 0 .133-1.5C4.14 1.27 3.333.623 2.7.157a21.14 21.14 0 0 0-.167-.122h-.048C1.502.034.569.6.165 1.54" id="s"/><path d="M.226 1.585a2.456 2.456 0 1 0 4.53 1.901c.152-.361.21-.738.187-1.105A28.025 28.025 0 0 1 3.63 1.168C3.288.83 2.89.458 2.472.078A2.458 2.458 0 0 0 .226 1.586" id="u"/><path d="M.207 1.564C-.318 2.788.27 4.195 1.52 4.708c1.251.514 2.691-.062 3.216-1.285a2.35 2.35 0 0 0-.097-2.059A67.78 67.78 0 0 1 3.078.166c-.201-.05-.404-.075-.605-.075A2.46 2.46 0 0 0 .207 1.564" id="w"/><path d="M.293 1.576c-.513 1.25.062 2.69 1.285 3.215 1.223.525 2.63-.063 3.144-1.314a2.5 2.5 0 0 0 .014-1.867A287.149 287.149 0 0 0 2.7.077 2.402 2.402 0 0 0 .293 1.575" id="y"/><path d="M.283 1.582a2.402 2.402 0 1 0 4.43 1.859 2.395 2.395 0 0 0-.04-1.948C4.087 1.073 3.446.603 2.8.128A2.403 2.403 0 0 0 .283 1.582" id="A"/><path d="M.445.048C-.687 1 .921 5.313 1.11 6.17c.19.857-.098 4.797.831 6.449.93 1.65 3.71 3.681 4.998 5.492 1.288 1.812 5.806 7.988 15.077 12.25 9.272 4.262 14.355 2.046 15.79 1.341.703-.345 1.154-.883 1.159-1.404v-.016c-.005-.537-.487-1.052-1.662-1.314-2.323-.517-3.27-2.66-4.688-3.603-1.418-.944-2.56.622-4.588-3.054-2.028-3.675-7.013-3.85-7.667-6.735-.655-2.884-4.82-3.271-5.867-5.424C13.445 7.999 9.26 5.789 8.2 5.54c-1.06-.25-4.27-.116-5.703-.756 0 0-2.245-1.779-1.87-3.083C1.004.397.445.048.445.048z" id="C"/><path d="M.166 1.214c-.313.995.038 2.14.784 2.559.747.418 1.606-.05 1.92-1.046.313-.996-.038-2.141-.785-2.56a1.154 1.154 0 0 0-.567-.152C.946.015.401.465.166 1.214" id="E"/><path d="M.153 1.22c-.314.995.037 2.141.784 2.559.746.418 1.606-.051 1.92-1.046.313-.996-.039-2.142-.785-2.56a1.154 1.154 0 0 0-.567-.152C.932.02.388.47.153 1.22" id="G"/><path d="M.445.048C-.687 1 .921 5.313 1.11 6.17c.19.857-.098 4.797.831 6.449.93 1.65 3.71 3.681 4.998 5.492 1.288 1.812 5.806 7.988 15.077 12.25 9.272 4.262 14.355 2.046 15.79 1.341.703-.345 1.154-.883 1.159-1.404v-.016c-.005-.537-.487-1.052-1.662-1.314-2.323-.517-3.27-2.66-4.688-3.603-1.418-.944-2.56.622-4.588-3.054-2.028-3.675-7.013-3.85-7.667-6.735-.655-2.884-4.82-3.271-5.867-5.424C13.445 7.999 9.26 5.789 8.2 5.54c-1.06-.25-4.27-.116-5.703-.756 0 0-2.245-1.779-1.87-3.083" id="I"/></defs><g fill="none" fill-rule="evenodd"><mask id="b" fill="#fff"><use xlink:href="#a"/></mask><path d="M2.498 4.784c1.432.64 4.642.505 5.703.756 1.06.25 5.244 2.459 6.292 4.612s5.211 2.54 5.867 5.424c.654 2.884 5.639 3.06 7.667 6.735 2.027 3.676 3.17 2.11 4.588 3.054 1.419.943 2.365 3.086 4.688 3.603 2.323.517 1.94 2.03.504 2.734-1.436.705-6.519 2.921-15.79-1.34-9.272-4.263-13.79-10.44-15.078-12.251-1.287-1.811-4.068-3.842-4.998-5.492-.929-1.652-.641-5.592-.83-6.45C.92 5.314-.688 1 .444.049c0 0 .559.35.183 1.653-.375 1.304 1.87 3.083 1.87 3.083" fill="#4DA446" mask="url(#b)"/><path d="M35.386 30.9c-1.905.157-5.135.34-9.384-1.169-4.25-1.509-11.433-6.128-14.801-9.207-3.368-3.08-6.449-6.086-7.274-7.466-.826-1.38-2.503-6.934-2.344-7.954 0 0 1.691 1.318 2.549 1.814.214.124.543.367.941.686 1.193.957 3 2.609 4.17 3.848 1.561 1.652 4.177 3.834 5.959 5.193 1.781 1.359 7.21 5.753 8.728 6.713 1.517.96 5.064 4.12 6.357 4.979 1.294.86 3.535 2.255 5.099 2.562" fill="#2A7F3E"/><g transform="translate(3 4)"><mask id="d" fill="#fff"><use xlink:href="#c"/></mask><path d="M5.661 6.131c-.542 1.37-2.027 2.014-3.317 1.44C1.053 6.995.446 5.42.987 4.05c.542-1.369 2.027-2.013 3.318-1.438 1.29.574 1.898 2.15 1.356 3.52" fill="#8CC13F" mask="url(#d)"/></g><g transform="translate(3 4)"><mask id="f" fill="#fff"><use xlink:href="#e"/></mask><path d="M12.273 12.665c-.541 1.37-2.027 2.014-3.317 1.44-1.29-.576-1.898-2.152-1.356-3.52.541-1.37 2.026-2.015 3.317-1.44 1.29.575 1.898 2.15 1.356 3.52" fill="#8CC13F" mask="url(#f)"/></g><g transform="translate(3 4)"><mask id="h" fill="#fff"><use xlink:href="#g"/></mask><path d="M12.273 12.665c-.541 1.37-2.027 2.014-3.317 1.44-1.29-.576-1.898-2.152-1.356-3.52.541-1.37 2.026-2.015 3.317-1.44 1.29.575 1.898 2.15 1.356 3.52" fill="#8CC13F" mask="url(#h)"/></g><g transform="translate(3 4)"><mask id="j" fill="#fff"><use xlink:href="#i"/></mask><path d="M16.12 15.5c-.541 1.37-2.027 2.014-3.317 1.439-1.291-.575-1.897-2.151-1.356-3.52.542-1.37 2.027-2.014 3.318-1.439 1.29.575 1.897 2.15 1.355 3.52" fill="#8CC13F" mask="url(#j)"/></g><g transform="translate(3 4)"><mask id="l" fill="#fff"><use xlink:href="#k"/></mask><path d="M20.214 18.78c-.542 1.37-2.027 2.015-3.318 1.44-1.29-.575-1.897-2.15-1.356-3.52.542-1.37 2.027-2.014 3.318-1.44 1.29.576 1.897 2.151 1.356 3.52" fill="#8CC13F" mask="url(#l)"/></g><g transform="translate(3 4)"><mask id="n" fill="#fff"><use xlink:href="#m"/></mask><path d="M23.963 20.927c-.453 1.146-1.695 1.685-2.775 1.204-1.08-.481-1.587-1.8-1.135-2.945.454-1.145 1.696-1.684 2.776-1.204 1.08.481 1.587 1.8 1.134 2.945" fill="#8CC13F" mask="url(#n)"/></g><g transform="translate(3 4)"><mask id="p" fill="#fff"><use xlink:href="#o"/></mask><path d="M27.578 23.546c-.453 1.146-1.696 1.685-2.775 1.204-1.08-.48-1.587-1.799-1.134-2.944.453-1.146 1.696-1.685 2.775-1.204 1.08.48 1.587 1.799 1.134 2.944" fill="#8CC13F" mask="url(#p)"/></g><g transform="translate(3 4)"><mask id="r" fill="#fff"><use xlink:href="#q"/></mask><path d="M8.893 8.917c-.54 1.37-2.027 2.014-3.317 1.439-1.29-.575-1.898-2.151-1.356-3.52.542-1.37 2.027-2.014 3.317-1.44 1.29.575 1.898 2.152 1.356 3.52" fill="#8CC13F" mask="url(#r)"/></g><g transform="translate(2 7)"><mask id="t" fill="#fff"><use xlink:href="#s"/></mask><path d="M-.076.7c.357.145 1.17.722 1.34 1.304.17.582.478 1.342.842 1.594s1.298.654 1.477.727l.133.055-.31.846-1.072.175S.585 4.591.526 4.485C.466 4.38-.076.7-.076.7" fill="#7EAD40" mask="url(#t)"/></g><g transform="translate(5 11)"><mask id="v" fill="#fff"><use xlink:href="#u"/></mask><path d="M-.187 1.022c.345.15.646.504.832.773.284.41.233.905.493 1.273.607.861 2.31.988 3.24 1.212.32.077-1.456 1.204-1.605 1.217-.149.013-2.308-.857-2.464-.97-.574-.425-2.634-3.376-.887-3.57a.766.766 0 0 1 .391.065" fill="#7EAD40" mask="url(#v)"/></g><g transform="translate(9 14)"><mask id="x" fill="#fff"><use xlink:href="#w"/></mask><path d="M-.016.76c.158-.036.324.04.542.283.305.34.474.747.69 1.14.358.652.92 1.116 1.608 1.409.46.196 1.57.25 1.82.707.16.295-.03 1.015-.258 1.238-.75.74-2.366.203-3.182-.133C.149 4.97-1.29 4.021-1.464 2.832c-.09-.611.536-1.238.915-1.648.205-.222.365-.386.533-.424" fill="#7EAD40" mask="url(#x)"/></g><g transform="translate(13 16)"><mask id="z" fill="#fff"><use xlink:href="#y"/></mask><path d="M-.179 1.475c.995.285.826.55 1.143 1.464.193.56.753.717 1.22.989.896.522 2.047.525 2.602-.475-.147.461-.314 1.686-.79 1.915 0 0-1.124.542-1.525.421-.402-.12-3.066-1.954-3.42-2.287-.353-.334.77-2.027.77-2.027" fill="#7EAD40" mask="url(#z)"/></g><g transform="translate(17 21)"><mask id="B" fill="#fff"><use xlink:href="#A"/></mask><path d="M1.125.233c.455.264.032.64-.128 1.022-.161.384-.68 1.443-.135 1.873.546.429 1.043.738 1.572.91.528.172.774.124 1.307-.253.535-.377.697-.584.972-.644.276-.06.613.032.613.032S4.29 5.043 4.243 5.097c-.048.055-.972.645-1.31.553C2.598 5.558.587 4.74.34 4.611.093 4.483-.878 3.574-.84 2.89-.805 2.203.661-.037 1.125.233" fill="#7EAD40" mask="url(#B)"/></g><g><mask id="D" fill="#fff"><use xlink:href="#C"/></mask><path d="M.967 5.558c.21.993.54 2.014.598 2.265.06.251.342 2.074.569 2.568.226.494.627 2.42.627 2.42s.918 1.144 1.15 1.36c.23.215 3.367 3.08 4.357 4.31.99 1.228.095.828 2.689 2.663s8.015 6.788 9.447 7.428c1.432.642 4.19 1.258 5.39 1.684 1.203.425 3.295 1.663 5.422 1.875 2.127.212 3.318.128 3.662.057.344-.07 1.808-.8 2.1-.52.292.281.44-.174.636.127.195.301.006 1.452-.147 1.44-.153-.013-11.237.865-12.125.58-.888-.286-10.323-5.07-12.097-6.313-1.774-1.243-9.01-8.805-10.227-10.528-1.217-1.724-.464-.427-1.951-2.667-1.488-2.24-2.39-3.96-1.837-5.901.554-1.942.153-3.557.944-3.202l.793.354z" fill="#3E8E42" mask="url(#D)"/></g><g transform="translate(22 22)"><mask id="F" fill="#fff"><use xlink:href="#E"/></mask><path d="M.004.757c.273.104.383.045.463.43.08.386.037 1.044.197 1.232.16.187.472.824.803.815.332-.01.192-.088.628-.137.436-.048.647-.198.789-.24.141-.043.205.448.205.448s-.146 1.339.139 1.767c.286.428.301.436.6.652.297.215.178.246.434.243.257-.002.957-.195 1.12.042.163.237-.972 1.405-1.303 1.122-.332-.282-1.497-.935-1.747-1.708-.25-.774-.329-1.28-.61-1.316-.28-.035-.628.429-1.32-.104-.69-.533-1.038-.533-.93-1.106.107-.574-.014-.447.12-.834C-.271 1.675.005.757.005.757" fill="#7EAD40" mask="url(#F)"/></g><g transform="translate(25 26)"><mask id="H" fill="#fff"><use xlink:href="#G"/></mask><path d="M-2.51-1.513c.273.104.384.044.463.43.08.386.037 1.044.197 1.231.16.187.472.824.804.815.332-.009.192-.087.628-.136C.017.78.229.63.37.587c.142-.043.206.448.206.448S.429 2.374.714 2.802c.286.427.302.436.6.651.297.216.178.247.435.244.256-.003.957-.196 1.12.042.163.237-.973 1.405-1.304 1.122-.331-.283-1.497-.935-1.747-1.708-.25-.774-.328-1.28-.61-1.316-.28-.035-.627.428-1.319-.105C-2.8 1.2-3.149 1.2-3.042.626c.108-.573-.014-.446.121-.833.136-.388.411-1.306.411-1.306" fill="#7EAD40" mask="url(#H)"/></g><g><mask id="J" fill="#fff"><use xlink:href="#I"/></mask><path d="M9.296 4.008c-.01.145 1.378 1.729 1.534 1.987a21.655 21.655 0 0 1 1.408 2.784c.357.842.846 1.499.593 2.4-.067.242-.576 1.148-.394 1.388.199.262.698-.191.942-.29 2.184-.883 5.194 1.592 5.51 3.909.055.397-.08 1.233.228 1.534.319.312 1.357.075 1.765.13 1.474.202 2.628.913 3.799 1.823.931.725 2.163 1.497 2.856 2.506.473.689.77 2.041.753 2.899 1.137-.287 2.182-.208 3.278.048 0 0-.04-.068-.05-.05.973.942 1.968 1.626 2.756 2.79.3.441.624.914.853 1.404.909 1.945 2.217-2.052 3.229-2.262.23-.047.938-3.098-2.275-6.706-3.212-3.61-26.597-19.09-26.597-19.09l-.188 2.796" fill="#64B15C" mask="url(#J)"/></g></g></svg>