<svg width="40" height="40" xmlns="http://www.w3.org/2000/svg" xmlns:xlink="http://www.w3.org/1999/xlink"><defs><path id="a" d="M.22.06h7.482v3.175H.22z"/><path id="c" d="M.081.254h2.484v7.689H.081z"/><path id="e" d="M0 .034h5.233v3.083H0z"/></defs><g fill="none" fill-rule="evenodd"><path d="M24.429 10.82c-.49-.26-.965-.412-1.385-.396-.72.028-1.348.482-2.034.705a3.299 3.299 0 0 1-2.587-.248c-.372-.205-.704-.483-1.091-.656-2.352-1.048-5.6 1.816-7.067 3.44a11.354 11.354 0 0 0-2.932 7.574c0 6.312 5.224 11.428 11.667 11.428s11.667-5.116 11.667-11.428c0-2.395-.781-4.742-2.19-6.663-.74-1.009-2.482-2.928-4.048-3.756" fill="#FFAD76"/><path d="M21.327 10.537c-.072.541-.725.888-1.457.775-.733-.113-1.269-.643-1.197-1.183.072-.54.725-.887 1.458-.774.732.113 1.268.642 1.196 1.182M22.635 21.182c-.263 1.82-2.104 3.062-4.112 2.777-2.007-.284-3.421-1.99-3.158-3.808.263-1.818 2.104-3.062 4.112-2.777 2.007.285 3.421 1.99 3.158 3.808" fill="#DB407F"/><g transform="translate(32 18.667)"><mask id="b" fill="#fff"><use xlink:href="#a"/></mask><path d="M7.64 3.12a.733.733 0 0 1-.184.059.832.832 0 0 1-.64-.157.654.654 0 0 1-.239-.346c-.042-.146-.06-.329-.135-.509a1.71 1.71 0 0 0-.823-.865 1.749 1.749 0 0 0-.612-.179 1.66 1.66 0 0 0-.318 0c-.114.01-.209.032-.305.054-.188.047-.354.103-.502.135a1.455 1.455 0 0 1-.299.036.563.563 0 0 1-.314-.115.28.28 0 0 1-.096-.12.068.068 0 0 1-.005-.031l.01-.063-.101-.011c.005-.03.015-.06.015-.09C3.092.444 2.45.06 1.656.06.863.06.22.444.22.918c0 .475.643.859 1.436.859.43 0 .81-.115 1.073-.294a1.033 1.033 0 0 0 .876.365c.06-.006.076-.009.136-.018.097-.017.182-.042.27-.07.173-.057.335-.13.494-.186.078-.027.163-.054.234-.067.103-.019.162-.024.248-.024a1.466 1.466 0 0 1 1.277.764c.081.145.114.31.179.475.066.167.186.3.319.378.265.163.538.15.7.104a.768.768 0 0 0 .182-.078l.058-.04-.061.033" fill="#036EB7" mask="url(#b)"/></g><path d="M38.503 14.826c-.126-.116-.39-.215-.688-.123a.876.876 0 0 0-.408.284c-.113.137-.205.286-.324.408a1.524 1.524 0 0 1-.92.459 1.102 1.102 0 0 1-.493-.057 1.04 1.04 0 0 1-.39-.26c-.117-.118-.23-.257-.364-.386a1.529 1.529 0 0 0-.226-.184.91.91 0 0 0-.275-.127.942.942 0 0 0-.91.248c-.303.04-.65.215-.95.512-.534.528-.714 1.226-.402 1.559.313.333.998.175 1.533-.353.475-.469.668-1.07.486-1.433a.42.42 0 0 1 .13-.004c.046.008.07.012.14.049.043.022.106.063.162.107.118.09.242.216.395.341.154.13.348.242.569.297.213.053.435.052.643.008.418-.088.78-.337 1.019-.641.122-.155.202-.32.291-.451a.764.764 0 0 1 .327-.282.661.661 0 0 1 .639.052c.137.096.177.196.18.192-.004.004-.032-.1-.164-.215M33.992 3.4a.67.67 0 0 1-.037.185.81.81 0 0 1-.458.464.708.708 0 0 1-.43.035c-.152-.034-.325-.106-.524-.128a1.818 1.818 0 0 0-1.65.709 1.538 1.538 0 0 0-.157.268c-.048.1-.076.19-.103.282-.05.182-.083.348-.127.488a1.392 1.392 0 0 1-.116.268.54.54 0 0 1-.259.21.307.307 0 0 1-.155.024.075.075 0 0 1-.03-.01l-.053-.04-.059.08c-.025-.018-.046-.04-.073-.055-.427-.227-1.091.13-1.483.799-.393.668-.366 1.393.061 1.62.426.226 1.09-.132 1.483-.8.213-.36.298-.737.267-1.043a1.05 1.05 0 0 0 .761-.564c.025-.052.03-.068.051-.123.033-.09.054-.173.072-.26.034-.174.049-.344.077-.506.014-.079.032-.163.056-.23.033-.095.058-.147.1-.22.083-.14.198-.271.336-.38a1.54 1.54 0 0 1 .984-.33c.17.001.336.052.516.077a.83.83 0 0 0 .498-.088.857.857 0 0 0 .44-.54A.677.677 0 0 0 34 3.4l-.007-.068v.068" fill="#036EB7"/><g transform="translate(15.333)"><mask id="d" fill="#fff"><use xlink:href="#c"/></mask><path d="M2.402.31a.74.74 0 0 1 .079.177.851.851 0 0 1-.081.654.646.646 0 0 1-.31.278c-.137.058-.312.098-.479.194-.331.184-.608.52-.749.92a1.8 1.8 0 0 0-.105.627c0 .105.018.235.035.316.022.113.054.204.087.297.066.182.139.34.187.483a1.483 1.483 0 0 1 .067.292.577.577 0 0 1-.077.326.285.285 0 0 1-.105.11.07.07 0 0 1-.03.008L.859 4.99v.101C.83 5.09.8 5.083.77 5.087c-.46.056-.762.739-.674 1.527.089.787.533 1.38.994 1.325.46-.055.763-.739.674-1.527-.047-.426-.202-.79-.404-1.031a1.052 1.052 0 0 0 .256-.913c-.011-.058-.016-.074-.033-.132a1.977 1.977 0 0 0-.097-.26c-.075-.166-.163-.318-.236-.47a1.635 1.635 0 0 1-.09-.225 1.24 1.24 0 0 1-.052-.243 1.45 1.45 0 0 1 .036-.512c.085-.342.293-.657.564-.846.132-.097.289-.15.442-.233a.776.776 0 0 0 .332-.36.913.913 0 0 0 .023-.71.75.75 0 0 0-.097-.17L2.364.254l.038.057" fill="#036EB7" mask="url(#d)"/></g><path d="M26.395 2.046c-.166.06-.387.259-.456.592a1.01 1.01 0 0 0 .044.536c.063.18.148.345.195.522.097.356.083.769-.06 1.116-.07.173-.175.326-.3.44-.118.11-.265.19-.426.237-.163.051-.342.087-.524.147a1.56 1.56 0 0 0-.276.121.963.963 0 0 0-.25.196 1.09 1.09 0 0 0-.242.996c-.117.311-.138.732-.028 1.173.195.784.718 1.318 1.169 1.193.45-.125.658-.861.464-1.645-.173-.697-.606-1.194-1.017-1.208a.499.499 0 0 1 .063-.127c.03-.04.046-.06.113-.108.041-.03.11-.068.177-.099.138-.065.311-.119.5-.2.192-.08.388-.206.548-.388.154-.176.266-.388.332-.61a2.06 2.06 0 0 0-.05-1.305c-.074-.196-.179-.358-.25-.512a.871.871 0 0 1-.082-.458c.031-.298.214-.509.368-.583.154-.08.262-.066.26-.071.001.006-.103-.022-.272.045M36.623 29.26c-.028.006-.069.016-.122.02a1.07 1.07 0 0 1-.432-.05 1.664 1.664 0 0 1-.968-.856c-.104-.219-.169-.47-.268-.715a1.932 1.932 0 0 0-.18-.351 1.182 1.182 0 0 0-.239-.255c.13-.416-.182-1.012-.758-1.397-.633-.424-1.339-.43-1.577-.017-.239.414.081 1.092.714 1.515.467.313.973.397 1.303.253a.723.723 0 0 1 .247.174c.061.07.116.152.173.253.113.198.211.45.362.686a1.82 1.82 0 0 0 .562.558c.207.134.424.208.612.239.188.03.347.013.452-.013.054-.012.094-.028.121-.039l.042-.016-.044.01M6.044 6.674c.03.005.071.011.122.029.104.03.246.096.39.216.145.118.292.286.404.494a1.844 1.844 0 0 1 .219.695c.024.249 0 .512.011.782.006.132.02.274.052.403.032.127.082.237.139.335-.262.342-.169 1.028.244 1.62.453.648 1.114.932 1.477.634.363-.298.29-1.065-.162-1.714-.335-.479-.783-.757-1.14-.75-.017-.016-.034-.03-.05-.051a.793.793 0 0 1-.124-.21 1.544 1.544 0 0 1-.078-.308c-.04-.231-.048-.509-.11-.79a1.992 1.992 0 0 0-.341-.748 1.744 1.744 0 0 0-.495-.467 1.153 1.153 0 0 0-.43-.165c-.055-.01-.098-.01-.127-.011L6 6.667l.044.007" fill="#036EB7"/><g transform="translate(0 25.333)"><mask id="f" fill="#fff"><use xlink:href="#e"/></mask><path d="M.01 3.072c.008-.03.017-.073.038-.125a1.22 1.22 0 0 1 .236-.387 1.664 1.664 0 0 1 .822-.5c.114-.03.224-.041.346-.048.234-.005.479.042.732.053.124.005.258.001.382-.021.122-.023.229-.065.325-.117.298.3.948.26 1.537-.12.646-.416.97-1.08.722-1.48-.247-.402-.971-.389-1.617.028-.478.307-.777.75-.802 1.121-.016.016-.031.032-.052.047a.731.731 0 0 1-.207.112 1.321 1.321 0 0 1-.295.055c-.22.023-.48.009-.75.05a1.848 1.848 0 0 0-1.209.768 1.28 1.28 0 0 0-.192.432c-.014.056-.018.1-.021.13L0 3.118l.01-.045" fill="#036EB7" mask="url(#f)"/></g><path d="M25.588 39.953a.757.757 0 0 1-.122-.156.844.844 0 0 1-.07-.672.679.679 0 0 1 .253-.352c.128-.093.3-.175.448-.311.299-.265.505-.669.556-1.1a1.774 1.774 0 0 0-.04-.651 1.639 1.639 0 0 0-.11-.307 2.014 2.014 0 0 0-.16-.274c-.112-.164-.224-.304-.307-.435a1.482 1.482 0 0 1-.139-.274.577.577 0 0 1 .002-.343.292.292 0 0 1 .083-.136.08.08 0 0 1 .03-.015l.064-.013-.025-.1c.031-.007.063-.007.093-.018.462-.169.612-.924.335-1.686-.277-.763-.876-1.245-1.338-1.076-.462.168-.612.923-.335 1.686.15.413.395.738.66.928a1.054 1.054 0 0 0-.049.971c.026.055.035.07.066.124.05.088.103.161.162.236.116.146.243.276.353.41.055.065.11.136.148.2.054.092.08.147.11.23a1.51 1.51 0 0 1-.299 1.5c-.113.13-.262.22-.4.34a.8.8 0 0 0-.257.442.903.903 0 0 0 .143.71.78.78 0 0 0 .199.189l-.054-.047M1.362 32.37c.02-.042.054-.1.11-.165a.797.797 0 0 1 .6-.268c.136 0 .277.046.398.143.12.096.245.239.414.343.329.212.76.292 1.173.215a1.66 1.66 0 0 0 1.05-.667c.12-.157.219-.308.316-.427a1.453 1.453 0 0 1 .214-.216.537.537 0 0 1 .318-.1.27.27 0 0 1 .149.04c.012.01.02.019.022.024l.03.06.086-.055c.014.029.024.06.043.085.286.4 1.026.322 1.653-.174.626-.495.902-1.22.615-1.62-.286-.399-1.026-.32-1.653.175-.339.268-.57.602-.67.917a.976.976 0 0 0-.793.146c-.04.027-.08.06-.12.094-.043.042-.054.055-.095.1a1.96 1.96 0 0 0-.172.227c-.102.157-.186.318-.278.466a1.632 1.632 0 0 1-.145.202 1.21 1.21 0 0 1-.18.176c-.132.105-.29.185-.457.235-.335.1-.712.073-1.014-.08-.152-.073-.277-.191-.428-.29a.746.746 0 0 0-.48-.119.863.863 0 0 0-.617.35.782.782 0 0 0-.118.249l.029-.066M1.4 12.009a.616.616 0 0 1 .18.033c.146.05.354.19.463.454a.753.753 0 0 1 .045.438c-.03.156-.095.335-.112.54-.04.402.07.845.302 1.203.116.18.261.338.43.46.082.062.193.122.266.154.1.046.188.072.278.096.178.047.34.075.478.116a1.36 1.36 0 0 1 .265.111.578.578 0 0 1 .21.258.33.33 0 0 1 .028.159.08.08 0 0 1-.01.031 3.284 3.284 0 0 1-.036.054l.08.059c-.018.025-.04.047-.053.076-.21.442.155 1.11.816 1.492.66.382 1.367.333 1.577-.11.21-.442-.155-1.11-.816-1.492-.357-.206-.726-.283-1.024-.243a1.072 1.072 0 0 0-.568-.76c-.052-.025-.068-.03-.122-.05-.089-.03-.17-.049-.256-.064-.169-.03-.336-.04-.494-.065a1.378 1.378 0 0 1-.225-.05 1.082 1.082 0 0 1-.217-.096c-.14-.08-.27-.195-.379-.332a1.62 1.62 0 0 1-.347-.996c-.003-.174.043-.344.062-.53a.881.881 0 0 0-.098-.505.835.835 0 0 0-.538-.434.627.627 0 0 0-.186-.014l-.066.008.066-.001M31.96 35.766c.066-.164.068-.456-.13-.716a.93.93 0 0 0-.425-.3c-.173-.064-.352-.102-.513-.176a1.62 1.62 0 0 1-.78-.74 1.16 1.16 0 0 1-.124-.502c0-.159.038-.32.112-.472.072-.156.166-.314.242-.49.04-.091.072-.176.097-.285a.957.957 0 0 0 .023-.313.999.999 0 0 0-.57-.804c-.15-.282-.446-.56-.843-.75-.707-.34-1.45-.275-1.66.146-.21.42.192 1.037.899 1.377.628.301 1.282.281 1.568-.022.023.038.041.082.052.127.008.047.013.072.003.153-.006.05-.023.125-.045.196-.046.146-.122.311-.189.505-.07.195-.108.423-.081.658.026.227.107.444.226.632.237.378.61.646.992.774.195.066.384.087.544.13.156.039.297.118.392.22.198.21.23.481.182.643-.044.168-.127.24-.121.243-.006-.003.084-.065.148-.234M17.636 39.292c-.017-.026-.043-.065-.066-.119a1.286 1.286 0 0 1-.114-.463 1.733 1.733 0 0 1 .085-.657 1.806 1.806 0 0 1 .367-.639c.17-.184.384-.338.579-.525a1.89 1.89 0 0 0 .266-.309c.073-.11.12-.223.153-.334.443-.011.892-.54 1.044-1.27.165-.799-.09-1.53-.572-1.63-.48-.102-1.006.464-1.171 1.263-.123.59-.014 1.142.245 1.431 0 .024 0 .048-.004.075a.797.797 0 0 1-.07.24 1.485 1.485 0 0 1-.175.268c-.146.185-.348.374-.516.611a2.023 2.023 0 0 0-.32.774c-.05.26-.04.51.001.714.04.206.116.364.181.463.03.051.061.087.082.11l.03.038-.025-.04" fill="#036EB7"/></g></svg>