<svg width="29" height="46" xmlns="http://www.w3.org/2000/svg" xmlns:xlink="http://www.w3.org/1999/xlink"><defs><path d="M.09 29.105c0 7.98 6.456 17.71 14.422 17.71s14.423-9.73 14.423-17.71S19.32.16 14.512.16C3.094.161.089 21.125.089 29.105" id="a"/></defs><g fill="none" fill-rule="evenodd"><path d="M28 28.537C28 36.405 21.732 46 14 46S0 36.405 0 28.537 2.917 0 14 0c4.666 0 14 20.669 14 28.537" fill="#222D22"/><mask id="b" fill="#fff"><use xlink:href="#a"/></mask><path d="M12.951-7.198C8.121-5.108-1.328 4.647-1.104 12.692c.222 8.046.222 18.662 4.35 21.567 5.072 3.57 10.67 10.322 17.3 5.913 2.392-1.592 5.628-4.131 7.217-6.606 1.125-1.755 1.003-4.077 1.215-6.094.305-2.912 1.052-5.733.167-8.627-.556-1.82-1.422-3.676-2.162-5.429C25.034 8.801 22.975 4.2 20.733-.28c-.749-1.495-1.464-3.088-2.428-4.459-2.12-3.017-4.798-2.699-5.354-2.458" fill="#2E382E" mask="url(#b)"/><g fill="#444C44"><path d="M15.663 3.47C9.897 5.962 8.24 16.429 13.755 19.937c4.275 2.722 9.02-2.434 7.828-6.745-.81-2.932-2.245-6.338-4-8.84-.76-1.083-1.72-.97-1.92-.882M14.859 20.936c0 .133-.153.241-.342.241-.188 0-.34-.108-.34-.24 0-.134.152-.241.34-.241.189 0 .342.107.342.24"/><path d="M21.842 17.987c0 .133-.154.24-.342.24-.188 0-.34-.107-.34-.24s.152-.24.34-.24c.188 0 .342.107.342.24M12.844 20.2c0 .132-.113.24-.252.24a.247.247 0 0 1-.253-.24c0-.134.113-.241.253-.241s.252.107.252.24M14.314 20.2c0 .132-.113.24-.253.24a.247.247 0 0 1-.252-.24c0-.134.114-.241.252-.241.14 0 .253.107.253.24M21.848 14.67c0 .132-.112.24-.252.24a.246.246 0 0 1-.253-.24c0-.134.113-.241.253-.241s.252.107.252.24M10.823 10.43c0 .133-.114.24-.253.24a.247.247 0 0 1-.252-.24c0-.133.113-.24.252-.24.14 0 .253.107.253.24M10.272 8.402c0 .134-.114.241-.253.241a.247.247 0 0 1-.253-.24c0-.133.113-.241.253-.241s.253.108.253.24M10.639 12.642c0 .133-.113.24-.253.24a.247.247 0 0 1-.252-.24c0-.133.113-.24.252-.24.14 0 .253.107.253.24M9.537 13.564c0 .132-.113.24-.253.24a.247.247 0 0 1-.253-.24c0-.134.113-.241.253-.241s.253.107.253.24M13.028 13.195c0 .133-.113.24-.253.24a.247.247 0 0 1-.253-.24c0-.133.114-.24.253-.24.14 0 .253.107.253.24M16.152 3.426c0 .133-.113.24-.253.24a.247.247 0 0 1-.252-.24c0-.133.113-.24.252-.24.14 0 .253.107.253.24M16.887 20.752c0 .132-.113.24-.253.24a.247.247 0 0 1-.252-.24c0-.133.113-.24.252-.24.14 0 .253.107.253.24M19.092 20.752c0 .132-.113.24-.253.24a.247.247 0 0 1-.252-.24c0-.133.113-.24.252-.24.14 0 .253.107.253.24M12.293 19.277c0 .134-.113.24-.253.24a.246.246 0 0 1-.253-.24c0-.133.113-.24.253-.24s.253.107.253.24M11.125 19.277c0 .1-.084.179-.188.179a.183.183 0 0 1-.187-.179c0-.098.084-.179.187-.179.104 0 .188.08.188.18M18.844 21.674a.184.184 0 0 1-.188.179.184.184 0 0 1-.188-.18c0-.098.084-.179.188-.179s.188.08.188.18M17.373 21.674a.184.184 0 0 1-.187.179.184.184 0 0 1-.188-.18c0-.098.084-.179.188-.179.103 0 .187.08.187.18M21.784 15.96c0 .098-.084.179-.188.179a.184.184 0 0 1-.188-.18c0-.098.084-.178.188-.178s.188.08.188.178M10.574 13.932c0 .1-.084.18-.188.18a.184.184 0 0 1-.188-.18c0-.099.085-.179.188-.179.104 0 .188.08.188.179M9.84 14.67c0 .099-.085.178-.189.178a.183.183 0 0 1-.188-.179c0-.098.085-.179.188-.179.104 0 .188.08.188.18M21.6 12.642c0 .099-.084.179-.188.179a.183.183 0 0 1-.187-.18c0-.098.083-.178.187-.178s.188.08.188.179M10.39 16.512c0 .1-.084.18-.187.18a.183.183 0 0 1-.188-.18c0-.098.084-.178.188-.178.103 0 .187.08.187.178M9.656 15.223a.184.184 0 0 1-.189.178.183.183 0 0 1-.187-.178c0-.1.084-.18.187-.18.104 0 .189.08.189.18M11.933 5.085c0 .099.13.18.291.18.16 0 .29-.081.29-.18 0-.1-.13-.179-.29-.179-.16 0-.29.08-.29.179M10.938 6.97c.076.063.22.012.322-.113.101-.126.121-.277.045-.34-.077-.062-.22-.011-.322.114-.102.125-.121.277-.045.34M10.938 8.813c.076.063.22.012.322-.113.101-.126.121-.277.045-.34-.077-.062-.22-.01-.322.114-.102.125-.121.277-.045.34M10.39 9.693a.184.184 0 0 1-.187.18.184.184 0 0 1-.188-.18c0-.1.084-.179.188-.179.103 0 .187.08.187.18M10.023 11.352a.184.184 0 0 1-.188.179.183.183 0 0 1-.188-.18c0-.098.084-.178.188-.178s.188.08.188.179M11.677 7.481c0 .099-.084.18-.189.18a.184.184 0 0 1-.187-.18c0-.099.084-.179.187-.179.105 0 .189.08.189.179M11.31 7.666a.184.184 0 0 1-.189.178.183.183 0 0 1-.187-.178c0-.1.083-.18.187-.18s.188.08.188.18M12.06 6.087a.097.097 0 0 1-.1.095.097.097 0 0 1-.1-.095c0-.052.044-.095.1-.095.055 0 .1.043.1.095"/><path d="M10.758 10.615a.184.184 0 0 1-.188.178.184.184 0 0 1-.188-.178c0-.1.084-.18.188-.18s.188.08.188.18M21.967 16.882a.183.183 0 0 1-.187.178.184.184 0 0 1-.188-.178c0-.1.084-.18.188-.18.103 0 .187.08.187.18M14.617 3.795c0 .099-.084.178-.188.178a.183.183 0 0 1-.188-.178c0-.099.084-.18.188-.18s.188.081.188.18M12.411 6.56c0 .099-.084.178-.186.178a.183.183 0 0 1-.189-.179c0-.098.084-.179.189-.179.102 0 .186.08.186.18M13.882 21.12c0 .1-.084.18-.188.18a.183.183 0 0 1-.188-.18c0-.098.085-.178.188-.178.104 0 .188.08.188.178M20.681 19.277c0 .1-.084.179-.188.179a.183.183 0 0 1-.188-.179c0-.098.084-.179.188-.179s.188.08.188.18M12.228 5.27c0 .098-.084.178-.188.178a.184.184 0 0 1-.188-.179c0-.098.084-.179.188-.179s.188.08.188.18M10.206 12.089c0 .1-.083.179-.187.179a.183.183 0 0 1-.188-.18c0-.098.085-.178.188-.178.104 0 .187.08.187.179M10.023 12.642c0 .099-.084.179-.188.179a.183.183 0 0 1-.188-.18c0-.098.084-.178.188-.178s.188.08.188.179M10.574 13.38a.184.184 0 0 1-.188.178.184.184 0 0 1-.188-.179c0-.099.085-.179.188-.179.104 0 .188.08.188.18M21.6 18.725a.184.184 0 0 1-.188.178.183.183 0 0 1-.187-.178c0-.099.083-.18.187-.18s.188.081.188.18M13.514 5.085a.184.184 0 0 1-.188.18.184.184 0 0 1-.188-.18c0-.1.085-.179.188-.179.104 0 .188.08.188.179M13.698 3.795c0 .099-.084.178-.187.178a.183.183 0 0 1-.188-.178c0-.099.083-.18.188-.18.103 0 .187.081.187.18M21.416 12.089c0 .1-.084.179-.188.179a.183.183 0 0 1-.187-.18c0-.098.083-.178.187-.178s.188.08.188.179M19.762 19.462c0 .099-.084.178-.188.178a.183.183 0 0 1-.187-.178c0-.099.084-.18.187-.18.104 0 .188.081.188.18M10.758 15.223a.184.184 0 0 1-.188.178.184.184 0 0 1-.188-.178c0-.1.084-.18.188-.18s.188.08.188.18M21.573 17.987a.157.157 0 0 1-.16.153.156.156 0 0 1-.161-.153c0-.084.071-.153.16-.153.089 0 .161.069.161.153M17.897 20.936a.157.157 0 0 1-.16.154.157.157 0 0 1-.16-.154c0-.084.071-.153.16-.153.089 0 .16.069.16.153M13.671 20.568a.157.157 0 0 1-.16.153.157.157 0 0 1-.162-.153c0-.085.073-.154.162-.154.088 0 .16.07.16.154M20.681 18.356c0 .099-.084.179-.188.179a.184.184 0 0 1-.188-.18c0-.098.084-.178.188-.178s.188.08.188.179M15.536 20.568a.184.184 0 0 1-.188.179.183.183 0 0 1-.188-.18c0-.098.084-.178.188-.178.103 0 .188.08.188.179M13.514 19.646a.184.184 0 0 1-.188.18.184.184 0 0 1-.188-.18c0-.099.085-.18.188-.18.104 0 .188.081.188.18M11.31 16.697a.183.183 0 0 1-.189.179.183.183 0 0 1-.187-.18c0-.098.083-.178.187-.178s.188.08.188.179M11.86 17.619a.183.183 0 0 1-.187.178.184.184 0 0 1-.188-.178c0-.1.084-.18.188-.18.103 0 .187.08.187.18M12.66 18.54c0 .133-.113.24-.252.24a.247.247 0 0 1-.253-.24c0-.133.113-.24.253-.24s.252.107.252.24M17.247 20.752c0 .132-.152.24-.34.24-.189 0-.342-.108-.342-.24 0-.133.153-.24.341-.24.189 0 .341.107.341.24"/><path d="M12.306 18.065c.114.069.126.256.027.417-.099.161-.27.235-.383.165-.112-.07-.125-.256-.027-.418.1-.16.27-.234.383-.164M19.29 19.355c.112.07.125.256.026.417-.099.161-.27.235-.383.165-.113-.069-.125-.256-.026-.417.098-.161.27-.234.383-.165"/></g></g></svg>