<svg width="44" height="32" xmlns="http://www.w3.org/2000/svg" xmlns:xlink="http://www.w3.org/1999/xlink"><defs><path id="a" d="M.043.104h36.953V17H.043z"/><path id="c" d="M0 .11h7.959v5.788H0z"/></defs><g fill="none" fill-rule="evenodd"><path d="M4 28.82l.027-.09c.008-.032.02-.061.033-.098l.021-.06.025-.058c.07-.17.176-.356.316-.444a.318.318 0 0 1 .11-.045c.04-.008.08-.005.124-.006l.282-.003.327-.004.36-.014.842-.034c.308-.02.64-.044.996-.069.356-.025.732-.072 1.13-.11.397-.042.81-.106 1.245-.161.216-.031.435-.074.66-.111.223-.041.453-.071.683-.124.46-.1.94-.19 1.423-.323a26.597 26.597 0 0 0 3.011-.937l.775-.3.775-.335c.262-.107.519-.235.778-.359.258-.127.524-.241.779-.383l.776-.409c.258-.14.512-.292.77-.437l.386-.22.38-.235.76-.471 1.54-.984c.513-.325 1.017-.656 1.537-.965l3.026-1.821 1.439-.863.35-.211.342-.214.673-.417c.885-.548 1.726-1.063 2.494-1.563.766-.492 1.455-.948 2.038-1.392a12.87 12.87 0 0 0 1.425-1.246c.37-.375.612-.713.783-.94L37.68 12l.32.195-.216.415c-.155.26-.386.646-.742 1.08-.35.437-.815.93-1.388 1.44a28.143 28.143 0 0 1-1.984 1.593c-.734.552-1.548 1.128-2.408 1.744-.855.628-1.78 1.234-2.73 1.877l-2.918 1.964c-.499.325-.994.68-1.494 1.026l-1.504 1.044-.776.518-.388.259-.396.244c-.265.162-.526.33-.793.484-.269.15-.537.302-.804.452-.265.155-.541.284-.81.426-.27.139-.538.28-.812.402l-.813.375-.815.334a27.4 27.4 0 0 1-3.181 1.057c-.513.146-1.019.249-1.506.36-.243.058-.486.094-.722.14-.237.043-.469.09-.697.126l-.67.098c-.219.03-.432.066-.641.085-.417.042-.813.092-1.185.12l-1.043.077-.893.038-.382.016a288.387 288.387 0 0 1-.61.01c-.043 0-.084.004-.124-.003a.319.319 0 0 1-.111-.042c-.142-.085-.251-.267-.326-.436l-.026-.057-.023-.06c-.014-.036-.026-.065-.036-.097l-.028-.09L4 28.821z" fill="#F2F7E6"/><path d="M3 26.656c.188-2.323 6.768-9.209 7.228-9.69.46-.483 3.22-2.983 5.229-4.21 2.008-1.229 3.058-2.105 4.813-3.86 1.754-1.754 1.88-3.244 3.888-3.025 2.007.22 3.262.657 4.643.57 1.38-.088.962-2.149 3.848-3.245 2.886-1.097 4.434-1.491 5.48-.965 1.046.526 2.886.745 3.054 1.623.167.877-.336 2.455.334 3.113.669.658.753 1.184-.46 2.631-1.213 1.447-2.712 1.16-3.054 4.11-.342 2.95-.25 2.862-1.757 3.389-1.505.526-2.008.657-3.513 1.535-1.506.877-1.172.482-2.385 1.534-1.213 1.053-2.719 4.079-3.346 4.824-.627.746-3.273 1.404-4.502 1.666-1.229.264-1.647.721-2.526 1.26-.878.538-.92.414-2.384.542-1.463.128-1.297-.172-1.882 0-.586.172-2.217 1.18-3.053 1.268-.837.088.376.57-1.549 0-1.924-.57-1.673-.595-2.217-.627-.543-.03-4.35-.64-4.35-.64L3 26.655z" fill="#82C057"/><path d="M3 28.762c1.056-.674 3.613-.649 4.621-.712 1.009-.064 2.626-1.075 3.697-1.825 1.072-.749 1.954-1.108 2.521-1.3.567-.192 4.34-1.991 6.068-2.456 1.728-.466 7.88-5.045 8.762-5.283.883-.237 3.11-2.015 4.243-3.453 1.135-1.44 3.428-4.353 5.126-5.82 1.698-1.468 1.767-.725 1.767-.725L41 8.596 30.54 18.03l-12.353 6.702-8.633 3.724L6.157 29 3 28.762zM35 5c-.883.584-2.502 3.255-3.422 3.6-.92.345-6.235.508-6.875 1.407-.33.465-3.27 4.03-5.141 4.193-1.682.146-3.088.716-3.629 1.414-1.684 2.177-6.573 5.647-7.425 6.616-.851.969-2.322 2.712-3.688 3.872-1.366 1.16-1.53.864-1.53.864L2 26.744l9.044-9.948 7.945-4.585 6.11-4.67L31.518 5H35z" fill="#78B54F"/><path d="M6.391 29.46c-1.686-1.38 2.575-1.423 3.376-1.514.802-.091 2.406-1.383 5.866-3.254 3.46-1.872 6.457-2.496 10.466-4.812 4.008-2.318 5.942-3.343 7.212-4.412 1.27-1.07 1.185-.936 2.578-2.361 1.392-1.427 1.477-2.407 2.616-3.565 1.14-1.159-.21-1.249 2.279-2.451 2.49-1.204 3.08-1.113 3.207-1.07.126.045-1.097 2.986-1.14 3.165-.041.177-.337 1.47-1.476 3.074-1.14 1.604-1.055.311-1.14 1.604-.084 1.293-.97 2.383-3.207 4.255-2.237 1.871-2.406 1.685-3.418 2.353-1.012.669.507.716-2.025 2.206s-2.703 2.784-4.895 3.93c-2.193 1.144-2.702 1.468-2.702 1.468S11.456 33.603 6.39 29.459" fill="#78B54F"/><g transform="translate(4 15)"><mask id="b" fill="#fff"><use xlink:href="#a"/></mask><path d="M.127 14.502l.044-.068a.927.927 0 0 1 .051-.075c.02-.028.044-.062.069-.089.103-.13.246-.262.412-.318a.472.472 0 0 1 .263-.01l.305.05.76.122a125.7 125.7 0 0 0 4.725.652c.98.117 2.04.227 3.16.316.56.043 1.135.082 1.72.11.585.028 1.182.047 1.781.041.599-.005 1.205-.03 1.785-.102l.217-.028.027-.004c-.011.002.006 0 .007 0l.015-.003.06-.01.118-.02c.077-.014.166-.025.232-.04l.207-.043c.136-.026.288-.07.432-.103.145-.04.29-.08.437-.123a14.697 14.697 0 0 0 1.736-.665 21.302 21.302 0 0 0 1.705-.863c1.122-.627 2.208-1.345 3.266-2.083l1.574-1.113.781-.551c.26-.18.517-.36.773-.536.486-.344.971-.712 1.435-1.073.465-.363.914-.73 1.353-1.085a82.107 82.107 0 0 0 2.428-2.06 80.593 80.593 0 0 0 1.991-1.81 40.24 40.24 0 0 0 1.465-1.456c.393-.414.68-.755.857-.991.087-.119.154-.21.19-.272l.06-.095.428.216-.06.117c-.037.08-.101.186-.185.326-.17.276-.442.652-.81 1.11-.367.458-.832.995-1.382 1.592a56.32 56.32 0 0 1-1.892 1.961 82.82 82.82 0 0 1-2.336 2.223 52.12 52.12 0 0 1-1.323 1.169c-.46.393-.93.785-1.441 1.18l-.745.568-.75.58c-.502.393-1.017.788-1.545 1.182-1.054.787-2.155 1.567-3.324 2.271-.585.352-1.184.687-1.807.986-.623.296-1.265.562-1.926.78-.166.052-.333.103-.5.152l-.254.067a4.696 4.696 0 0 1-.26.064l-.266.06c-.09.021-.161.031-.243.047l-.119.022-.059.011-.038.007-.032.005-.26.04c-.688.097-1.347.133-1.992.15-.645.018-1.271.01-1.882-.01a43.316 43.316 0 0 1-1.784-.091 80.771 80.771 0 0 1-3.237-.295c-.998-.109-1.91-.23-2.717-.34-.807-.11-1.509-.214-2.087-.303l-.771-.122-.312-.05a.49.49 0 0 1-.25-.096.946.946 0 0 1-.288-.437c-.014-.035-.026-.074-.035-.107a.845.845 0 0 1-.024-.088l-.017-.08.084-.469z" fill="#F2F7E6" mask="url(#b)"/></g><path d="M3 27.832l.023-.334.03-.325.018-.21.003-.029.003-.02.006-.044.011-.09c.009-.06.017-.133.027-.19l.03-.159c.01-.053.02-.121.033-.157l.018-.066c.006-.02.012-.033.019-.051.026-.075.055-.112.086-.123.011-.001.005-.002.006-.003l-.002-.002a.04.04 0 0 0-.004-.005c-.006-.005-.013-.006-.018-.001-.006.004.011-.003.018-.005l.03-.009a.962.962 0 0 1 .062-.015c.04-.004.1-.035.158-.054.057-.015.13-.053.204-.086.303-.14.726-.395 1.227-.787.25-.19.52-.42.808-.673.29-.253.596-.533.949-.852l.118-.1.008-.007.017-.013.034-.026.068-.053.137-.106.278-.214.14-.11.171-.12.354-.245c.119-.08.24-.166.36-.243l.354-.218.359-.221c.12-.074.244-.139.367-.21.99-.555 2.049-1.043 3.114-1.506l.4-.172.201-.086.025-.011a.67.67 0 0 1-.034.016l.013-.006.049-.022.098-.046.396-.178c.065-.03.137-.06.195-.089l.17-.084.34-.169c.113-.053.237-.126.355-.188l.36-.195.357-.21c.478-.278.951-.59 1.432-.903.477-.321.955-.655 1.434-1.005l1.447-1.063c.487-.358.978-.718 1.473-1.073a44.332 44.332 0 0 1 3.012-1.964 54.501 54.501 0 0 1 2.917-1.635c.472-.246.937-.475 1.389-.692l.672-.309.653-.285c.213-.093.425-.177.631-.26.206-.085.41-.163.61-.236.198-.074.39-.148.58-.215l.554-.188c.357-.121.7-.217 1.01-.314l.867-.23a20.24 20.24 0 0 1 1.228-.26L35.894 8l.106.367-.398.178c-.128.06-.29.124-.474.213l-.635.301-.776.393c-.278.151-.582.305-.898.486a42.11 42.11 0 0 0-2.094 1.254l-.574.372-.588.397c-.398.27-.808.552-1.222.853-.828.6-1.699 1.244-2.573 1.936a1870.536 1870.536 0 0 1-1.01.792l-.318.263c-.437.354-.868.737-1.31 1.117-.881.764-1.766 1.592-2.711 2.394-.94.806-1.929 1.612-2.992 2.324l-.397.267-.407.255c-.138.085-.264.17-.412.253l-.433.248-.217.123c-.07.04-.13.07-.196.104l-.385.202-.096.05-.048.024-.094.046-.19.092-.379.183c-1 .487-1.916.967-2.723 1.464-.101.062-.206.12-.302.184a236.52 236.52 0 0 1-.568.374c-.088.061-.165.121-.247.18l-.241.176c-.041.03-.079.055-.122.088l-.138.112-.273.22-.135.11-.066.054-.034.027-.016.013-.009.007c-.026.022.204-.174.103-.087-.316.297-.643.613-.971.91-.33.297-.655.582-.988.844-.654.527-1.326.964-1.984 1.274-.167.077-.32.15-.488.208-.165.059-.307.119-.47.158l-.225.06-.106.027c-.038.008-.063.017-.112.024a7.418 7.418 0 0 1-.596.08c-.017 0-.034.002-.05.004-.016 0-.037.003-.042.001-.03-.009-.06-.046-.09-.12l-.02-.05a26.067 26.067 0 0 1-.02-.065c-.013-.035-.026-.103-.038-.156a74.563 74.563 0 0 1-.035-.157c-.012-.057-.023-.13-.033-.19l-.014-.09-.007-.042-.004-.02-.004-.029-.025-.21-.04-.323-.034-.333L3 27.832z" fill="#F2F7E6"/><g transform="translate(0 25)"><mask id="d" fill="#fff"><use xlink:href="#c"/></mask><path d="M1.136.11S.589 2.856 0 3.136l2.397 2.763s1.178-.83 1.977-.588c.799.242 2.408-.651 3.585-.635L1.136.11z" fill="#F2F7E6" mask="url(#d)"/></g><path d="M24.801 3.804s4.894-1.843 6.469-2.15C32.844 1.347 37.227.338 39.61.03c2.384-.307 1.15 1.8.341 3.095-.809 1.294-1.958 2.522-3.15 2.698-1.19.176-2.765-.307-3.318.615-.554.92-.766 1.667-1.958 2.15-1.192.482-2.128.79-3.532.746-1.405-.044-3.064-.176-4.085.658-1.022.834-1.745 1.755-2.086 2.414-.34.658 0 1.316-1.149 1.71-1.149.396-.984-.13-2.832.483-1.849.615-2.061.627-3.04 1.806-.98 1.179-3.107 3.766-3.958 4.162-.851.396-4.043 3.452-4.511 3.635C5.864 24.386 3 27 3 27s1.914-10.166 8.644-14.421c6.731-4.255 13.157-8.775 13.157-8.775" fill="#8EC865"/><path d="M1 28.608l.077-.511c.048-.328.129-.839.238-1.481.118-.642.257-1.424.486-2.327.103-.45.253-.932.403-1.437l.275-.776c.044-.133.104-.266.162-.4l.176-.407.09-.207.012-.026.029-.061.006-.011.024-.045.048-.09.195-.364c.07-.126.156-.269.234-.404a8.48 8.48 0 0 1 .245-.403 21.3 21.3 0 0 1 1.075-1.546c.389-.506.802-1.006 1.234-1.501.434-.492.885-.98 1.349-1.464.465-.483.941-.962 1.422-1.442l.724-.72.75-.727.372-.36.187-.18c.065-.06.135-.12.203-.179l.82-.712c.136-.117.272-.238.41-.354l.42-.329.84-.658c.28-.22.573-.417.859-.625.288-.204.571-.416.862-.612l.873-.58.435-.29c.145-.094.293-.183.439-.275.585-.364 1.162-.732 1.743-1.068l.863-.512.855-.489.422-.241.21-.12.111-.063.105-.057.417-.228c.139-.075.274-.151.422-.222a19.764 19.764 0 0 1 1.708-.774 17.681 17.681 0 0 1 3.262-.947c1.03-.194 1.98-.283 2.82-.332l.609-.03.566-.013c.363-.012.695-.005.996-.008.6.004 1.088.013 1.408.022l.509.013v.4l-.507.018c-.32.01-.796.03-1.39.061-.297.02-.63.034-.986.067l-.558.047-.597.065c-.818.097-1.736.24-2.713.486-.976.244-2.01.598-3.056 1.087a19.02 19.02 0 0 0-1.568.826c-.13.07-.264.156-.398.24-.134.083-.27.167-.404.252l-.102.063-.094.06-.201.132-.405.264-.82.536-.822.554c-.556.367-1.101.76-1.654 1.151-.138.099-.278.194-.414.295l-.408.307-.818.615c-.272.207-.534.428-.801.642-.264.218-.537.425-.794.651l-.77.678-.383.339-.362.35-.717.697c-.06.059-.12.114-.18.175l-.176.191-.352.383c-.231.25-.462.5-.69.749l-.684.762c-.45.504-.89 1-1.313 1.492-.42.493-.823.981-1.204 1.465a29.19 29.19 0 0 0-1.057 1.445c-.318.48-.62.95-.873 1.418-.069.118-.124.229-.18.338-.057.113-.112.213-.17.333l-.175.374-.043.093-.022.046-.005.012c.045-.094.01-.02.019-.038l-.008.02-.061.17-.122.33c-.04.109-.083.214-.113.33l-.193.655c-.103.443-.21.856-.28 1.265-.16.806-.25 1.539-.326 2.14-.07.605-.118 1.075-.15 1.418L3.851 29 1 28.608zM11.536 23l.256.195c.068.042.138.08.227.137.1.053.233.11.37.173.145.05.3.116.472.166.171.049.352.107.545.147.095.021.192.046.292.066l.302.055c.204.042.413.06.622.091.21.019.42.043.627.053.207.009.412.02.609.016.198.003.389-.008.57-.02.183-.005.35-.038.51-.054.156-.026.298-.059.426-.085.124-.04.233-.073.322-.101l.271-.13.043.103-.264.2-.319.18c-.125.057-.268.124-.425.188-.159.053-.33.126-.513.175-.184.054-.378.11-.58.154-.202.051-.412.087-.625.126-.214.04-.432.064-.65.094-.22.018-.439.048-.656.054l-.323.016c-.107.002-.213 0-.317 0-.208.004-.412-.012-.605-.023-.194-.012-.38-.045-.55-.064-.176-.037-.33-.066-.481-.107a7.5 7.5 0 0 1-.414-.15L11 24.52l.536-1.52zM17.487 20l.258.206c.07.044.144.085.237.146.103.056.237.115.376.181.148.052.304.12.478.172.173.05.356.11.55.15.096.023.194.048.294.068l.305.056c.205.041.415.058.626.09.21.017.422.04.63.048.208.007.414.017.612.01.2 0 .391-.013.573-.028.183-.009.352-.046.512-.064.157-.03.3-.066.428-.096l.323-.112.272-.142.039.099-.265.21c-.089.052-.197.115-.32.189-.127.058-.27.129-.428.194-.159.055-.33.132-.515.181a7.294 7.294 0 0 1-.581.158c-.203.052-.413.088-.627.128-.215.04-.433.063-.652.093-.22.016-.44.046-.656.05l-.324.012c-.107.003-.213-.001-.317-.002-.208.002-.411-.018-.604-.032-.194-.013-.379-.05-.55-.073-.174-.04-.328-.073-.477-.117a7.633 7.633 0 0 1-.406-.16L17 21.47 17.487 20zM20.26 18l.269.274.281.213c.116.075.258.152.408.237.156.064.322.152.503.212.182.06.372.131.573.175.1.024.202.053.306.074l.314.056c.212.044.429.052.645.08.216.01.433.027.647.022.213-.005.424-.006.627-.032.204-.014.4-.049.585-.084.187-.026.36-.092.522-.13.16-.055.306-.119.435-.17l.33-.187.274-.226.021.075-.271.276-.327.244c-.13.074-.275.163-.436.244-.162.066-.336.162-.523.219a5.403 5.403 0 0 1-.59.18c-.205.06-.418.096-.635.137-.217.04-.437.058-.658.085-.221.007-.443.034-.661.024l-.325-.005c-.107-.005-.213-.018-.317-.026-.209-.011-.41-.053-.603-.085-.191-.032-.373-.096-.542-.138-.168-.067-.32-.122-.461-.19-.143-.082-.273-.156-.373-.222l-.278-.23.26-1.102z" fill="#F2F7E6"/><path d="M21.13 16l-.066-.238c-.026-.068-.034-.188-.05-.309-.023-.127-.012-.255-.008-.398.001-.036.001-.072.004-.109l.017-.111.037-.233c.017-.079.04-.159.062-.24.02-.082.042-.166.076-.248l.093-.251c.035-.084.076-.166.114-.25.073-.17.178-.332.268-.497.108-.159.202-.323.323-.471.058-.075.113-.151.172-.223l.183-.21c.058-.069.123-.133.187-.195l.185-.183c.132-.11.246-.223.371-.31.124-.09.23-.176.341-.238.11-.062.195-.126.281-.162l.258-.124.022.032-.24.14c-.08.04-.158.11-.257.178-.101.066-.197.16-.307.253-.112.094-.212.211-.328.326l-.16.19c-.056.064-.112.13-.16.202l-.156.213c-.05.074-.094.15-.142.226-.101.15-.175.314-.263.472-.068.164-.152.323-.203.488-.027.081-.058.161-.083.242l-.061.239c-.024.078-.035.156-.047.232-.01.075-.025.15-.033.221l-.01.21-.006.1c.001.032.005.063.007.094.01.123.012.24.04.326.024.093.025.163.063.242l.09.232-.613.142zM14.101 20l-.051-.237-.013-.06c-.005-.02-.007-.053-.01-.082l-.018-.19c-.019-.143-.003-.275.005-.424l.009-.114.02-.114c.015-.078.03-.158.044-.24.02-.08.045-.162.069-.245.023-.083.047-.168.082-.25l.098-.253c.037-.083.079-.166.119-.25.075-.17.18-.33.271-.493.108-.157.204-.318.323-.464.057-.073.112-.148.17-.218l.18-.204c.057-.068.12-.13.182-.19l.18-.178c.13-.107.24-.215.36-.299.12-.085.222-.168.328-.226.105-.06.187-.12.269-.154l.244-.115.038.06-.214.144c-.07.041-.14.112-.227.181-.09.068-.173.163-.27.257-.097.094-.183.213-.284.328l-.138.19c-.047.064-.095.13-.136.201l-.132.213c-.042.072-.08.149-.12.224-.084.148-.144.31-.216.464-.054.161-.123.317-.161.477-.022.08-.046.157-.064.235l-.044.23c-.018.075-.024.15-.03.222-.007.072-.036.142-.04.21 0 .068-.018.133-.018.197v.093c0 .03.027.058.03.087a1.4 1.4 0 0 0 .06.29c.009.037.023.072.03.104.006.017.008.029.016.048l.025.057.094.227-1.06.261zM20.101 30l-.051-.237-.013-.06c-.005-.02-.007-.053-.01-.082l-.018-.19c-.019-.143-.003-.275.005-.424.003-.037.005-.076.01-.114l.02-.115.043-.239c.02-.08.045-.162.069-.245.023-.083.047-.168.082-.25l.098-.253c.037-.084.079-.166.119-.25.075-.17.18-.33.271-.494.108-.156.204-.317.323-.463.057-.073.112-.148.17-.218l.18-.204c.057-.068.12-.13.182-.191l.18-.177c.13-.107.24-.215.36-.3.12-.084.222-.167.328-.225.105-.06.187-.12.269-.154l.244-.115.038.06-.214.143c-.07.042-.14.113-.227.182-.09.068-.173.162-.27.257-.097.094-.183.213-.284.328l-.138.19c-.047.064-.095.13-.136.201l-.132.213c-.042.072-.08.149-.12.224-.084.148-.144.31-.216.464-.054.161-.123.317-.161.477-.022.08-.046.157-.064.235l-.044.23c-.018.075-.024.15-.03.222-.007.072-.015.142-.018.21l.002.197v.093c0 .03.006.058.01.087.014.112.02.221.048.29l.026.104c.005.017.005.029.013.048l.023.057.094.227-1.06.261zM26.283 26l-.071-.179c-.011-.029-.025-.058-.037-.095l-.038-.123-.042-.14c-.013-.048-.02-.098-.032-.15l-.031-.164-.018-.175c-.018-.12-.011-.247-.014-.378 0-.065.01-.131.014-.199.006-.067.01-.134.026-.203l.038-.205.06-.205c.017-.068.044-.136.073-.203.03-.066.05-.134.087-.198l.105-.192c.034-.063.084-.122.123-.182.077-.12.19-.226.279-.33.055-.047.109-.094.16-.14l.077-.065c.027-.021.057-.04.085-.059.111-.075.21-.145.318-.194.103-.052.187-.1.273-.127L27.97 22l.03.034-.227.11c-.076.03-.149.084-.237.14-.093.053-.173.127-.264.205-.022.02-.047.039-.069.06l-.06.068-.124.14c-.065.105-.151.208-.2.326-.027.058-.063.115-.083.177l-.064.184c-.022.062-.03.126-.045.19a1.099 1.099 0 0 0-.033.192l-.019.192v.192c-.002.063.006.126.012.188.008.062.01.123.021.183.026.12.04.236.077.343l.047.157.056.145c.019.046.034.091.053.132l.057.113.049.099c.015.03.037.062.053.089l.104.172-.82.169zM36.14 18l-.071-.238c-.029-.07-.035-.184-.054-.302-.023-.122-.013-.25-.012-.391.002-.035.001-.071.004-.108l.016-.11.033-.23c.017-.08.04-.159.06-.24.02-.082.041-.165.074-.246l.091-.251c.035-.084.076-.167.114-.251.071-.17.177-.332.266-.498.108-.159.202-.323.323-.473.059-.075.114-.151.173-.224l.184-.21c.059-.071.124-.135.188-.198l.186-.185c.135-.111.25-.224.376-.313.125-.09.232-.178.345-.24.11-.064.198-.13.285-.166l.262-.126.017.024-.248.138c-.082.04-.164.11-.267.177-.105.066-.204.159-.32.253-.115.093-.22.21-.341.325l-.168.19c-.057.064-.116.13-.167.202l-.163.214c-.052.073-.1.15-.15.226-.106.15-.184.315-.276.474-.073.165-.162.325-.217.49-.03.083-.063.164-.089.245l-.067.242c-.025.079-.038.158-.051.234-.013.077-.029.152-.038.226l-.014.213-.007.102c0 .032.004.065.006.096.008.126.009.245.036.337.024.096.026.173.063.251l.09.234-.472.107zM26.26 14l.268.274.282.213c.116.075.258.151.408.236.156.065.322.152.504.212.18.06.372.132.572.175.1.024.202.053.306.075l.314.055c.212.045.429.053.645.081.217.01.434.027.647.022.213-.005.424-.007.627-.033.204-.013.4-.048.585-.083.187-.026.36-.092.522-.131.16-.054.306-.118.435-.17l.33-.186.274-.226.021.075-.271.276-.327.244c-.13.074-.275.163-.436.244-.162.066-.336.162-.523.219a5.32 5.32 0 0 1-.59.18c-.205.06-.418.097-.635.137-.217.04-.437.058-.658.085-.221.007-.443.034-.661.024a84.22 84.22 0 0 0-.325-.005c-.107-.005-.213-.018-.317-.026-.209-.011-.41-.053-.603-.085-.191-.032-.373-.096-.541-.138-.17-.066-.321-.122-.462-.189-.143-.083-.273-.156-.373-.223L26 15.103 26.26 14zM21 4.74l.296-.145.155-.077c.059-.026.125-.05.194-.077.14-.05.296-.125.465-.167.17-.047.352-.109.548-.14l.3-.06.313-.037c.212-.032.433-.028.656-.037.111-.002.224.01.337.014.113.006.226.01.339.029l.338.046.334.073c.11.021.22.053.327.09.107.036.214.063.317.104.206.088.406.163.591.272.188.09.359.213.517.319.08.047.151.12.222.175.07.06.137.11.197.168.119.126.223.229.306.324l.248.33-.025.056-.256-.29c-.085-.083-.192-.17-.312-.277-.061-.047-.13-.089-.2-.138-.07-.044-.142-.105-.223-.142-.159-.082-.329-.18-.515-.243-.184-.081-.382-.128-.586-.187-.102-.026-.207-.04-.312-.06a2.289 2.289 0 0 0-.321-.045l-.327-.028h-.33c-.109-.005-.219.006-.328.015-.11.011-.218.014-.326.03-.215.038-.426.062-.63.12l-.298.075-.284.095c-.185.055-.356.138-.515.204-.16.062-.297.148-.423.21-.062.034-.12.062-.174.094l-.152.097-.289.184L21 4.74zM16 9.74l.296-.146.155-.076c.059-.026.125-.05.194-.077.14-.051.296-.125.465-.167.17-.047.352-.11.548-.14l.3-.06.313-.037c.212-.032.433-.027.656-.037.111-.002.224.01.337.014.113.005.226.01.339.029l.338.046.334.073c.11.021.22.053.327.09.107.035.214.063.317.104.207.088.407.163.592.271.187.091.358.214.516.32.08.047.152.12.222.175.07.06.137.11.197.168.119.126.223.229.306.324l.248.33-.025.056-.256-.29c-.085-.083-.192-.17-.312-.276-.061-.049-.13-.09-.2-.14-.07-.043-.142-.104-.222-.14-.16-.083-.33-.18-.516-.244-.184-.081-.382-.129-.586-.187-.102-.026-.207-.04-.312-.06a2.26 2.26 0 0 0-.321-.045l-.327-.028h-.329c-.11-.005-.22.006-.329.015-.11.01-.218.013-.326.03-.215.038-.426.062-.63.12l-.298.075-.284.095c-.185.055-.356.138-.515.204-.16.061-.297.148-.423.21-.062.034-.12.062-.174.093l-.152.097-.289.185L16 9.74zM12 11.74l.296-.145.156-.077c.058-.026.124-.05.193-.077.14-.05.296-.124.465-.166.17-.048.352-.11.548-.141l.3-.06.313-.037c.212-.032.433-.028.656-.037.111-.002.224.01.337.014.113.005.226.01.339.028l.338.047.334.073c.11.021.22.053.327.09.107.035.213.063.317.104.207.088.407.163.592.271.187.091.358.214.516.32.08.047.152.12.222.175.07.06.137.11.197.168.119.126.224.229.306.324l.248.33-.025.056-.256-.29c-.085-.083-.192-.17-.312-.276-.061-.048-.13-.09-.2-.139-.07-.044-.142-.105-.223-.142-.158-.082-.329-.18-.515-.243-.184-.081-.382-.129-.586-.187-.102-.026-.207-.04-.312-.06a2.262 2.262 0 0 0-.321-.045l-.327-.028h-.329c-.11-.005-.22.006-.329.015-.11.011-.218.014-.326.03-.215.038-.427.062-.63.12l-.298.075-.284.096c-.185.054-.356.137-.515.203-.16.062-.297.148-.422.21-.063.034-.12.062-.175.094a93.87 93.87 0 0 1-.152.097l-.289.184L12 11.74zM30.184 11l.27.155c.084.037.183.075.298.125.12.042.265.085.418.133.159.035.328.084.513.116.183.032.377.071.58.094.102.012.205.028.31.039l.318.028c.214.022.432.024.65.037.219.002.438.01.653.003.215-.006.428-.01.632-.027a8.33 8.33 0 0 0 .59-.057c.188-.018.362-.06.525-.084.16-.034.307-.073.438-.105l.33-.113.277-.136.014.031-.274.156-.329.136c-.13.041-.276.09-.438.135-.162.036-.338.09-.526.12a8.495 8.495 0 0 1-.593.096c-.206.032-.42.05-.637.07-.218.02-.44.028-.661.04-.222 0-.444.014-.662.005l-.326-.007c-.107-.004-.213-.013-.317-.02-.209-.009-.41-.036-.602-.057-.191-.021-.372-.06-.539-.086-.167-.04-.319-.074-.456-.114-.14-.048-.264-.09-.362-.129a244.15 244.15 0 0 0-.278-.137l.184-.447z" fill="#F2F7E6"/></g></svg>