<svg width="42" height="23" xmlns="http://www.w3.org/2000/svg" xmlns:xlink="http://www.w3.org/1999/xlink"><defs><path id="a" d="M.096.1h35.871v22.754H.097z"/></defs><g fill="none" fill-rule="evenodd"><g transform="translate(6)"><mask id="b" fill="#fff"><use xlink:href="#a"/></mask><path d="M.165 10.21c-.268 1.348.199 6.749 2.217 8.614 2.018 1.865 6.675 4.053 13.918 4.03 7.243-.023 15.848-.18 18.023-4.993 2.174-4.813 2.265-8.853-.163-11.988-2.428-3.134-8.093-6.45-16.11-5.654-8.017.795-16.482 2.893-17.885 9.99" fill="#CBCB47" mask="url(#b)"/></g><path d="M16 21.32s11.719 2.284 19.794-1.52c2.003-.943 3.709-3.384 4.163-7.45.324-2.905-1.29-4.264-1.29-4.264s-2.045-.89-1.38 3.048c.535 3.178-1.16 7.258-6.606 8.876C25.022 21.69 16 21.32 16 21.32M10.92 13.109c.318 1.92-.345 3.652-1.48 3.87-1.136.216-2.013-1.207-2.33-3.127-.317-1.921.046-3.613 1.18-3.83 1.137-.216 2.313 1.166 2.63 3.087" fill="#A7A435"/><path d="M9.968 13.302c.149.822-.238 1.576-.861 1.686-.623.109-.885-.517-1.032-1.338-.147-.823-.124-1.528.497-1.637.624-.108 1.249.468 1.396 1.29" fill="#D2D54E"/><path d="M12.368 4.988c1.695-.583 8.356-1.958 10.712-1.967 2.356-.009 8.371-.285 10.639 1.454 2.267 1.739.834 2.383.834 2.383s-7.483-.707-9.829-.586c-2.61.133-8.982.723-10.552.728-1.57.006-5.116-.873-1.804-2.012" fill="#DFDF69"/><path d="M25.371 3.457c.442-.182 2.151-.524 2.74-.445.59.075 2.105.17 2.619.969.514.8.136 1.019.136 1.019s-1.85-.553-2.442-.583c-.657-.035-2.27-.01-2.663-.062-.393-.051-1.253-.54-.39-.898" fill="#FEFEFE"/><path d="M8.36 12.028c-.32-.172-.241.514-.521.404-.28-.11-.406.052-.377.283.03.23.17.411.02.582-.152.172-.38.452-.63.573-.25.12-1.718.77-2.944.533s-2.128-.281-2.351-.423c-.222-.142-.665-.594-.84-.704-.176-.11-.793-.263-.71.274.085.538.747 1.385 1.152 1.621.406.237 1.087-.154 2.491.148 1.31.282 3.964-.467 4.436-.073.473.394.868.898 1.235.715.367-.184.33-.4.7-.548.37-.148 1.047-.195.973-.713-.073-.516-.37-1.09-.573-1.513-.206-.424-.377-.871-.794-.755-.416.115-.662.102-.765-.068-.102-.17-.42-.291-.502-.336" fill="#775D3E"/><path d="M7 12.207c.61.078 1.156.593 1.284 1.259.126.651-.19 1.234-.729 1.43a.774.774 0 0 0 .438.101c.544-.05 1.14-.786.981-1.613-.16-.827-1.015-1.43-1.56-1.381a.657.657 0 0 0-.414.204" fill="#674B2F"/></g></svg>