<svg width="39" height="33" xmlns="http://www.w3.org/2000/svg" xmlns:xlink="http://www.w3.org/1999/xlink"><defs><path id="a" d="M0 .158h38.995V33H0z"/></defs><g fill="none" fill-rule="evenodd"><mask id="b" fill="#fff"><use xlink:href="#a"/></mask><path d="M.12 11.984c.343-.363 1.106-.645 1.64-1.41.534-.767 2.824-7.217 8.47-9.11C15.875-.432 21.866-.029 25.03 1.18c3.167 1.209 8.813 4.797 9.958 6.812 1.145 2.016 2.9 5.684 3.586 6.248.687.565.343 1.693.267 2.177-.076.483.076.363.076 1.048 0 .686-.343 1.37-.458 2.015-.115.645.19.806-.496 1.612-.687.807-4.158 6.087-6.752 8.546-2.594 2.46-13.047 4.515-18.122 2.62-5.073-1.894-9.918-5.441-11.33-11.73 0 0-.381-1.692-.19-3.184.19-1.492.343-2.217-.23-2.54-.572-.322-1.182-.887-1.258-1.572-.077-.685-.153-1.048.038-1.25" fill="#8CC13F" mask="url(#b)"/><path d="M8.217 3.942c-1.436.98-2.41 4.23-2.184 5.984.225 1.755 2.331 2.9 4.29 3.06 1.96.16 6.683-.985 7.737-4.256 1.055-3.271 1.233-1.916.48-3.99-.754-2.074-4.823-4.547-10.323-.798" fill="#B3D349"/><path d="M26.447 25.228C36.587 20.655 35.751 13 35.751 13s.391.627.193 3.619c-.114 1.717-1.008 4.938-1.643 5.971-.636 1.033-2.622 5.165-6.04 6.973-3.16 1.672-11.918 3.787-16.924 1.29C5.989 28.187 6 27.283 6 27.283s10.265 2.535 20.447-2.055" fill="#81A73F"/><path d="M12.99 3.677c.096.522-.494 1.09-1.316 1.269-.824.179-1.568-.1-1.664-.623-.096-.522.494-1.09 1.317-1.269.823-.179 1.567.1 1.663.623" fill="#FEFEFE"/><path d="M8.993 12.384a.542.542 0 0 1-.411.602.462.462 0 0 1-.575-.37.54.54 0 0 1 .411-.602.463.463 0 0 1 .575.37M5.993 11.383a.542.542 0 0 1-.411.603.462.462 0 0 1-.575-.37.541.541 0 0 1 .412-.602.462.462 0 0 1 .574.37M9.993 13.383a.541.541 0 0 1-.412.603.46.46 0 0 1-.574-.37.54.54 0 0 1 .411-.602.462.462 0 0 1 .575.37M10.993 12.384a.542.542 0 0 1-.411.602.461.461 0 0 1-.575-.37.542.542 0 0 1 .411-.602.463.463 0 0 1 .575.37M11.993 13.383a.54.54 0 0 1-.412.603.46.46 0 0 1-.574-.37.54.54 0 0 1 .411-.602.463.463 0 0 1 .575.37M12.993 15.383a.542.542 0 0 1-.412.603.461.461 0 0 1-.574-.37.542.542 0 0 1 .412-.602.463.463 0 0 1 .574.37M13.993 12.383a.54.54 0 0 1-.411.603.461.461 0 0 1-.575-.37.541.541 0 0 1 .412-.602.462.462 0 0 1 .574.369" fill="#B3D349"/><path d="M11.993 12.383a.542.542 0 0 1-.411.603.462.462 0 0 1-.575-.37.54.54 0 0 1 .411-.602c.272-.064.53.1.575.37M10.993 15.383a.543.543 0 0 1-.412.603.462.462 0 0 1-.574-.37.54.54 0 0 1 .411-.602c.272-.064.53.1.575.37M15.993 14.384a.54.54 0 0 1-.411.602.463.463 0 0 1-.575-.37.54.54 0 0 1 .411-.602.461.461 0 0 1 .575.37M14.993 12.383a.543.543 0 0 1-.412.603.462.462 0 0 1-.574-.37.541.541 0 0 1 .41-.602c.273-.064.53.1.576.37M16.993 11.384a.541.541 0 0 1-.412.602.462.462 0 0 1-.574-.37.542.542 0 0 1 .41-.602.463.463 0 0 1 .576.37M17.993 12.383a.543.543 0 0 1-.411.603.462.462 0 0 1-.575-.37.542.542 0 0 1 .411-.602.462.462 0 0 1 .575.37M17.993 14.383a.543.543 0 0 1-.412.603.462.462 0 0 1-.574-.37.542.542 0 0 1 .411-.602c.273-.064.53.1.575.37" fill="#B3D349"/><path d="M25.993 25.383a.542.542 0 0 1-.411.603.462.462 0 0 1-.575-.37.54.54 0 0 1 .411-.602c.272-.064.53.1.575.369M27.993 25.383a.54.54 0 0 1-.411.603.462.462 0 0 1-.575-.37.54.54 0 0 1 .412-.602.462.462 0 0 1 .574.37" fill="#81A73F"/><path d="M27.993 24.384a.542.542 0 0 1-.412.602.462.462 0 0 1-.574-.37.542.542 0 0 1 .411-.602.463.463 0 0 1 .575.37M29.993 23.383a.54.54 0 0 1-.412.603.46.46 0 0 1-.574-.37.542.542 0 0 1 .411-.602.463.463 0 0 1 .575.37" fill="#81A73F"/><path d="M29.993 22.383a.542.542 0 0 1-.412.603.46.46 0 0 1-.574-.37.541.541 0 0 1 .41-.602.463.463 0 0 1 .576.369M31.993 21.383a.542.542 0 0 1-.411.603.462.462 0 0 1-.575-.37.54.54 0 0 1 .41-.602.463.463 0 0 1 .576.369M33.993 20.384a.542.542 0 0 1-.411.602.462.462 0 0 1-.575-.37.54.54 0 0 1 .41-.602.463.463 0 0 1 .576.37" fill="#81A73F"/><path d="M33.993 20.383a.543.543 0 0 1-.412.603.462.462 0 0 1-.574-.37.542.542 0 0 1 .41-.602c.273-.064.53.1.576.37" fill="#81A73F"/><path d="M34.993 20.383a.542.542 0 0 1-.412.603.46.46 0 0 1-.574-.37.54.54 0 0 1 .41-.602.463.463 0 0 1 .576.37M35.993 18.384a.54.54 0 0 1-.411.602.462.462 0 0 1-.575-.37.542.542 0 0 1 .412-.602.462.462 0 0 1 .574.37" fill="#81A73F"/><path d="M35.993 17.383a.542.542 0 0 1-.412.603.463.463 0 0 1-.574-.37.541.541 0 0 1 .411-.602c.272-.064.53.1.575.37M34.993 19.383a.544.544 0 0 1-.411.603.463.463 0 0 1-.575-.369.542.542 0 0 1 .411-.603c.273-.064.53.1.575.37" fill="#81A73F"/><path d="M33.993 19.383a.542.542 0 0 1-.411.603.462.462 0 0 1-.575-.37.54.54 0 0 1 .411-.602c.273-.064.53.1.575.37M32.993 20.383a.542.542 0 0 1-.412.603.461.461 0 0 1-.574-.37.541.541 0 0 1 .41-.602.463.463 0 0 1 .576.37M30.993 20.384a.54.54 0 0 1-.411.602.462.462 0 0 1-.575-.37.541.541 0 0 1 .412-.602.462.462 0 0 1 .574.37M29.993 21.384a.541.541 0 0 1-.411.602.462.462 0 0 1-.575-.37.54.54 0 0 1 .411-.602c.273-.065.53.1.575.37" fill="#81A73F"/><path d="M28.993 21.383a.542.542 0 0 1-.411.603.462.462 0 0 1-.575-.37.54.54 0 0 1 .411-.602c.272-.064.53.1.575.37M27.993 23.384a.541.541 0 0 1-.412.602.461.461 0 0 1-.574-.37.54.54 0 0 1 .411-.602.462.462 0 0 1 .575.37" fill="#81A73F"/><path d="M26.993 23.383a.543.543 0 0 1-.412.603.462.462 0 0 1-.574-.37.542.542 0 0 1 .411-.602.463.463 0 0 1 .575.37M24.993 24.384a.542.542 0 0 1-.411.602.463.463 0 0 1-.575-.37.542.542 0 0 1 .411-.602.463.463 0 0 1 .575.37" fill="#81A73F"/><path d="M24.993 25.383a.541.541 0 0 1-.411.603.461.461 0 0 1-.575-.37.542.542 0 0 1 .411-.602.463.463 0 0 1 .575.37M22.993 25.383a.542.542 0 0 1-.412.603.461.461 0 0 1-.574-.37.54.54 0 0 1 .41-.602.463.463 0 0 1 .576.37M20.993 25.383a.54.54 0 0 1-.412.603.46.46 0 0 1-.574-.37.54.54 0 0 1 .411-.602.462.462 0 0 1 .575.37" fill="#81A73F"/><path d="M19.993 25.383a.54.54 0 0 1-.412.603.46.46 0 0 1-.574-.37.541.541 0 0 1 .41-.602.462.462 0 0 1 .576.37" fill="#81A73F"/><path d="M19.993 12.383a.542.542 0 0 1-.412.603.462.462 0 0 1-.574-.37.542.542 0 0 1 .41-.603.464.464 0 0 1 .576.37M18.993 11.383a.542.542 0 0 1-.412.603.462.462 0 0 1-.574-.369.542.542 0 0 1 .411-.603c.273-.064.53.1.575.37" fill="#B3D349"/><path d="M19.993 11.383a.542.542 0 0 1-.412.603.462.462 0 0 1-.574-.37.541.541 0 0 1 .411-.602c.273-.064.53.1.575.37" fill="#B3D349"/><path d="M19.993 11.383a.543.543 0 0 1-.411.603.462.462 0 0 1-.575-.37.542.542 0 0 1 .411-.602c.272-.064.53.1.575.37" fill="#B3D349"/><path d="M19.993 10.383a.541.541 0 0 1-.411.603.46.46 0 0 1-.575-.37.541.541 0 0 1 .411-.602.462.462 0 0 1 .575.37" fill="#B3D349"/><path d="M19.993 9.383a.54.54 0 0 1-.412.603.46.46 0 0 1-.574-.369.542.542 0 0 1 .41-.603.463.463 0 0 1 .576.37M20.993 11.383a.542.542 0 0 1-.412.603.461.461 0 0 1-.574-.37.541.541 0 0 1 .41-.602.463.463 0 0 1 .576.37" fill="#B3D349"/><path d="M20.993 11.383a.542.542 0 0 1-.411.603.462.462 0 0 1-.575-.37.54.54 0 0 1 .41-.602c.273-.064.53.1.576.37M21.993 9.383a.543.543 0 0 1-.411.603.462.462 0 0 1-.575-.37.54.54 0 0 1 .411-.602c.273-.065.53.1.575.37M20.993 7.383a.542.542 0 0 1-.411.603.462.462 0 0 1-.575-.37.54.54 0 0 1 .41-.602c.273-.064.53.1.576.37M20.993 4.383a.541.541 0 0 1-.411.603.462.462 0 0 1-.575-.369.542.542 0 0 1 .412-.603c.272-.064.53.1.574.37" fill="#B3D349"/></g></svg>