<svg width="28" height="45" xmlns="http://www.w3.org/2000/svg" xmlns:xlink="http://www.w3.org/1999/xlink"><defs><path id="a" d="M0 .032h27.873v34.882H0z"/><path id="c" d="M.097.1h4.814v10.826H.097z"/></defs><g fill="none" fill-rule="evenodd"><g transform="translate(0 10)"><mask id="b" fill="#fff"><use xlink:href="#a"/></mask><path d="M12.559.088s11.834-1.256 15.017 16.39c2.313 13.578-9.57 18.29-12.49 18.423-2.918.134-15.249-.433-15.084-15.81C.167 3.714 8.429-.519 12.559.088" fill="#F48423" mask="url(#b)"/></g><path d="M9.955 10.883S2.677 17.41 3.011 26.09C3.345 34.769 6.897 43.722 15.328 44c6.317-.032 10.12-13.975 8.151-21.453-1.967-7.48-3.365-9.265-9.691-12.234 0 0-1.637-.998-3.833.57" fill="#F79826"/><path d="M19.317 14.016s2.1 1.186 2.965 3.575c.863 2.388 1.201 5.896-.452 6.36-1.654.466-3.612-2.533-3.787-5.048-.174-2.515.163-5.13 1.274-4.887" fill="#F6B533"/><path d="M9.192 10.525s-.748.306-1.053.807c-.304.502-.015.18-.015.18s.645-.184 1.445-.03c0 0-.142-.472-.045.49 0 0 .753-.124 1.39.19 0 0 .707.367 1.183.838 0 0 1.517-.935 2.585-.983a1.5 1.5 0 0 1 .168 0c1.069.054 1.361.5 1.361.5s-.28-1.394-.795-1.42c0 0 .974-.394 1.584-.116 0 0-2.99-1.016-4.187-.98-1.197.037-3.621.524-3.621.524" fill="#DA7127"/><path d="M14.862 10.016c.314.063.387.413.736.757.347.343.588 1.033.212 1.342-.375.31-.785-.027-1.109.043-.324.07-1.314.82-1.74.842-.426.024-1.961-.926-1.961-.926s.298-.649.373-1.147c.076-.498.355-.41.355-.41s2.53-.624 3.134-.5" fill="#758436"/><g transform="translate(11)"><mask id="d" fill="#fff"><use xlink:href="#c"/></mask><path d="M1.942.592l-.115.383c.052.303.259.396.25.72-.006.325-.016 2.065-.067 2.64-.05.575-.019 2.843-1.193 4.47 0 0-.268-.071-.345.359-.08.43-.375.993-.375.993s1.464.795 1.874.768c.41-.026 1.371-.687 1.685-.752.312-.065.701.217 1.066-.054.366-.273.143-.863-.187-1.152-.33-.291-.635-.31-.698-.642-.064-.333-.098-3.606.161-5.885 0 0-.247-.889-.21-1.21l.05-.434s-.72-.842-1.13-.673c-.411.167-.387-.17-.766.469" fill="#88A23C" mask="url(#d)"/></g><path d="M13.226 2.145s.19.041.286.27c.097.23.07.208.178.133a.438.438 0 0 1 .27-.099c.118-.008.072.023.286.241.213.219.186.215.269.262.082.048.097.104.102-.075.006-.178-.028-.003.029-.3.058-.298.147-.32.147-.32L15 2.169 14.984.883s-.573-.953-.929-.879c-.354.073-.555-.084-.713.16-.156.245-.197.199-.284.566-.087.37-.076.455.035.753.11.298.133.662.133.662" fill="#758436"/></g></svg>