<svg width="45" height="31" xmlns="http://www.w3.org/2000/svg" xmlns:xlink="http://www.w3.org/1999/xlink"><defs><path d="M1.68 2.305s.747 7.439-.553 11.58c-1.183 3.768-1 4.676-1 4.676l10.85.28s-.569-1.942-1.262-5.025C9.067 10.929 10.978.036 10.978.036" id="a"/><path d="M13.501 1.712c-1.969-.64-3.483 1.817-3.483 1.817-2.777-.598-3.99 1.132-3.99 1.132-2.373.583-1.565 2.62-1.565 2.62-1.01 1.133-1.01 3.673-1.01 3.673s-1.11.416-1.716.614c-.606.197-.757 2.76-.757 2.76s-.606.837-.91 3.547c-.302 2.71 1.01 3.154 1.01 3.154.152 1.134 1.515 1.824 1.515 1.824.555 1.576 1.162 1.675 2.474 1.675-.202.936 1.717.542 1.717.542.203 1.134 1.97.739 1.97.739.404.148 1.11-.394 1.11-.394.91-.05 1.566-.739 1.566-.739.202.74 1.767.837 1.767.837.606 2.514 6.564.987 6.564.987 1.666.64 3.433-1.233 3.433-1.233.808.197 1.01-.394 1.01-.394 2.02 3.991 6.11 1.133 6.11 1.133 1.414.937 2.575-1.478 2.575-1.478 1.464-.148 2.474-2.563 2.474-2.563.757-.246 1.134-2.266 1.134-2.266.83-.887-.074-2.464-.074-2.464.555-2.76-2.222-5.2-2.222-5.2.202-3.868-2.02-4.607-2.02-4.607-.05-1.626-2.575-1.811-2.575-1.811C29.205 3.215 26.58 3.3 26.58 3.3c-.404-1.073-2.272-1.248-2.272-1.248-.303-1.336-3.282-.93-3.282-.93s-.05-.79-2.929-1.045a6.067 6.067 0 0 0-.533-.024c-2.555 0-4.062 1.66-4.062 1.66z" id="c"/></defs><g fill="none" fill-rule="evenodd"><path d="M32.097 13.57c.32-1.61 1.414-2.676 2.424-2.774 0 0-.15-.235 1.87-.653 2.02-.418 3.537-.212 3.537-.212s-.102-.817.252-1.388c.353-.57 1.061-1.836 2.02-2.031 0 0-.707-1.033 0-1.027.708.005.253 0 .253 0S43.92 7.572 44.07 7.99c.151.42 1.01 1.675.505 2.435s-.291 1.635.157 2.195c.449.56.247 4.018-.662 4.99-.91.974-1.263 1.85-.91 3.019.354 1.168.354 2.677-.505 3.018 0 0 .404 2.58-3.486 2.482 0 0-.06 1.656-2.985 1.704-2.925.05-6.209-.925-6.209-.925l2.122-13.338z" fill="#91AF3D"/><path d="M28.764 21.986l.752-.438c.48-.282 1.165-.687 1.983-1.18 1.634-.99 3.807-2.325 5.896-3.753.521-.358 1.037-.722 1.532-1.091.494-.37.972-.743 1.39-1.127.097-.097.209-.191.295-.289l.136-.144.115-.142.014-.018.007-.009.004-.004c-.015.026-.002.004-.004.008l.028-.044.057-.09.114-.176c.082-.12.127-.224.19-.335.236-.444.422-.912.551-1.349.13-.438.224-.852.286-1.222.06-.37.102-.698.122-.968.045-.541.034-.853.034-.853l.034-.003s.056.308.09.857c.02.274.027.608.02.993-.007.385-.041.82-.11 1.295-.069.478-.187.983-.38 1.525-.051.132-.1.285-.16.404a78.63 78.63 0 0 0-.086.19l-.044.096-.022.048-.038.066-.125.212-.136.194c-.09.134-.19.247-.287.373-.396.482-.833.933-1.285 1.383-.453.448-.923.889-1.398 1.324-1.903 1.733-3.883 3.365-5.378 4.58-.748.607-1.376 1.107-1.817 1.456l-.7.55-1.68-2.32z" fill="#C9D27E"/><path d="M40.07 14.986l.118-.037a8.956 8.956 0 0 1 1.263-.297 5.22 5.22 0 0 1 .518-.06c.083-.007.165-.005.24-.007.077-.004.15.006.216.008.067.001.128.015.181.022.054.006.1.016.137.028l.117.032-.009.031-.117-.012a.663.663 0 0 0-.134-.006c-.053.002-.11-.002-.174.007-.064.009-.132.01-.205.026-.072.013-.148.023-.225.044-.156.035-.32.08-.481.135a8.494 8.494 0 0 0-1.145.474l-.102.052-.199-.44zM40.794 14.246s.044-.205.094-.525c.05-.317.105-.744.127-1.172a6.42 6.42 0 0 0 .007-.63c-.001-.1-.012-.196-.02-.288-.005-.093-.023-.177-.035-.257-.01-.08-.031-.15-.047-.213a.864.864 0 0 0-.051-.162l-.056-.138.03-.015.075.133c.026.042.05.095.074.158.025.063.057.133.078.214.023.079.053.165.071.258.021.093.045.19.06.293.036.204.062.423.079.643.036.44.04.88.031 1.211-.007.33-.025.554-.025.554l-.492-.064zM39.041 16.101l.03-.199c.019-.128.043-.311.064-.533.043-.444.078-1.04.046-1.633-.028-.592-.136-1.184-.318-1.592a2.247 2.247 0 0 0-.14-.27 1.558 1.558 0 0 0-.138-.193c-.039-.053-.08-.086-.103-.112l-.039-.04.022-.024.043.036c.027.024.072.055.118.106.05.048.103.11.16.186.057.076.117.165.172.267.23.406.4 1.006.487 1.611.092.606.115 1.218.114 1.677a12.367 12.367 0 0 1-.024.768l-.494-.055zM37.964 16.85s1.228-.02 2.453.01c.307.008.613.02.9.033.288.016.556.034.785.056.23.022.42.05.552.074l.206.05-.009.031-.205-.03a7.375 7.375 0 0 0-.55-.023c-.228 0-.494.005-.78.016a39.3 39.3 0 0 0-.893.05c-1.217.08-2.427.21-2.427.21l-.032-.478z" fill="#C9D27E"/><path d="M12.865 12.11c-.32-1.611-1.415-2.677-2.425-2.774 0 0 .152-.236-1.87-.654-2.02-.417-3.535-.212-3.535-.212s.1-.817-.253-1.387c-.353-.571-1.061-1.837-2.02-2.031 0 0 .706-1.033 0-1.028-.707.006-.253 0-.253 0S1.043 6.112.892 6.53c-.151.42-1.01 1.674-.505 2.434.505.76.292 1.635-.157 2.195-.449.56-.247 4.018.662 4.99.91.975 1.263 1.851.91 3.02-.354 1.168-.354 2.676.505 3.017 0 0-.404 2.58 3.485 2.483 0 0 .061 1.655 2.986 1.704 2.925.048 6.209-.925 6.209-.925l-2.122-13.338z" fill="#91AF3D"/><path d="M14.517 22.843l-.699-.548c-.442-.35-1.07-.85-1.818-1.456-1.494-1.215-3.474-2.848-5.378-4.581a49.588 49.588 0 0 1-1.398-1.324c-.452-.449-.888-.9-1.284-1.382-.097-.127-.197-.24-.287-.373l-.136-.194-.126-.212-.037-.066-.022-.049-.044-.095-.087-.19c-.06-.12-.108-.272-.16-.404a7.902 7.902 0 0 1-.38-1.525 10.719 10.719 0 0 1-.09-2.288c.034-.549.09-.858.09-.858l.035.003s-.011.312.034.853c.02.27.061.598.122.968.062.371.156.784.286 1.223.128.437.315.904.55 1.348.064.111.109.216.19.336l.114.176.057.09.029.044-.004-.008.003.004.008.009.014.017.115.143.136.144c.086.097.197.192.295.289.418.383.896.757 1.39 1.126.495.37 1.01.733 1.531 1.091 2.09 1.429 4.262 2.764 5.896 3.752a182.209 182.209 0 0 0 2.736 1.619l-1.681 2.318z" fill="#C9D27E"/><path d="M4.694 13.965l-.102-.052a8.507 8.507 0 0 0-1.145-.474 4.936 4.936 0 0 0-.48-.134c-.078-.02-.154-.03-.226-.045-.073-.015-.14-.017-.205-.025-.064-.01-.121-.005-.174-.007a.678.678 0 0 0-.134.005l-.117.013-.01-.031.118-.032a.712.712 0 0 1 .137-.029c.053-.006.114-.02.18-.021.067-.002.14-.012.216-.008.076.002.158 0 .24.008.167.01.344.03.52.058a8.941 8.941 0 0 1 1.263.297l.118.038-.2.44zM3.675 12.85s-.017-.225-.024-.554c-.008-.33-.006-.772.03-1.212.018-.22.043-.439.08-.643.015-.102.039-.2.06-.293.018-.092.048-.179.07-.258.022-.08.054-.15.079-.213a.923.923 0 0 1 .074-.159l.075-.133.03.016-.056.138a.871.871 0 0 0-.05.161c-.017.063-.038.133-.048.214-.012.08-.03.164-.035.256-.008.092-.019.188-.02.29-.009.2-.005.414.007.628.022.428.076.855.127 1.173.05.32.094.524.094.524l-.493.065zM5.426 14.696l-.012-.213a12.736 12.736 0 0 1-.012-.556c0-.458.023-1.07.115-1.676.087-.606.257-1.205.487-1.612.056-.102.116-.19.172-.267.058-.075.111-.138.161-.185.045-.05.09-.082.118-.106a7.67 7.67 0 0 1 .043-.036l.021.024-.038.04c-.024.025-.064.059-.104.112-.043.05-.089.115-.137.192a2.246 2.246 0 0 0-.14.27c-.183.409-.29 1-.319 1.593-.032.593.003 1.19.045 1.633a12.428 12.428 0 0 0 .094.732l-.494.055zM6.966 15.867s-1.21-.13-2.427-.21c-.304-.021-.608-.037-.894-.05a19.076 19.076 0 0 0-.78-.016c-.227 0-.416.012-.55.022l-.204.03-.01-.03.207-.05c.132-.024.323-.053.552-.075.23-.021.497-.04.785-.055.287-.013.593-.025.9-.033 1.225-.03 2.453-.011 2.453-.011l-.032.478z" fill="#C9D27E"/><path d="M18.616 14.692s.725 7.048-.54 10.97c-1.149 3.57-1.144 5.194-.673 5.194.472 0 9.633.324 10.037 0 .405-.325-.336-2.337-1.01-5.258-.63-2.735 1.228-13.056 1.228-13.056l-9.042 2.15z" fill="#BDBEA5"/><g transform="translate(17 11)"><mask id="b" fill="#fff"><use xlink:href="#a"/></mask><path d="M-8.579 15.851c-1.35 0-1.974-.103-2.545-1.747 0 0-1.402-.719-1.558-1.901 0 0-1.35-.463-1.039-3.289.312-2.826.935-3.7.935-3.7s.156-2.672.78-2.877c.623-.206 1.765-.641 1.765-.641s0-2.648 1.039-3.83c0 0-.831-2.125 1.61-2.732 0 0 1.247-1.803 4.104-1.18 0 0 1.558-2.562 3.584-1.894 0 0 1.766-1.972 4.727-1.706 2.96.267 3.013 1.09 3.013 1.09s3.065-.423 3.376.97c0 0 1.922.182 2.338 1.302 0 0 2.7-.09 3.116 2.416 0 0 2.597.192 2.65 1.888 0 0 2.285.77 2.077 4.805 0 0 2.857 2.544 2.285 5.421 0 0 .93 1.645.076 2.57 0 0-.387 2.106-1.166 2.363 0 0-1.039 2.518-2.546 2.672 0 0-1.194 2.518-2.648 1.542 0 0-4.208 2.98-6.286-1.182 0 0-.207.617-1.039.411 0 0-1.818 1.953-3.532 1.284 0 0-6.13 1.594-6.752-1.027 0 0-1.61-.103-1.818-.873 0 0-.676.719-1.61.77 0 0-.728.566-1.144.411 0 0-1.817.411-2.025-.77 0 0-1.975.41-1.767-.566" fill="#AFAF95" mask="url(#b)"/></g><path d="M9.068 24.526c-1.319 0-1.928-.1-2.486-1.68 0 0-1.37-.69-1.522-1.826 0 0-1.319-.445-1.014-3.16.304-2.717.913-3.556.913-3.556s.152-2.568.761-2.766a56.367 56.367 0 0 0 1.724-.615s0-2.545 1.015-3.68c0 0-.812-2.042 1.573-2.626 0 0 1.218-1.733 4.008-1.134 0 0 1.522-2.463 3.5-1.82 0 0 1.726-1.896 4.617-1.64C25.049.28 25.1 1.07 25.1 1.07s2.993-.406 3.297.932c0 0 1.878.176 2.284 1.252 0 0 2.638-.086 3.043 2.321 0 0 2.538.186 2.588 1.815 0 0 2.232.74 2.03 4.617 0 0 2.79 2.445 2.231 5.21 0 0 .909 1.58.075 2.47 0 0-.379 2.024-1.14 2.27 0 0-1.014 2.42-2.486 2.569 0 0-1.166 2.42-2.587 1.481 0 0-4.109 2.864-6.139-1.136 0 0-.203.593-1.014.395 0 0-1.776 1.877-3.45 1.235 0 0-5.987 1.53-6.596-.988 0 0-1.572-.098-1.775-.839 0 0-.66.691-1.573.74 0 0-.71.544-1.117.395 0 0-1.775.396-1.978-.74 0 0-1.928.395-1.725-.543" fill="#E1E0C7"/><g transform="translate(4)"><mask id="d" fill="#fff"><use xlink:href="#c"/></mask><path d="M4.372 20.8c.176 1.043 1.078 3.1 2.559 1.385 0 0 1.414 1.57 2.221-.335 0 0 3.164 1.459 4.377.335 0 0 2.64-.264 2.6-1.711 0 0 .362 1.245 1.17.72 0 0 .337 1.999 2.356 1.459 0 0 3.3 1.103 5.185-.934 0 0 1.548.788 2.356 0 .808-.789.195.131.195.131s1.22 1.13 3.104.335c0 0 .404 2.36 2.222 1.834 0 0-.085 2.896 2.246 2.86l5.529-7.72-12.32-28.45L.024 4.155l-1.377 15.263 2.425 1.511s1.684 1.571 2.492.72l.807-.85z" fill="#FCFBE6" mask="url(#d)"/></g><g fill="#E1E0C7"><path d="M30.765 13.264c-.49.094-1.007.11-1.482-.065-.252-.091-.544-.258-.69-.48-.374.35-1.249.707-1.727.276.385.346.863.63 1.353.807 1.015.367 1.753.154 2.546-.538M36.906 20.455c-.25.277-.936-.07-1.174-.158-.304-.113-.194-.076-.54.033-.236.076-.472.051-.704-.015.39.11.683.478 1.129.558.49.089.955-.05 1.289-.418M13.902 14.503l-.005-.002c.93 1.199 2.456.931 3.67.406-.201.087-.822-.218-.995-.312-.322-.172-.544-.388-.602-.748-.121.29-.429 1.003-.851.668.192.153-.339.169-.34.169-.284.001-.601-.122-.877-.181M11.63 8.158s.393.524 1.647.266c1.252-.258-.573 1-1.038.616 0 0-1.29.088-.61-.882M7.334 17.282s.393.523 1.646.265c1.253-.257-.573 1.001-1.038.617 0 0-1.289.088-.608-.882"/></g></g></svg>